<svg xmlns="http://www.w3.org/2000/svg" xmlns:xlink="http://www.w3.org/1999/xlink" width="100" zoomAndPan="magnify" viewBox="0 0 75 74.999997" height="100" preserveAspectRatio="xMidYMid meet" version="1.0"><defs><g/></defs><rect x="-7.5" width="90" fill="#ffffff" y="-7.5" height="89.999996" fill-opacity="1"/><rect x="-7.5" width="90" fill="#ffffff" y="-7.5" height="89.999996" fill-opacity="1"/><g fill="#000000" fill-opacity="1"><g transform="translate(15.760446, 51.185224)"><g><path d="M 18.28125 -4.421875 C 16.070312 -4.421875 13.960938 -4.9375 11.953125 -5.96875 C 9.953125 -7.007812 8.066406 -8.769531 6.296875 -11.25 C 4.523438 -13.726562 2.894531 -17.144531 1.40625 -21.5 L 4.953125 -22.65625 C 6.671875 -17.570312 8.578125 -13.878906 10.671875 -11.578125 C 12.765625 -9.273438 15.332031 -8.125 18.375 -8.125 C 21.039062 -8.125 22.9375 -8.742188 24.0625 -9.984375 C 25.195312 -11.234375 25.765625 -12.769531 25.765625 -14.59375 C 25.765625 -16.46875 25.253906 -17.988281 24.234375 -19.15625 C 23.210938 -20.320312 21.941406 -20.90625 20.421875 -20.90625 C 18.253906 -20.90625 17.171875 -19.96875 17.171875 -18.09375 C 17.171875 -17.832031 17.203125 -17.515625 17.265625 -17.140625 C 17.328125 -16.765625 17.421875 -16.414062 17.546875 -16.09375 L 13.859375 -15.359375 C 13.628906 -16.046875 13.457031 -16.671875 13.34375 -17.234375 C 13.226562 -17.804688 13.171875 -18.347656 13.171875 -18.859375 C 13.171875 -19.992188 13.476562 -20.957031 14.09375 -21.75 C 14.71875 -22.550781 15.515625 -23.160156 16.484375 -23.578125 C 16.191406 -24.296875 15.742188 -24.929688 15.140625 -25.484375 C 14.546875 -26.035156 13.742188 -26.472656 12.734375 -26.796875 L -0.484375 -26.796875 L -0.484375 -30.25 L 43.90625 -30.25 L 43.90625 -26.796875 L 38.796875 -26.796875 L 38.796875 0 L 35.0625 0 C 34.15625 -1.8125 33.050781 -3.40625 31.75 -4.78125 C 30.457031 -6.164062 29.082031 -7.375 27.625 -8.40625 C 26.707031 -7.207031 25.472656 -6.242188 23.921875 -5.515625 C 22.367188 -4.785156 20.488281 -4.421875 18.28125 -4.421875 Z M 29.46875 -14.296875 C 29.46875 -13.328125 29.335938 -12.382812 29.078125 -11.46875 C 30.242188 -10.726562 31.398438 -9.796875 32.546875 -8.671875 C 33.703125 -7.554688 34.585938 -6.429688 35.203125 -5.296875 C 35.140625 -6.015625 35.097656 -6.6875 35.078125 -7.3125 C 35.066406 -7.945312 35.0625 -8.65625 35.0625 -9.4375 L 35.0625 -26.796875 L 18.53125 -26.796875 C 19.332031 -26.109375 19.898438 -25.28125 20.234375 -24.3125 C 22.109375 -24.28125 23.734375 -23.832031 25.109375 -22.96875 C 26.492188 -22.113281 27.566406 -20.941406 28.328125 -19.453125 C 29.085938 -17.960938 29.46875 -16.242188 29.46875 -14.296875 Z M 29.46875 -14.296875 "/></g></g></g></svg>