<svg xmlns="http://www.w3.org/2000/svg" xmlns:xlink="http://www.w3.org/1999/xlink" width="100" zoomAndPan="magnify" viewBox="0 0 75 74.999997" height="100" preserveAspectRatio="xMidYMid meet" version="1.0"><defs><g/></defs><rect x="-7.5" width="90" fill="#ffffff" y="-7.5" height="89.999996" fill-opacity="1"/><rect x="-7.5" width="90" fill="#ffffff" y="-7.5" height="89.999996" fill-opacity="1"/><g fill="#000000" fill-opacity="1"><g transform="translate(23.672219, 51.185224)"><g><path d="M 28.453125 -26.796875 L 23.4375 -26.796875 L 23.4375 0 L 19.5 0 L 19.5 -8.015625 C 18.625 -7.429688 17.5625 -6.90625 16.3125 -6.4375 C 15.0625 -5.96875 13.53125 -5.734375 11.71875 -5.734375 C 9.875 -5.734375 8.238281 -6.070312 6.8125 -6.75 C 5.382812 -7.4375 4.265625 -8.382812 3.453125 -9.59375 C 2.640625 -10.8125 2.234375 -12.25 2.234375 -13.90625 C 2.234375 -16.695312 3.210938 -18.835938 5.171875 -20.328125 C 7.140625 -21.816406 9.710938 -22.5625 12.890625 -22.5625 C 13.304688 -22.5625 13.847656 -22.535156 14.515625 -22.484375 C 15.179688 -22.441406 15.828125 -22.378906 16.453125 -22.296875 C 17.085938 -22.210938 17.582031 -22.140625 17.9375 -22.078125 L 17.65625 -18.71875 C 17 -18.851562 16.265625 -18.96875 15.453125 -19.0625 C 14.648438 -19.15625 13.84375 -19.203125 13.03125 -19.203125 C 12.382812 -19.203125 11.769531 -19.15625 11.1875 -19.0625 L 17.75 -10.890625 C 18.363281 -11.347656 18.945312 -11.867188 19.5 -12.453125 L 19.5 -26.796875 L 0 -26.796875 L 0 -30.25 L 28.453125 -30.25 Z M 6.171875 -13.953125 C 6.171875 -12.234375 6.710938 -10.96875 7.796875 -10.15625 C 8.890625 -9.351562 10.210938 -8.953125 11.765625 -8.953125 C 12.347656 -8.953125 12.90625 -9 13.4375 -9.09375 C 13.976562 -9.1875 14.488281 -9.316406 14.96875 -9.484375 L 8.171875 -17.984375 C 6.835938 -17.078125 6.171875 -15.734375 6.171875 -13.953125 Z M 6.171875 -13.953125 "/></g></g></g></svg>