<?xml version="1.0" encoding="UTF-8"?>
<svg version="1.1" xmlns="http://www.w3.org/2000/svg" width="500" height="500">
<path d="M0 0 C6.30982652 5.94980639 11.14751969 13.053168 15.9609375 20.2265625 C17.66365742 22.53739668 19.5254086 24.47626542 21.6015625 26.453125 C21.99085938 25.80988281 22.38015625 25.16664063 22.78125 24.50390625 C32.72932148 8.43570785 44.22698238 -7.8490253 63.6015625 -12.546875 C77.85287896 -15.43050258 92.44441537 -11.06672892 104.6796875 -3.69140625 C112.099084 1.50009884 120.61613525 7.62059152 123.6015625 16.453125 C124.2615625 16.453125 124.9215625 16.453125 125.6015625 16.453125 C126.70194172 18.48697198 127.78093953 20.52864675 128.8515625 22.578125 C129.45484375 23.71507812 130.058125 24.85203125 130.6796875 26.0234375 C135.84365367 37.17055592 137.22459391 47.9613858 137.0390625 60.140625 C137.04475291 61.47722061 137.05191116 62.8138108 137.06054688 64.15039062 C136.993649 74.52985367 135.17668837 83.29337536 131.1015625 92.828125 C130.699375 93.78460938 130.2971875 94.74109375 129.8828125 95.7265625 C128.60652459 98.44256544 127.29600337 100.97455458 125.6015625 103.453125 C124.9415625 103.453125 124.2815625 103.453125 123.6015625 103.453125 C123.39058857 106.23893982 123.27591201 107.92882771 124.7734375 110.33984375 C125.29421875 110.93410156 125.815 111.52835937 126.3515625 112.140625 C136.14954505 124.3475678 135.52565341 139.59281394 134.6015625 154.453125 C133.17125029 162.97468391 128.98354271 170.71902169 123.6015625 177.453125 C122.9415625 177.453125 122.2815625 177.453125 121.6015625 177.453125 C121.3334375 178.030625 121.0653125 178.608125 120.7890625 179.203125 C119.57227061 181.50862543 118.29822371 183.47368692 116.6015625 185.453125 C115.9415625 185.453125 115.2815625 185.453125 114.6015625 185.453125 C114.6015625 186.113125 114.6015625 186.773125 114.6015625 187.453125 C113.9415625 187.453125 113.2815625 187.453125 112.6015625 187.453125 C112.6015625 188.113125 112.6015625 188.773125 112.6015625 189.453125 C110.41053393 191.28049737 108.22286204 192.97294111 105.9140625 194.640625 C105.23359863 195.13385254 104.55313477 195.62708008 103.85205078 196.13525391 C72.32504925 218.57907463 31.55596191 224.77138994 -6.15087891 218.86376953 C-29.80012684 214.70998543 -53.01951413 205.14334816 -71.3984375 189.453125 C-71.3984375 188.793125 -71.3984375 188.133125 -71.3984375 187.453125 C-72.0584375 187.453125 -72.7184375 187.453125 -73.3984375 187.453125 C-73.3984375 186.793125 -73.3984375 186.133125 -73.3984375 185.453125 C-74.0584375 185.453125 -74.7184375 185.453125 -75.3984375 185.453125 C-78.3984375 181.99158654 -78.3984375 181.99158654 -78.3984375 179.453125 C-79.0584375 179.453125 -79.7184375 179.453125 -80.3984375 179.453125 C-80.3984375 178.793125 -80.3984375 178.133125 -80.3984375 177.453125 C-81.0584375 177.453125 -81.7184375 177.453125 -82.3984375 177.453125 C-86.3984375 172.15900735 -86.3984375 172.15900735 -86.3984375 168.453125 C-87.0584375 168.453125 -87.7184375 168.453125 -88.3984375 168.453125 C-94.89371782 152.8980072 -96.61008433 137.13441305 -90.5234375 121.015625 C-88.45246955 116.26321721 -86.08957591 112.14426341 -82.3984375 108.453125 C-82.76445208 105.07287267 -84.38458646 102.69719483 -86.2109375 99.890625 C-96.79043763 82.63868234 -98.51838272 59.73662459 -94.48828125 40.1640625 C-92.40219165 32.02848924 -88.86992441 24.54837696 -84.3984375 17.453125 C-84.00269531 16.793125 -83.60695312 16.133125 -83.19921875 15.453125 C-82.1484375 13.765625 -82.1484375 13.765625 -80.3984375 11.453125 C-79.7384375 11.453125 -79.0784375 11.453125 -78.3984375 11.453125 C-78.3984375 10.793125 -78.3984375 10.133125 -78.3984375 9.453125 C-77.7384375 9.453125 -77.0784375 9.453125 -76.3984375 9.453125 C-76.1303125 8.85242188 -75.8621875 8.25171875 -75.5859375 7.6328125 C-70.24435836 -2.17179658 -55.45752008 -8.33806371 -45.3984375 -11.546875 C-27.31943807 -15.60072078 -13.95085564 -11.86805184 0 0 Z " fill="#FBCC7F" transform="translate(229.3984375,169.546875)"/>
<path d="M0 0 C3.15379068 2.74945854 3.89689324 4.53998523 4.8125 8.625 C5 12 5 12 4 15 C4.97582031 14.84144531 5.95164062 14.68289062 6.95703125 14.51953125 C11.20302068 13.91784687 15.40312784 13.74392281 19.6875 13.6875 C20.43322266 13.65849609 21.17894531 13.62949219 21.94726562 13.59960938 C25.32437613 13.56044574 27.60288779 13.76050132 30.51953125 15.51953125 C32.6835745 19.14530293 32.27875714 21.81864294 32 26 C32.98355469 26.18433594 33.96710938 26.36867188 34.98046875 26.55859375 C65.29960609 32.70992662 96.98401 50.17356861 116 75 C116 75.66 116 76.32 116 77 C116.66 77 117.32 77 118 77 C124.19583843 84.62268088 128.90288823 93.17622821 133.37109375 101.8828125 C134.953151 105.04485459 134.953151 105.04485459 137 108 C137.50144531 107.7834375 138.00289063 107.566875 138.51953125 107.34375 C144.5393952 105.12860415 150.21285324 104.66958935 156.5625 104.625 C157.35309814 104.61146484 158.14369629 104.59792969 158.95825195 104.58398438 C173.90375628 104.69539097 187.49714389 112.90005038 198.0859375 122.86328125 C200 125 200 125 200 127 C200.66 127 201.32 127 202 127 C215.74418154 143.32373467 218.71556542 165.06935471 217.875 185.625 C215.85580927 205.41805482 205.58924672 222.44440083 190.4609375 235.12890625 C178.47765812 243.93566554 163.66675566 249.59350939 148.66015625 247.32421875 C148.11230469 247.21722656 147.56445312 247.11023438 147 247 C146.98582031 247.680625 146.97164063 248.36125 146.95703125 249.0625 C145.92588256 270.01990035 135.33171807 287.0024229 124 304 C123.34 304 122.68 304 122 304 C122 304.66 122 305.32 122 306 C121.34 306 120.68 306 120 306 C119.7421875 306.58265625 119.484375 307.1653125 119.21875 307.765625 C117.90165983 310.1802903 116.44911616 311.81740177 114.5 313.75 C113.8915625 314.36359375 113.283125 314.9771875 112.65625 315.609375 C111 317 111 317 109 317 C109 317.66 109 318.32 109 319 C107.68 319.33 106.36 319.66 105 320 C105 320.66 105 321.32 105 322 C102.9303407 323.67989864 100.86840086 325.22623752 98.6875 326.75 C98.05102539 327.19883545 97.41455078 327.6476709 96.75878906 328.11010742 C91.38401428 331.8437861 85.84146424 335.04805395 80 338 C78.84177734 338.62455078 78.84177734 338.62455078 77.66015625 339.26171875 C48.92371765 354.41887522 15.19971999 360.03654343 -17 359 C-18.23105469 358.97035156 -19.46210938 358.94070313 -20.73046875 358.91015625 C-45.73053402 357.86530133 -71.02271782 352.10423917 -93 340 C-95.14168288 338.92915856 -97.28741091 337.8663614 -99.4375 336.8125 C-103.71536716 334.67642979 -107.88390208 332.43223968 -112 330 C-112 329.34 -112 328.68 -112 328 C-113.051875 327.62875 -113.051875 327.62875 -114.125 327.25 C-117.39514548 325.82819762 -120.141122 324.12753712 -123 322 C-123 321.34 -123 320.68 -123 320 C-123.61875 319.690625 -124.2375 319.38125 -124.875 319.0625 C-126.25 318.375 -127.625 317.6875 -129 317 C-129 316.34 -129 315.68 -129 315 C-129.55300781 314.77828125 -130.10601562 314.5565625 -130.67578125 314.328125 C-147.20491184 304.88290752 -158.03635576 280.20776951 -163.03125 262.9375 C-164.42035264 257.68977891 -164.88713277 252.41762705 -165 247 C-165.82177734 247.16048828 -165.82177734 247.16048828 -166.66015625 247.32421875 C-182.10428104 249.65967177 -196.38502284 243.40998477 -209 235 C-209 234.34 -209 233.68 -209 233 C-209.85851562 232.63648438 -209.85851562 232.63648438 -210.734375 232.265625 C-221.65752113 226.16372957 -229.41164851 210.56246591 -233 199 C-233.34417969 197.90429688 -233.68835938 196.80859375 -234.04296875 195.6796875 C-237.88662579 179.99857636 -236.66166011 159.67318292 -230 145 C-229.29617187 143.36611328 -229.29617187 143.36611328 -228.578125 141.69921875 C-225.597492 135.26521795 -221.99304598 129.09599538 -217 124 C-216.34 124 -215.68 124 -215 124 C-214.34 122.68 -213.68 121.36 -213 120 C-212.34 120 -211.68 120 -211 120 C-211 119.34 -211 118.68 -211 118 C-196.84591755 107.60383769 -182.41135077 103.7609757 -165 105 C-161.19968935 105.70360972 -157.62283548 106.65939128 -154 108 C-153.53851563 106.99582031 -153.07703125 105.99164063 -152.6015625 104.95703125 C-148.04240205 95.30101192 -142.7532017 87.23561183 -136 79 C-134.11681536 76.50989581 -132.24317159 74.01309273 -130.375 71.51171875 C-129.694375 70.76341797 -129.694375 70.76341797 -129 70 C-128.34 70 -127.68 70 -127 70 C-127 69.34 -127 68.68 -127 68 C-126.34 68 -125.68 68 -125 68 C-125 67.34 -125 66.68 -125 66 C-124.34 66 -123.68 66 -123 66 C-123 65.34 -123 64.68 -123 64 C-122.34 64 -121.68 64 -121 64 C-120.814375 63.443125 -120.62875 62.88625 -120.4375 62.3125 C-118.35889174 58.96865193 -115.39186398 56.95192172 -112 55 C-111.34 55 -110.68 55 -110 55 C-110 54.34 -110 53.68 -110 53 C-108.35 52.34 -106.7 51.68 -105 51 C-105 50.34 -105 49.68 -105 49 C-102.63563232 47.36074639 -100.29350254 45.88333507 -97.8125 44.4375 C-97.0601709 43.99712402 -96.3078418 43.55674805 -95.53271484 43.10302734 C-84.66278988 36.91157834 -72.97578925 31.7561431 -61 28.125 C-55.73679172 26.32070901 -52.00192014 22.86958352 -47.92626953 19.22387695 C-35.28736416 8 -35.28736416 8 -28 8 C-28 7.34 -28 6.68 -28 6 C-25.6062703 5.01540929 -23.2102493 4.03721297 -20.8125 3.0625 C-20.13896484 2.78470703 -19.46542969 2.50691406 -18.77148438 2.22070312 C-12.46679005 -0.33192921 -6.72600677 -2.02624472 0 0 Z M-13.3984375 14.75 C-25.94256163 20.01787365 -36.74446763 26.64107258 -46.90625 35.69921875 C-51.94552739 39.9377635 -56.95843971 41.2509177 -63.28125 42.87890625 C-69.58702968 44.77991336 -75.19714919 47.93421639 -81 51 C-83.06158162 51.98109879 -85.12404239 52.96035298 -87.1875 53.9375 C-93.30029253 56.99389626 -98.6036658 60.83229546 -104 65 C-104.886875 65.65871094 -105.77375 66.31742188 -106.6875 66.99609375 C-109.92626215 69.39840958 -109.92626215 69.39840958 -113 72 C-113 72.66 -113 73.32 -113 74 C-113.66 74 -114.32 74 -115 74 C-115 74.66 -115 75.32 -115 76 C-115.66 76 -116.32 76 -117 76 C-117 76.66 -117 77.32 -117 78 C-117.66 78 -118.32 78 -119 78 C-120.78498194 79.98026201 -122.4316817 81.95981492 -124.0625 84.0625 C-124.54984619 84.68721191 -125.03719238 85.31192383 -125.53930664 85.95556641 C-141.83642012 107.28003298 -150.59277047 130.17125717 -150.44604492 157.06079102 C-150.43751732 159.43268381 -150.46646394 161.80216968 -150.49804688 164.17382812 C-150.54471073 174.74326009 -148.91398313 183.84602103 -146 194 C-144.80793676 198.77250122 -145.50171731 201.18607775 -147.3125 205.8125 C-155.25935315 226.86512023 -154.98251774 249.86980598 -147 271 C-142.98862986 279.49049723 -138.10454535 287.8532152 -132 295 C-131.34 295 -130.68 295 -130 295 C-129.7628125 295.56203125 -129.525625 296.1240625 -129.28125 296.703125 C-127.71052303 299.51894042 -125.78528536 301.47955416 -123.5 303.75 C-122.7059375 304.54921875 -121.911875 305.3484375 -121.09375 306.171875 C-119.21216538 308.21923609 -119.21216538 308.21923609 -117 308 C-117 308.66 -117 309.32 -117 310 C-80.79055363 339.56551125 -34.76289906 349.52306506 11.0625 345.25 C34.14253862 342.78564314 55.63892768 336.15613573 76 325 C77.07894531 324.4121875 78.15789062 323.824375 79.26953125 323.21875 C86.14127397 319.33740623 92.99233665 315.14435739 99 310 C99 309.34 99 308.68 99 308 C99.56203125 307.7628125 100.1240625 307.525625 100.703125 307.28125 C103.51894042 305.71052303 105.47955416 303.78528536 107.75 301.5 C108.54921875 300.7059375 109.3484375 299.911875 110.171875 299.09375 C112.21923609 297.21216538 112.21923609 297.21216538 112 295 C112.66 295 113.32 295 114 295 C128.88879227 276.65444004 135.59521503 256.49682176 135 233 C134.98324219 232.12730469 134.96648437 231.25460937 134.94921875 230.35546875 C134.4573956 221.20755808 132.1147938 210.2295876 128 202 C127.71704146 197.0331746 128.38323922 193.25846941 129.9375 188.5625 C133.07527416 177.96446575 132.96788054 166.9716303 133 156 C133.00402832 155.1970752 133.00805664 154.39415039 133.01220703 153.56689453 C132.91335975 127.13978369 121.61451805 98.92935134 103 80 C102.34 80 101.68 80 101 80 C101 79.34 101 78.68 101 78 C100.34 78 99.68 78 99 78 C99 77.34 99 76.68 99 76 C98.34 76 97.68 76 97 76 C97 75.34 97 74.68 97 74 C96.34 74 95.68 74 95 74 C95 73.34 95 72.68 95 72 C94.34 72 93.68 72 93 72 C93 71.34 93 70.68 93 70 C70.31832035 50.51437521 42.35945266 39.82075069 13 36 C14 33 15 30 16 27 C6.67118537 28.62758042 -2.03965337 30.82430643 -10.953125 34.01171875 C-14 35 -14 35 -17 35 C-16.45318976 29.99399078 -14.75859667 26.02818933 -12.4375 21.625 C-12.10814453 20.98433594 -11.77878906 20.34367187 -11.43945312 19.68359375 C-10.63360518 18.11861368 -9.81781507 16.55875979 -9 15 C-11.01891792 13.70146801 -11.01891792 13.70146801 -13.3984375 14.75 Z " fill="#397711" transform="translate(259,55)"/>
<path d="M0 0 C0.90387451 -0.00628418 1.80774902 -0.01256836 2.73901367 -0.01904297 C7.9422627 0.08052687 11.58859087 0.68533031 16.125 3.5 C15.92003906 4.28503906 15.71507813 5.07007813 15.50390625 5.87890625 C15.23449219 6.92949219 14.96507813 7.98007813 14.6875 9.0625 C14.42066406 10.09503906 14.15382813 11.12757813 13.87890625 12.19140625 C12.50403916 18.22514939 11.97369837 24.09310471 11.9921875 30.26953125 C11.99123077 30.99057541 11.99027405 31.71161957 11.98928833 32.45451355 C11.98861191 33.97138558 11.9904284 35.48826059 11.99462891 37.00512695 C11.99996113 39.2958038 11.99467771 41.58628247 11.98828125 43.87695312 C11.86591202 55.2379212 11.86591202 55.2379212 13.125 66.5 C13.455 66.83 13.785 67.16 14.125 67.5 C14.52525025 69.05133491 14.87058706 70.61702031 15.1875 72.1875 C15.36410156 73.03699219 15.54070312 73.88648438 15.72265625 74.76171875 C16.56597668 80.50121022 16.01798218 84.2893425 13.75 89.625 C10.3172248 98.68830449 9.77248815 107.89398172 9.125 117.5 C-5.74665415 118.48294899 -18.19386848 116.45012144 -29.890625 106.40234375 C-43.07747591 93.76061857 -49.84171657 79.5512014 -50.34765625 61.25488281 C-50.43164032 51.06581589 -50.21638033 41.87251268 -45.875 32.5 C-45.45089844 31.55511719 -45.02679688 30.61023438 -44.58984375 29.63671875 C-39.72902233 19.84737644 -32.27451952 11.17677075 -22.875 5.5 C-22.07320312 5.01402344 -21.27140625 4.52804688 -20.4453125 4.02734375 C-13.69412756 0.59437577 -7.44374962 0.03980271 0 0 Z " fill="#B77E38" transform="translate(85.875,172.5)"/>
<path d="M0 0 C0.8883252 0.00161133 1.77665039 0.00322266 2.69189453 0.00488281 C17.32964984 0.27778558 27.22662481 7.19322108 37.3125 17.375 C50.8681914 33.5543736 51.53815573 52.13884643 50.3125 72.375 C48.80387135 85.16589993 40.57376295 97.54645261 30.69921875 105.47265625 C20.67190194 112.77184634 12.15745682 117.72623817 -0.625 117.5 C-1.30884766 117.49097656 -1.99269531 117.48195313 -2.69726562 117.47265625 C-4.36083287 117.44938958 -6.02421631 117.41353167 -7.6875 117.375 C-7.79819824 116.73997559 -7.90889648 116.10495117 -8.02294922 115.45068359 C-8.5314181 112.5496067 -9.04689574 109.64981687 -9.5625 106.75 C-9.73652344 105.75097656 -9.91054688 104.75195312 -10.08984375 103.72265625 C-10.97536576 98.77029241 -12.02199137 94.13359607 -13.6875 89.375 C-13.8125 86 -13.8125 86 -13.6875 83.375 C-14.3475 83.375 -15.0075 83.375 -15.6875 83.375 C-15.91991631 78.61046574 -15.04302707 74.92569801 -13.6875 70.375 C-7.82648099 49.86143346 -9.55874221 27.82823891 -14.6875 7.375 C-15.0323591 5.71067999 -15.37206477 4.04514655 -15.6875 2.375 C-10.39448302 0.21634707 -5.62896992 -0.01054707 0 0 Z " fill="#B67E38" transform="translate(413.6875,172.625)"/>
<path d="M0 0 C0 0.66 0 1.32 0 2 C0.66 2 1.32 2 2 2 C2 2.66 2 3.32 2 4 C2.66 4 3.32 4 4 4 C4.98929461 5.86967605 5.96600469 7.74601378 6.9375 9.625 C7.48277344 10.66914063 8.02804687 11.71328125 8.58984375 12.7890625 C12.30589922 21.25055168 12.33219772 32.35337411 9 41 C6.72550796 45.83831875 4.31809426 50.68946106 0 54 C-0.99 54 -1.98 54 -3 54 C-3 54.66 -3 55.32 -3 56 C-10.80727114 59.60335591 -18.33280383 60.26568032 -26.6875 58 C-35.16577416 52.88104202 -41.54902082 46.76397624 -44.25 37.0625 C-46.60774501 24.22588827 -45.72560296 13.37157869 -39 2 C-28.53715603 -11.83573446 -13.06412114 -7.92314754 0 0 Z " fill="#FCF2D6" transform="translate(323,218)"/>
<path d="M0 0 C7.57537944 5.89348111 11.0009797 13.11104988 13.0625 22.4375 C14.15686337 32.14306602 12.44430368 40.34890261 9.0625 49.4375 C8.4025 49.4375 7.7425 49.4375 7.0625 49.4375 C6.835625 49.994375 6.60875 50.55125 6.375 51.125 C3.070141 56.94784682 -2.62500887 61.33333629 -8.9375 63.4375 C-17.70521172 64.10714761 -26.90436263 63.23240896 -33.9375 57.4375 C-41.07377658 49.54739139 -43.55616022 39.19869242 -43.15625 28.734375 C-42.23696915 19.08192612 -38.68605827 10.34582959 -31.1875 4 C-22.2619222 -2.51646167 -10.0968472 -6.28322937 0 0 Z " fill="#FCF2D5" transform="translate(208.9375,213.5625)"/>
<path d="M0 0 C0.41650391 2.73046875 0.41650391 2.73046875 0.4765625 6.1875 C0.5075 7.44433594 0.5384375 8.70117188 0.5703125 9.99609375 C0.58925262 11.33071927 0.60747731 12.66535512 0.625 14 C-0.38303796 27.70420458 -0.38303796 27.70420458 3 40 C3.40025025 41.55133491 3.74558706 43.11702031 4.0625 44.6875 C4.23910156 45.53699219 4.41570312 46.38648438 4.59765625 47.26171875 C5.56262686 53.82914012 4.4235144 58.33804745 2 64.375 C1.57074219 65.47908203 1.57074219 65.47908203 1.1328125 66.60546875 C0.43085139 68.40716893 -0.28334405 70.20409432 -1 72 C-12.66695668 71.74736905 -22.51014666 68.41166981 -31.02734375 60.25 C-34.30314533 56.51364017 -36.79088282 52.43996338 -39 48 C-39.55880859 46.94039062 -39.55880859 46.94039062 -40.12890625 45.859375 C-43.06428178 36.2239719 -42.72598963 23.01408536 -38.3125 13.9375 C-35.97451032 10.11219764 -33.48584256 6.86017851 -30 4 C-29.175 3.278125 -28.35 2.55625 -27.5 1.8125 C-20.01407959 -3.6147923 -7.92396199 -5.28264133 0 0 Z " fill="#9E6324" transform="translate(97,200)"/>
<path d="M0 0 C3.02500995 3.02500995 4.84666718 5.8661283 6.6875 9.6875 C7.244375 10.821875 7.80125 11.95625 8.375 13.125 C9.80852825 17.01600525 10.43422415 20.58443121 10.6875 24.6875 C10.76355469 25.51121094 10.83960938 26.33492187 10.91796875 27.18359375 C11.44465219 36.99129343 8.34864394 45.98256806 2 53.5 C0.23828125 55.39453125 0.23828125 55.39453125 -1.3125 56.6875 C-1.9725 56.6875 -2.6325 56.6875 -3.3125 56.6875 C-3.3125 57.3475 -3.3125 58.0075 -3.3125 58.6875 C-5.3929054 59.83893825 -7.47651997 60.98374112 -9.5625 62.125 C-10.14902344 62.45048828 -10.73554688 62.77597656 -11.33984375 63.11132812 C-16.38136437 65.85867363 -19.86767049 66.82493197 -25.5625 66.75 C-26.90054687 66.73646484 -26.90054687 66.73646484 -28.265625 66.72265625 C-28.94109375 66.71105469 -29.6165625 66.69945312 -30.3125 66.6875 C-30.6425 67.6775 -30.9725 68.6675 -31.3125 69.6875 C-31.82154657 67.81493583 -32.31932455 65.93930659 -32.8125 64.0625 C-33.0909375 63.01835937 -33.369375 61.97421875 -33.65625 60.8984375 C-34.30368596 57.73062582 -34.4286292 54.91008533 -34.3125 51.6875 C-34.9725 51.6875 -35.6325 51.6875 -36.3125 51.6875 C-36.544925 46.92278742 -35.66348439 43.23920369 -34.3125 38.6875 C-31.25290265 27.5177738 -30.868961 16.58870775 -30.69116211 5.05981445 C-30.66803955 3.87863037 -30.64491699 2.69744629 -30.62109375 1.48046875 C-30.60876709 0.4133667 -30.59644043 -0.65373535 -30.58374023 -1.75317383 C-30.3125 -4.3125 -30.3125 -4.3125 -28.3125 -6.3125 C-18.38505681 -9.06449531 -8.04910206 -6.09719481 0 0 Z " fill="#9E6324" transform="translate(434.3125,204.3125)"/>
<path d="M0 0 C1.65322266 -0.00483398 1.65322266 -0.00483398 3.33984375 -0.00976562 C13.37534126 0.05570915 21.95757807 1.29632961 30.875 6 C31.555625 6.3501416 32.23625 6.7002832 32.9375 7.06103516 C38.51317813 9.99011418 44.15057805 13.11049009 48.875 17.3125 C48.875 17.9725 48.875 18.6325 48.875 19.3125 C49.535 19.3125 50.195 19.3125 50.875 19.3125 C55.61178511 24.76427154 58.85128593 30.14650153 59.875 37.3125 C59.38 38.3025 59.38 38.3025 58.875 39.3125 C56.0859375 39.66015625 56.0859375 39.66015625 52.875 39.3125 C51.0390625 36.93359375 51.0390625 36.93359375 49.5 33.75 C42.85943078 21.48938194 30.39353846 14.28367752 17.1875 10.3125 C0.21027632 6.70917089 -17.95364913 8.64718948 -32.8125 17.5625 C-37.2521484 20.46147721 -40.54182417 23.62953261 -43.78515625 27.80859375 C-44.22730469 28.30488281 -44.66945312 28.80117188 -45.125 29.3125 C-45.785 29.3125 -46.445 29.3125 -47.125 29.3125 C-47.228125 29.84875 -47.33125 30.385 -47.4375 30.9375 C-48.32665543 34.00912786 -49.47849483 36.56832472 -51.125 39.3125 C-53.125 40.375 -53.125 40.375 -55.125 40.3125 C-56.9375 39.25 -56.9375 39.25 -58.125 37.3125 C-57.26865183 27.45068395 -50.35514693 19.62909095 -43.0546875 13.44921875 C-39.73093706 11.02509676 -36.35020346 8.92138899 -32.75 6.9375 C-32.17443359 6.61563721 -31.59886719 6.29377441 -31.00585938 5.9621582 C-21.17498623 0.86192064 -10.91666785 -0.16072833 0 0 Z " fill="#68401C" transform="translate(249.125,315.6875)"/>
<path d="M0 0 C5.43318591 3.48697006 6.73329509 8.19207278 8.70703125 14.11328125 C9.51025203 21.94468384 7.5686537 27.5894959 3.95703125 34.42578125 C1.13029173 37.80216456 -1.09753808 38.83331935 -5.29296875 40.11328125 C-9.81673212 40.50326085 -13.34844257 40.43954028 -17.29296875 38.11328125 C-21.94939095 33.619023 -24.95311755 29.42090286 -25.62890625 22.84375 C-25.73214371 13.48011215 -24.705283 8.31305264 -18.85546875 1.11328125 C-13.75775288 -2.71000566 -5.69648279 -2.2028988 0 0 Z " fill="#5A361C" transform="translate(207.29296875,225.88671875)"/>
<path d="M0 0 C4.93398472 2.87738922 8.56695017 6.25798344 10.421875 11.84765625 C10.99074612 14.90467393 11.04973455 17.86028696 11.08984375 20.96875 C11.115625 22.16242188 11.14140625 23.35609375 11.16796875 24.5859375 C10.57186561 30.95856392 7.619645 34.9967775 2.83984375 39.09375 C-1.17623996 41.31316468 -4.61637401 41.48545537 -9.16015625 41.09375 C-14.50793229 39.5262984 -17.1445637 37.46073522 -20.21484375 33.0078125 C-23.43602973 26.48557643 -22.80539888 17.82181855 -21.59765625 10.84375 C-17.13635761 2.30909172 -10.03219611 -4.2088056 0 0 Z " fill="#583419" transform="translate(307.16015625,224.90625)"/>
<path d="M0 0 C4.36203948 2.67411986 7.54688177 6.07032266 10.375 10.3125 C10.5 12.75 10.5 12.75 9.375 15.3125 C0.83778048 21.36315073 -9.11700885 22.2955152 -19.16796875 20.77734375 C-31.54732376 18.39017624 -31.54732376 18.39017624 -35.625 14.3125 C-36 11.5625 -36 11.5625 -35.625 9.3125 C-34.965 9.3125 -34.305 9.3125 -33.625 9.3125 C-33.625 8.6525 -33.625 7.9925 -33.625 7.3125 C-32.965 7.3125 -32.305 7.3125 -31.625 7.3125 C-31.38136719 6.70921875 -31.13773438 6.1059375 -30.88671875 5.484375 C-25.3868449 -3.98290012 -8.82648404 -4.0789055 0 0 Z " fill="#B7803B" transform="translate(262.625,272.6875)"/>
<path d="M0 0 C0.66 0 1.32 0 2 0 C2.02505615 0.82612793 2.0501123 1.65225586 2.07592773 2.50341797 C2.17198367 5.61597873 2.27115022 8.72842171 2.37231445 11.84082031 C2.43609984 13.8313065 2.49640927 15.8219031 2.55664062 17.8125 C1.89254905 29.52844501 1.89254905 29.52844501 5 40 C5.40025025 41.55133491 5.74558706 43.11702031 6.0625 44.6875 C6.23910156 45.53699219 6.41570312 46.38648438 6.59765625 47.26171875 C7.42064533 52.86283861 6.89637721 57.04143909 5 62.375 C4.62875 63.43460937 4.2575 64.49421875 3.875 65.5859375 C3.58625 66.38257813 3.2975 67.17921875 3 68 C2.67 67.01 2.34 66.02 2 65 C1.2575 64.731875 0.515 64.46375 -0.25 64.1875 C-5.02816369 62.12420204 -8.074903 57.75712858 -10 53 C-10.66128234 47.47906142 -10.68464691 42.56099495 -8.4375 37.4375 C-5.42203598 34.42203598 -3.00645113 33.38684847 1 32 C0.67 31.01 0.34 30.02 0 29 C-0.08358958 26.78910055 -0.10731764 24.57573922 -0.09765625 22.36328125 C-0.09443359 21.06455078 -0.09121094 19.76582031 -0.08789062 18.42773438 C-0.07953531 17.05598892 -0.07107037 15.68424413 -0.0625 14.3125 C-0.05748335 12.92903805 -0.05292073 11.54557437 -0.04882812 10.16210938 C-0.03702529 6.77469605 -0.02056019 3.38736967 0 0 Z " fill="#85571E" transform="translate(95,200)"/>
<path d="M0 0 C6.75 1.875 6.75 1.875 9 3 C9 3.66 9 4.32 9 5 C9.66 5 10.32 5 11 5 C14.24917112 9.87375668 13.46295053 15.29729121 13 21 C11.65430806 24.71667297 10.14015819 27.54248489 7 30 C6.34 30 5.68 30 5 30 C5 30.66 5 31.32 5 32 C4.01 32.495 4.01 32.495 3 33 C2.53348793 35.12576782 2.53348793 35.12576782 2.375 37.5625 C2.26285156 38.80193359 2.26285156 38.80193359 2.1484375 40.06640625 C2.09945313 40.70449219 2.05046875 41.34257812 2 42 C1.67 42 1.34 42 1 42 C0.49095343 40.12743583 -0.00682455 38.25180659 -0.5 36.375 C-0.7784375 35.33085937 -1.056875 34.28671875 -1.34375 33.2109375 C-1.99118596 30.04312582 -2.1161292 27.22258533 -2 24 C-2.66 24 -3.32 24 -4 24 C-4.23300308 19.22343694 -3.34724497 15.56566353 -2 11 C-1.26883918 7.34419589 -0.62474395 3.67535537 0 0 Z " fill="#86541D" transform="translate(402,232)"/>
<path d="M0 0 C4.875 0.875 4.875 0.875 6 2 C6.45471712 5.80209252 6.26839851 7.57313526 4.20703125 10.8515625 C3.41683594 11.76679688 2.62664062 12.68203125 1.8125 13.625 C1.03519531 14.54539063 0.25789063 15.46578125 -0.54296875 16.4140625 C-6.76555582 22.9631128 -15.54053238 28.73122881 -24.81640625 29.1171875 C-27.54766891 29.12416391 -30.27026875 29.08742911 -33 29 C-33.33 27.35 -33.66 25.7 -34 24 C-31.42449309 21.53647165 -29.2916599 20.77407701 -25.875 20.1875 C-15.44048144 18.08003566 -6.80404603 10.70606904 -1 2 C-0.67 1.34 -0.34 0.68 0 0 Z " fill="#6A421D" transform="translate(200,177)"/>
<path d="M0 0 C2.6875 0.375 2.6875 0.375 5 2.75 C6.6875 5.375 6.6875 5.375 6.6875 7.375 C7.3475 7.375 8.0075 7.375 8.6875 7.375 C10.35416667 9.04166667 12.02083333 10.70833333 13.6875 12.375 C20.29484639 18.24819679 28.34332442 20.02100089 36.6875 22.375 C36.875 24.75 36.875 24.75 36.6875 27.375 C32.95498346 29.86334436 31.48401531 29.51514319 27.21484375 28.90625 C14.78853741 26.29422888 3.70005868 17.89383802 -3.3125 7.375 C-3.5 4.25 -3.5 4.25 -3.3125 1.375 C-2.3125 0.375 -2.3125 0.375 0 0 Z " fill="#69401C" transform="translate(297.3125,177.625)"/>
<path d="M0 0 C0.33 0 0.66 0 1 0 C0.48594831 4.96916636 -0.23384882 9.29026351 -2 14 C0.8509288 13.2981424 0.8509288 13.2981424 2 12 C2.36442233 10.33985384 2.69972883 8.67293936 3 7 C3.66 7 4.32 7 5 7 C4.97679687 8.22976562 4.95359375 9.45953125 4.9296875 10.7265625 C4.91091961 12.3593689 4.89272051 13.9921819 4.875 15.625 C4.85824219 16.43324219 4.84148437 17.24148437 4.82421875 18.07421875 C4.78568305 22.81410993 5.19237487 26.54119135 7 31 C7.33 31.99 7.66 32.98 8 34 C6.02 34.495 6.02 34.495 4 35 C4 36.32 4 37.64 4 39 C4.99 39 5.98 39 7 39 C7.66 40.98 8.32 42.96 9 45 C2.51490084 40.13617563 -1.15785088 34.7889035 -2.68359375 26.7890625 C-3.7215957 17.63926752 -4.19950241 8.39900482 0 0 Z " fill="#FAEECE" transform="translate(281,226)"/>
<path d="M0 0 C2.89589652 -0.02706445 5.79153795 -0.04687029 8.6875 -0.0625 C9.91243164 -0.07506836 9.91243164 -0.07506836 11.16210938 -0.08789062 C21.76637505 -0.13082287 21.76637505 -0.13082287 24.5 2.375 C24.995 2.91125 25.49 3.4475 26 4 C26.886875 4.515625 27.77375 5.03125 28.6875 5.5625 C29.450625 6.036875 30.21375 6.51125 31 7 C31 7.66 31 8.32 31 9 C31.5775 9.020625 32.155 9.04125 32.75 9.0625 C36.94974997 10.81239582 38.2131449 15.17851416 39.91796875 19.125 C44.16820897 30.93787423 43.14672608 44.66136654 38 56 C36.31477323 58.78870403 34.65638951 61.08413851 32 63 C29.125 63.4375 29.125 63.4375 27 63 C27.721875 62.484375 28.44375 61.96875 29.1875 61.4375 C35.56389351 55.91129229 39.06561977 49.40942203 40 41 C40.48520152 31.41359419 39.40871785 24.0991838 34.8046875 15.6640625 C34 14 34 14 34 12 C33.34 12 32.68 12 32 12 C32 11.34 32 10.68 32 10 C31.34 10 30.68 10 30 10 C30 9.34 30 8.68 30 8 C29.29875 7.731875 28.5975 7.46375 27.875 7.1875 C25 6 25 6 22.0625 4.4375 C16.85166061 1.9915958 11.81862327 1.8794018 6.125 1.9375 C4.97257812 1.94652344 3.82015625 1.95554688 2.6328125 1.96484375 C1.76398438 1.97644531 0.89515625 1.98804688 0 2 C0 1.34 0 0.68 0 0 Z " fill="#F0CD8F" transform="translate(293,210)"/>
<path d="M0 0 C0.66 0 1.32 0 2 0 C2.45098839 6.31383742 0.72629872 10.0011278 -3.375 14.75 C-7.05838405 17.90718633 -9.55821497 18.86650139 -14.375 19.3125 C-18.55430288 18.95221527 -21.33767104 18.04245269 -25 16 C-26.9375 13.3125 -26.9375 13.3125 -28 11 C-24.23312136 11 -23.08809695 11.23537317 -20 13 C-20 14.32 -20 15.64 -20 17 C-18.56138706 16.91253716 -17.12402492 16.80434652 -15.6875 16.6875 C-14.88699219 16.62949219 -14.08648437 16.57148438 -13.26171875 16.51171875 C-10.57893933 15.90473411 -9.76269631 15.05899 -8 13 C-7.13375 12.236875 -6.2675 11.47375 -5.375 10.6875 C-2.71380672 7.67614971 -2.27526169 5.9454176 -2 2 C-1.34 2 -0.68 2 0 2 C0 1.34 0 0.68 0 0 Z " fill="#5C4129" transform="translate(316,247)"/>
<path d="M0 0 C2.77830296 0.58490589 4.26925162 1.62822366 6.375 3.5 C6.045 4.49 5.715 5.48 5.375 6.5 C2.79296875 7.66796875 2.79296875 7.66796875 -0.4375 8.6875 C-1.49582031 9.03167969 -2.55414063 9.37585938 -3.64453125 9.73046875 C-6.625 10.5 -6.625 10.5 -10.625 10.5 C-9.08660489 5.11561711 -5.66570266 1.07918146 0 0 Z " fill="#603715" transform="translate(263.625,283.5)"/>
<path d="M0 0 C0.33 0 0.66 0 1 0 C1.55240483 19.46802087 0.54382647 37.29582872 -5 56 C-4.34 56 -3.68 56 -3 56 C-0.72321429 64.03571429 -0.72321429 64.03571429 -2 68 C-5.08706173 61.39864924 -6.58013543 56.30970642 -6 49 C-5.505 48.505 -5.505 48.505 -5 48 C-1.21614871 32.24256467 -0.25085067 16.14094303 0 0 Z " fill="#506913" transform="translate(403,200)"/>
<path d="M0 0 C1.74627478 2.61941217 2.38722388 4.03824877 3 7 C4.65 7.33 6.3 7.66 8 8 C8 8.99 8 9.98 8 11 C11.3 11.66 14.6 12.32 18 13 C18.33 13.99 18.66 14.98 19 16 C21.50447516 17.21869929 21.50447516 17.21869929 24 18 C24 18.66 24 19.32 24 20 C12.89613209 17.2450101 3.71704574 10.20789312 -5 3 C-4.67 2.34 -4.34 1.68 -4 1 C-1.9375 0.375 -1.9375 0.375 0 0 Z " fill="#C7CD69" transform="translate(165,357)"/>
<path d="M0 0 C2.23828125 1.4609375 2.23828125 1.4609375 4.3125 3.375 C5.00988281 4.00148438 5.70726562 4.62796875 6.42578125 5.2734375 C8 7 8 7 8 9 C2.01488629 8.65697965 -2.75117306 8.17692157 -8 5 C-8 4.01 -8 3.02 -8 2 C-4.73801239 -0.1746584 -3.78207215 -0.4920699 0 0 Z " fill="#5F3819" transform="translate(238,284)"/>
<path d="M0 0 C2.88692223 4.33038335 3.1839339 6.53077809 3.25 11.75 C3.28867188 13.56757813 3.28867188 13.56757813 3.328125 15.421875 C2.96820073 19.34676348 1.85572653 21.55879838 0 25 C-1.85048201 30.44145233 -2.56620795 35.75339394 -3.125 41.4375 C-3.21136719 42.26443359 -3.29773438 43.09136719 -3.38671875 43.94335938 C-3.59671616 45.96166778 -3.79914451 47.98076133 -4 50 C-4.33 50 -4.66 50 -5 50 C-5.24184172 41.30713386 -5.18795779 33.49007858 -1.94140625 25.34375 C1.4816549 16.53144034 1.07444781 9.20287903 0 0 Z " fill="#4E6911" transform="translate(100,240)"/>
<path d="M0 0 C-0.77085938 0.25394531 -1.54171875 0.50789062 -2.3359375 0.76953125 C-3.33882812 1.11371094 -4.34171875 1.45789063 -5.375 1.8125 C-6.87160156 2.31716797 -6.87160156 2.31716797 -8.3984375 2.83203125 C-11.2845709 3.8506575 -11.2845709 3.8506575 -13 7 C-15.625 7.1875 -15.625 7.1875 -18 7 C-18 7.66 -18 8.32 -18 9 C-19.4609375 10.5078125 -19.4609375 10.5078125 -21.375 12.125 C-22.31472656 12.93324219 -22.31472656 12.93324219 -23.2734375 13.7578125 C-25 15 -25 15 -27 15 C-27.33 15.99 -27.66 16.98 -28 18 C-28.66 18 -29.32 18 -30 18 C-30.99 20.475 -30.99 20.475 -32 23 C-32.66 22.67 -33.32 22.34 -34 22 C-27.94217564 12.96251407 -20.26539814 5.02651392 -10 1 C-8.39125 0.3503125 -8.39125 0.3503125 -6.75 -0.3125 C-3.88729441 -1.0281764 -2.74366406 -0.81489168 0 0 Z " fill="#A2883C" transform="translate(79,174)"/>
<path d="M0 0 C0.99 0.495 0.99 0.495 2 1 C3.08179761 4.776086 3.10543987 8.40497142 3.0625 12.3125 C3.05347656 13.38113281 3.04445313 14.44976562 3.03515625 15.55078125 C3.02355469 16.35902344 3.01195312 17.16726563 3 18 C10.74165827 17.75384234 17.37966411 16.91574903 24.5625 13.9375 C27.03316042 12.98724599 29.39550995 12.44648401 32 12 C27.87670527 16.7967662 21.12608444 18.64125326 14.97265625 19.17626953 C10.64123466 19.33658053 6.3291167 19.21290738 2 19 C1.66089006 16.95928485 1.32897296 14.91737379 1 12.875 C0.814375 11.73804688 0.62875 10.60109375 0.4375 9.4296875 C0.03043951 6.23862398 -0.07809902 3.21182209 0 0 Z " fill="#A4873D" transform="translate(404,271)"/>
<path d="M0 0 C8.24713074 3.50824493 13.20216304 12.27651427 17 20 C16.34 20.33 15.68 20.66 15 21 C14.566875 20.030625 14.13375 19.06125 13.6875 18.0625 C12.2985139 14.72268235 12.2985139 14.72268235 9 14 C7.96708324 12.01679982 6.9662501 10.01652194 6 8 C5.34 7.67 4.68 7.34 4 7 C3.67 6.67 3.34 6.34 3 6 C2.01 6.66 1.02 7.32 0 8 C-1.43088528 5.13822943 -0.59991697 3.06624227 0 0 Z " fill="#A8853C" transform="translate(442,183)"/>
<path d="M0 0 C0.99 0 1.98 0 3 0 C6.15875997 13.60849423 9.30214538 29.04376292 6 43 C5.01 43.495 5.01 43.495 4 44 C4.02094727 43.18958252 4.04189453 42.37916504 4.06347656 41.54418945 C4.13258507 38.47082922 4.18224459 35.39787113 4.21972656 32.32397461 C4.24919327 30.36610224 4.30007758 28.40858901 4.3515625 26.45117188 C4.43215983 18.53248445 3.5068717 11.98049051 0.86621094 4.50073242 C0 2 0 2 0 0 Z " fill="#4B690E" transform="translate(459,203)"/>
<path d="M0 0 C0.99 0.66 1.98 1.32 3 2 C1.48755512 5.02488976 -1.21479473 6.14319649 -4 8 C-4.9590625 9.0209375 -4.9590625 9.0209375 -5.9375 10.0625 C-8.71179539 12.66865627 -11.45657908 13.6371458 -15 15 C-15 14.34 -15 13.68 -15 13 C-14.34 13 -13.68 13 -13 13 C-13 12.34 -13 11.68 -13 11 C-12.34 11 -11.68 11 -11 11 C-10.7421875 10.40574219 -10.484375 9.81148437 -10.21875 9.19921875 C-8.90163023 6.822493 -7.58656066 5.53214427 -5.5 3.8125 C-4.8915625 3.30332031 -4.283125 2.79414063 -3.65625 2.26953125 C-2 1 -2 1 0 0 Z " fill="#CEC469" transform="translate(164,168)"/>
<path d="M0 0 C2.96848028 0.725349 5.24357163 1.64991264 8 3 C8.2954439 8.02254631 7.98514628 10.89542386 5 15 C3.72648692 12.45297384 4.19808075 11.5717055 4.9375 8.875 C5.13214844 8.15054688 5.32679687 7.42609375 5.52734375 6.6796875 C5.68332031 6.12539062 5.83929688 5.57109375 6 5 C1.19554605 2.55301103 -3.53791706 2.56379939 -8.8125 2.375 C-9.69615234 2.33632812 -10.57980469 2.29765625 -11.49023438 2.2578125 C-13.65982972 2.16399216 -15.82988547 2.08092674 -18 2 C-12.77385247 -1.48409835 -6.09899931 -0.43654663 0 0 Z " fill="#526D11" transform="translate(95,171)"/>
<path d="M0 0 C0.33 0 0.66 0 1 0 C0.97643433 1.27677612 0.97643433 1.27677612 0.95239258 2.5793457 C0.90072849 5.79058507 0.86339283 9.00160997 0.83520508 12.21313477 C0.82028058 13.59308926 0.79993339 14.97299772 0.77368164 16.3527832 C0.62665775 24.2891905 0.83892993 31.23789861 3.5456543 38.75463867 C4.10883236 41.53784587 3.49802219 42.65068331 2 45 C-0.81266949 35.88745992 -1.40493175 27.49925269 -1.25 18 C-1.24484375 16.70449219 -1.2396875 15.40898437 -1.234375 14.07421875 C-1.1488999 3.78515317 -1.1488999 3.78515317 0 0 Z " fill="#BFBE61" transform="translate(135,211)"/>
<path d="M0 0 C-0.61746094 0.3403125 -1.23492187 0.680625 -1.87109375 1.03125 C-10.36210032 5.89063884 -18.05238288 11.39544849 -23 20 C-24 17 -24 17 -22.3125 13.4375 C-20.53392423 10.50591649 -19.18819046 9.3369831 -16 8 C-15.484375 7.29875 -14.96875 6.5975 -14.4375 5.875 C-13.963125 5.25625 -13.48875 4.6375 -13 4 C-12.01 4 -11.02 4 -10 4 C-10 3.34 -10 2.68 -10 2 C-3.375 -1.125 -3.375 -1.125 0 0 Z " fill="#EEC78B" transform="translate(218,323)"/>
<path d="M0 0 C1.32 0 2.64 0 4 0 C4 0.66 4 1.32 4 2 C4.556875 2.12375 5.11375 2.2475 5.6875 2.375 C8 3 8 3 10.3125 4 C13.51910877 5.19315675 16.61124193 5.60132258 20 6 C20 6.66 20 7.32 20 8 C24.62 8 29.24 8 34 8 C34 5.69 34 3.38 34 1 C34.33 1 34.66 1 35 1 C35 3.64 35 6.28 35 9 C23.0111803 9.79240669 13.73484308 8.79005316 3 3 C1.0859375 1.30078125 1.0859375 1.30078125 0 0 Z " fill="#9B8537" transform="translate(60,281)"/>
<path d="M0 0 C0 1.65 0 3.3 0 5 C-0.99 5 -1.98 5 -3 5 C-3.33 5.99 -3.66 6.98 -4 8 C-5.31200404 9.35432675 -6.64631404 10.68733482 -8 12 C-8.99 13.485 -8.99 13.485 -10 15 C-10 14.34 -10 13.68 -10 13 C-10.66 13 -11.32 13 -12 13 C-12 13.66 -12 14.32 -12 15 C-12.66 14.67 -13.32 14.34 -14 14 C-3.69063181 0 -3.69063181 0 0 0 Z " fill="#C3C967" transform="translate(276,166)"/>
<path d="M0 0 C0.72058594 -0.01998047 1.44117188 -0.03996094 2.18359375 -0.06054688 C7.70166947 -0.05555766 10.9151285 1.39097354 15.5 4.4375 C15.5 5.4275 15.5 6.4175 15.5 7.4375 C15.06171875 7.0765625 14.6234375 6.715625 14.171875 6.34375 C8.11749502 1.91371587 2.8462776 1.53007543 -4.5 2.4375 C-9.14277363 3.52748252 -13.26864987 5.26515507 -17.5 7.4375 C-16.9375 5.625 -16.9375 5.625 -15.5 3.4375 C-10.21405713 0.65613542 -5.92397869 -0.05828602 0 0 Z " fill="#F0CD8F" transform="translate(196.5,209.5625)"/>
<path d="M0 0 C0.33 0 0.66 0 1 0 C2.33257403 18.82004556 2.33257403 18.82004556 1 28 C-1.5715524 24.14775352 -1.26059409 20.13854535 -1.1875 15.6875 C-1.18685547 14.95337891 -1.18621094 14.21925781 -1.18554688 13.46289062 C-1.14898033 8.88394634 -0.74594843 4.51746367 0 0 Z " fill="#2A8505" transform="translate(107,200)"/>
<path d="M0 0 C1.7074998 1.28062485 3.37373596 2.61767557 5 4 C5 6.46278801 4.14547137 7.85224119 3 10 C2.01 9.34 1.02 8.68 0 8 C-0.66 7.67 -1.32 7.34 -2 7 C-2.33 7.33 -2.66 7.66 -3 8 C-3.33 8 -3.66 8 -4 8 C-4 6.35 -4 4.7 -4 3 C-3.34 3 -2.68 3 -2 3 C-1.67 2.34 -1.34 1.68 -1 1 C-0.67 0.67 -0.34 0.34 0 0 Z " fill="#6C4421" transform="translate(309,189)"/>
<path d="M0 0 C0.33 0 0.66 0 1 0 C1 7.26 1 14.52 1 22 C1.99 22 2.98 22 4 22 C3.67 25.63 3.34 29.26 3 33 C2.67 33 2.34 33 2 33 C-0.1976252 25.93991275 -0.2345459 19.35642856 -0.125 12 C-0.11597656 10.84371094 -0.10695312 9.68742188 -0.09765625 8.49609375 C-0.07424922 5.66384353 -0.04145995 2.83203381 0 0 Z " fill="#9F8438" transform="translate(36,218)"/>
<path d="M0 0 C9.17286652 0.19256018 9.17286652 0.19256018 12.625 3.5625 C13.07875 4.366875 13.5325 5.17125 14 6 C8.34605369 6.34615998 4.96993194 5.43425238 0 3 C0 2.01 0 1.02 0 0 Z " fill="#6E4624" transform="translate(170,198)"/>
<path d="M0 0 C0 0.99 0 1.98 0 3 C-1.3303125 2.87625 -1.3303125 2.87625 -2.6875 2.75 C-6.71695901 3.05411011 -7.97398815 4.46469277 -11 7 C-11.99 6.67 -12.98 6.34 -14 6 C-13.08486681 3.71216703 -12.34515354 2.26550272 -10.375 0.75 C-6.86146845 -0.35953628 -3.67700382 -0.12256679 0 0 Z " fill="#5D4734" transform="translate(305,224)"/>
<path d="M0 0 C1.47146484 0.63228516 1.47146484 0.63228516 2.97265625 1.27734375 C12.49599344 5.20025535 20.67255654 6.97032344 31 7 C31 7.33 31 7.66 31 8 C22.585 8.495 22.585 8.495 14 9 C13.67 8.34 13.34 7.68 13 7 C10.42562419 6.08719862 10.42562419 6.08719862 7.4375 5.375 C6.42558594 5.11460937 5.41367188 4.85421875 4.37109375 4.5859375 C3.58863281 4.39257812 2.80617188 4.19921875 2 4 C2 3.34 2 2.68 2 2 C1.34 2 0.68 2 0 2 C0 1.34 0 0.68 0 0 Z " fill="#4C6B0F" transform="translate(62,283)"/>
<path d="M0 0 C0.99 0.99 1.98 1.98 3 3 C-3.6 2.67 -10.2 2.34 -17 2 C-17 1.34 -17 0.68 -17 0 C-11.31970727 -1.11136162 -5.67102237 -1.38801247 0 0 Z " fill="#C6D26A" transform="translate(310,157)"/>
<path d="M0 0 C0.99 0.33 1.98 0.66 3 1 C2.01 7.6 1.02 14.2 0 21 C-2 19 -2 19 -2.01171875 15.6640625 C-1.91454043 14.31687815 -1.80599372 12.97047707 -1.6875 11.625 C-1.63916016 10.95210938 -1.59082031 10.27921875 -1.54101562 9.5859375 C-1.2857359 6.30284629 -0.94799787 3.15999291 0 0 Z " fill="#D0C96F" transform="translate(137,296)"/>
<path d="M0 0 C-0.47986031 5.56890517 -1.29915181 10.67067568 -3 16 C-3.66 15.67 -4.32 15.34 -5 15 C-4.67793494 12.33146093 -4.34457004 9.6656321 -4 7 C-3.855625 5.865625 -3.71125 4.73125 -3.5625 3.5625 C-3.376875 2.716875 -3.19125 1.87125 -3 1 C-1 0 -1 0 0 0 Z " fill="#C4BD61" transform="translate(366,240)"/>
<path d="M0 0 C0.99 0.33 1.98 0.66 3 1 C2.20335937 1.63615234 2.20335937 1.63615234 1.390625 2.28515625 C-3.28170538 6.16455465 -6.32694461 9.54251191 -9 15 C-10 12 -10 12 -8.8125 8.375 C-7 5 -7 5 -4.875 4.25 C-4.25625 4.1675 -3.6375 4.085 -3 4 C-2.67 3.01 -2.34 2.02 -2 1 C-1.34 0.67 -0.68 0.34 0 0 Z " fill="#F2CF8D" transform="translate(290,212)"/>
<path d="M0 0 C2.64 0 5.28 0 8 0 C8.12375 0.639375 8.2475 1.27875 8.375 1.9375 C8.58125 2.618125 8.7875 3.29875 9 4 C9.66 4.33 10.32 4.66 11 5 C7.625 5.625 7.625 5.625 4 6 C3.34 5.34 2.68 4.68 2 4 C2 3.01 2 2.02 2 1 C1.34 0.67 0.68 0.34 0 0 Z " fill="#532C15" transform="translate(195,225)"/>
<path d="M0 0 C0.99 0.33 1.98 0.66 3 1 C3 1.66 3 2.32 3 3 C2.34 3 1.68 3 1 3 C0.87625 3.556875 0.7525 4.11375 0.625 4.6875 C-0.07760904 7.28715346 -0.76657238 9.598062 -2 12 C-4.125 12.8125 -4.125 12.8125 -6 13 C-6 12.01 -6 11.02 -6 10 C-5.3503125 9.38125 -5.3503125 9.38125 -4.6875 8.75 C-2.20676561 6.17738656 -1.31267848 3.31295046 0 0 Z " fill="#EEC687" transform="translate(202,345)"/>
<path d="M0 0 C4.28359673 1.8855148 6.15103592 4.35965701 9 8 C8.01 8.66 7.02 9.32 6 10 C5.01 9.67 4.02 9.34 3 9 C2.05078125 6.93359375 2.05078125 6.93359375 1.3125 4.4375 C1.06113281 3.61121094 0.80976563 2.78492188 0.55078125 1.93359375 C0.36902344 1.29550781 0.18726563 0.65742188 0 0 Z " fill="#ECC482" transform="translate(296,189)"/>
<path d="M0 0 C0.33 0 0.66 0 1 0 C1 3.3 1 6.6 1 10 C0.01 10.495 0.01 10.495 -1 11 C-1.495 11.99 -1.99 12.98 -2.5 14 C-4 17 -4 17 -6 18 C-5.67 16.35 -5.34 14.7 -5 13 C-4.34 13 -3.68 13 -3 13 C-2.87625 12.34 -2.7525 11.68 -2.625 11 C-1.85479462 7.30301417 -0.93049337 3.65994058 0 0 Z " fill="#F3CC89" transform="translate(221,250)"/>
<path d="M0 0 C2 3 2 3 2.5 5.125 C2.665 5.74375 2.83 6.3625 3 7 C3.66 7.33 4.32 7.66 5 8 C1.60406522 8 0.93380119 7.47834052 -1.6875 5.5 C-2.31011719 5.0359375 -2.93273437 4.571875 -3.57421875 4.09375 C-4.04472656 3.7328125 -4.51523438 3.371875 -5 3 C-4.67 2.34 -4.34 1.68 -4 1 C-1.9375 0.375 -1.9375 0.375 0 0 Z " fill="#D4C971" transform="translate(165,357)"/>
<path d="M0 0 C1.32 0 2.64 0 4 0 C3.67 1.32 3.34 2.64 3 4 C3.66 4.33 4.32 4.66 5 5 C4.67 5.66 4.34 6.32 4 7 C2.35 7 0.7 7 -1 7 C-1.04254356 5.00045254 -1.04080783 2.99958364 -1 1 C-0.67 0.67 -0.34 0.34 0 0 Z " fill="#68411B" transform="translate(295,178)"/>
<path d="M0 0 C1.4540625 0.0309375 1.4540625 0.0309375 2.9375 0.0625 C2.9375 1.7125 2.9375 3.3625 2.9375 5.0625 C4.2575 5.7225 5.5775 6.3825 6.9375 7.0625 C5.25 7.875 5.25 7.875 2.9375 8.0625 C0.3125 5.75 0.3125 5.75 -2.0625 3.0625 C-2.7225 2.4025 -3.3825 1.7425 -4.0625 1.0625 C-3.0625 0.0625 -3.0625 0.0625 0 0 Z " fill="#F1EBD5" transform="translate(209.0625,223.9375)"/>
<path d="M0 0 C0.86504202 2.42211765 1.19407611 3.54985124 0.15625 5.95703125 C-0.2253125 6.63121094 -0.606875 7.30539063 -1 8 C-1.78835387 10.34535277 -2.50530937 12.70513058 -3.21875 15.07421875 C-4 17 -4 17 -6 18 C-5.55397709 11.30965634 -2.92654458 5.97187878 0 0 Z " fill="#9F8539" transform="translate(44,197)"/>
<path d="M0 0 C3.7602985 0.58107632 6.53035032 1.65199496 9.8125 3.5625 C10.60269531 4.01753906 11.39289063 4.47257813 12.20703125 4.94140625 C12.79871094 5.29074219 13.39039063 5.64007813 14 6 C10.83234786 7.01719864 10.22665775 7.09916277 7 5.6875 C6.01 5.130625 5.02 4.57375 4 4 C3.21625 3.608125 2.4325 3.21625 1.625 2.8125 C1.08875 2.544375 0.5525 2.27625 0 2 C0 1.34 0 0.68 0 0 Z " fill="#BDBB61" transform="translate(208,158)"/>
<path d="M0 0 C0.763125 0.20625 1.52625 0.4125 2.3125 0.625 C2.3125 1.285 2.3125 1.945 2.3125 2.625 C0.7346875 3.058125 0.7346875 3.058125 -0.875 3.5 C-3.91568711 4.39725193 -6.77462344 5.38923419 -9.6875 6.625 C-4.18584071 -0.5840708 -4.18584071 -0.5840708 0 0 Z " fill="#58402B" transform="translate(194.6875,225.375)"/>
<path d="M0 0 C-0.33 2.97 -0.66 5.94 -1 9 C-1.99 9 -2.98 9 -4 9 C-4.33 6.69 -4.66 4.38 -5 2 C-2 0 -2 0 0 0 Z " fill="#FDF3D7" transform="translate(285,249)"/>
<path d="M0 0 C0.99 0.33 1.98 0.66 3 1 C2.278125 1.45375 1.55625 1.9075 0.8125 2.375 C-3.0613998 5.99063981 -4.85343944 10.21362666 -7 15 C-7.96500434 12.42273231 -8.12398584 11.31866536 -7.109375 8.7109375 C-6.43648437 7.55464844 -6.43648437 7.55464844 -5.75 6.375 C-5.31171875 5.59898437 -4.8734375 4.82296875 -4.421875 4.0234375 C-3 2 -3 2 0 0 Z " fill="#F0D094" transform="translate(176,217)"/>
<path d="M0 0 C0.66 0.33 1.32 0.66 2 1 C0.9375 3.875 0.9375 3.875 -1 7 C-4.6875 8.375 -4.6875 8.375 -8 9 C-7.04270084 7.87411986 -6.08412105 6.7493285 -5.125 5.625 C-4.59132812 4.99851562 -4.05765625 4.37203125 -3.5078125 3.7265625 C-2.38567993 2.44163349 -1.20628025 1.20628025 0 0 Z " fill="#EEC687" transform="translate(212,335)"/>
<path d="M0 0 C-1.875 4.75 -1.875 4.75 -3 7 C-3.66 7 -4.32 7 -5 7 C-5.33 8.65 -5.66 10.3 -6 12 C-6.66 10.68 -7.32 9.36 -8 8 C-6.68 7.34 -5.36 6.68 -4 6 C-4.33 4.35 -4.66 2.7 -5 1 C-3 0 -3 0 0 0 Z " fill="#BBB75D" transform="translate(358,266)"/>
<path d="M0 0 C0.66 0 1.32 0 2 0 C2.33 1.98 2.66 3.96 3 6 C3.639375 6.103125 4.27875 6.20625 4.9375 6.3125 C5.618125 6.539375 6.29875 6.76625 7 7 C7.33 7.99 7.66 8.98 8 10 C7.01 10 6.02 10 5 10 C2.2650899 7.06973918 0.27424305 4.82272915 -1 1 C-0.67 0.67 -0.34 0.34 0 0 Z " fill="#594027" transform="translate(184,253)"/>
<path d="M0 0 C0.66 0 1.32 0 2 0 C1.67 5.28 1.34 10.56 1 16 C0.67 16 0.34 16 0 16 C0 14.02 0 12.04 0 10 C-0.66 9.67 -1.32 9.34 -2 9 C-1.125 2.25 -1.125 2.25 0 0 Z " fill="#DDD3C2" transform="translate(284,233)"/>
<path d="M0 0 C4.46133727 1.13720362 8.20441387 2.35459149 12 5 C12 5.33 12 5.66 12 6 C4 5.07692308 4 5.07692308 1 3 C0.67 2.01 0.34 1.02 0 0 Z " fill="#CAC368" transform="translate(320,160)"/>
<path d="M0 0 C-0.99 1.485 -0.99 1.485 -2 3 C-5.125 3.1875 -5.125 3.1875 -8 3 C-8 2.34 -8 1.68 -8 1 C-8.66 0.67 -9.32 0.34 -10 0 C-6.33694766 -0.74926071 -3.57644848 -1.2380014 0 0 Z " fill="#704A25" transform="translate(240,317)"/>
<path d="M0 0 C-1.78174788 2.30142435 -3.16304165 3.80034391 -6.046875 4.48828125 C-8.0246611 4.72323102 -10.01271872 4.86751458 -12 5 C-10.7410501 2.4821002 -9.60942883 2.07291536 -7.125 0.8125 C-6.42632812 0.44769531 -5.72765625 0.08289063 -5.0078125 -0.29296875 C-3 -1 -3 -1 0 0 Z " fill="#C6BE5D" transform="translate(291,159)"/>
<path d="M0 0 C0 6 0 6 -1.5 7.6875 C-1.995 8.120625 -2.49 8.55375 -3 9 C-3.99 8.67 -4.98 8.34 -6 8 C-4.55746343 4.63408134 -2.66735273 2.48952921 0 0 Z " fill="#437E17" transform="translate(367,355)"/>
<path d="M0 0 C0.33 0 0.66 0 1 0 C2.61050328 10.15317287 2.61050328 10.15317287 0.0625 13.6875 C-0.618125 14.120625 -1.29875 14.55375 -2 15 C-1.38487182 9.99109914 -0.7282448 4.99367864 0 0 Z " fill="#755C1C" transform="translate(402,232)"/>
<path d="M0 0 C2.96175123 0.61277612 4.38058783 1.25372522 7 3 C6.34 5.31 5.68 7.62 5 10 C3.33333333 6.66666667 1.66666667 3.33333333 0 0 Z " fill="#F5EAD2" transform="translate(313,229)"/>
<path d="M0 0 C2.72957339 2.35735884 3.88893396 4.58133526 5 8 C5 8.99 5 9.98 5 11 C4.01 10.67 3.02 10.34 2 10 C0.78368346 6.54310037 0 3.67168136 0 0 Z " fill="#B3C65D" transform="translate(357,192)"/>
<path d="M0 0 C0 0.66 0 1.32 0 2 C-5.28 1.67 -10.56 1.34 -16 1 C-16 0.67 -16 0.34 -16 0 C-10.39436958 -0.82622671 -5.57710648 -1.06795656 0 0 Z " fill="#BACA63" transform="translate(206,157)"/>
<path d="M0 0 C0.66 0.33 1.32 0.66 2 1 C2 1.99 2 2.98 2 4 C0.68 3.67 -0.64 3.34 -2 3 C-2.66 4.65 -3.32 6.3 -4 8 C-4.99 8 -5.98 8 -7 8 C-7.33 7.34 -7.66 6.68 -8 6 C-6.35 5.34 -4.7 4.68 -3 4 C-3 3.34 -3 2.68 -3 2 C-2.01 1.34 -1.02 0.68 0 0 Z " fill="#41831B" transform="translate(157,102)"/>
<path d="M0 0 C2 3 2 3 1.625 5.1875 C1.41875 5.785625 1.2125 6.38375 1 7 C1.66 7.33 2.32 7.66 3 8 C1.125 9.0625 1.125 9.0625 -1 10 C-1.66 9.67 -2.32 9.34 -3 9 C-2.01 6.03 -1.02 3.06 0 0 Z " fill="#EEE4CF" transform="translate(214,252)"/>
<path d="M0 0 C3.94139078 1.66751148 6.7892812 4.22710649 10 7 C9.67 8.32 9.34 9.64 9 11 C7.49703315 9.35687553 5.99769719 7.71042916 4.5 6.0625 C3.6646875 5.14597656 2.829375 4.22945312 1.96875 3.28515625 C0 1 0 1 0 0 Z " fill="#48680B" transform="translate(444,183)"/>
<path d="M0 0 C1.12894876 0.93274109 2.25300876 1.87140122 3.375 2.8125 C4.00148438 3.33457031 4.62796875 3.85664063 5.2734375 4.39453125 C7 6 7 6 9 9 C6 9 6 9 4.39453125 7.5390625 C3.61142578 6.59160156 3.61142578 6.59160156 2.8125 5.625 C2.28269531 4.99851563 1.75289063 4.37203125 1.20703125 3.7265625 C0 2 0 2 0 0 Z " fill="#C8C96E" transform="translate(339,170)"/>
<path d="M0 0 C1.125 1.75 1.125 1.75 2 4 C1.125 6.25 1.125 6.25 0 8 C-1.5625 6.75 -1.5625 6.75 -3 5 C-2.8125 2.875 -2.8125 2.875 -2 1 C-1.34 0.67 -0.68 0.34 0 0 Z " fill="#6F4821" transform="translate(307,347)"/>
<path d="M0 0 C0.99 0 1.98 0 3 0 C3.125 6.75 3.125 6.75 2 9 C1.01 8.67 0.02 8.34 -1 8 C-0.7525 7.13375 -0.7525 7.13375 -0.5 6.25 C0.14462031 3.73335631 0.14462031 3.73335631 0 0 Z " fill="#F8CE91" transform="translate(308,347)"/>
<path d="M0 0 C0.66 0 1.32 0 2 0 C1.55090939 1.48199902 1.09043436 2.96055236 0.625 4.4375 C0.36976563 5.26121094 0.11453125 6.08492188 -0.1484375 6.93359375 C-1 9 -1 9 -3 10 C-2.979375 9.21625 -2.95875 8.4325 -2.9375 7.625 C-2.81315937 5.01885039 -2.81315937 5.01885039 -4 3 C-3.01 2.34 -2.02 1.68 -1 1 C-0.67 0.67 -0.34 0.34 0 0 Z " fill="#AFB651" transform="translate(360,329)"/>
<path d="M0 0 C1.25 2.5625 1.25 2.5625 2 5 C-1.45925163 3.7508258 -4.14693203 2.32472205 -7 0 C-3.87822605 -1.04059132 -2.92916561 -1.32284898 0 0 Z " fill="#EFC888" transform="translate(291,324)"/>
<path d="M0 0 C0.33 0.66 0.66 1.32 1 2 C-0.65 2 -2.3 2 -4 2 C-4.33 2.99 -4.66 3.98 -5 5 C-5.99 5 -6.98 5 -8 5 C-8 4.01 -8 3.02 -8 2 C-4.77208445 -0.1519437 -3.71599191 -0.20086443 0 0 Z " fill="#66380F" transform="translate(238,284)"/>
<path d="M0 0 C2.42130331 2.42130331 2.52840504 3.80111377 3.125 7.125 C3.29257812 8.03507812 3.46015625 8.94515625 3.6328125 9.8828125 C3.81457031 10.93082031 3.81457031 10.93082031 4 12 C3.34 12 2.68 12 2 12 C-0.60018816 8.09971775 -0.15085514 4.52565431 0 0 Z " fill="#F0D08E" transform="translate(277,248)"/>
<path d="M0 0 C0 0.66 0 1.32 0 2 C-1.65385233 3.34919532 -3.321702 4.68133728 -5 6 C-5.99 7.485 -5.99 7.485 -7 9 C-7.99 8.67 -8.98 8.34 -10 8 C-8.33333333 6.33333333 -6.66666667 4.66666667 -5 3 C-4.443125 2.401875 -3.88625 1.80375 -3.3125 1.1875 C-2 0 -2 0 0 0 Z " fill="#FEEFC8" transform="translate(182,216)"/>
<path d="M0 0 C2.125 0.9375 2.125 0.9375 4 2 C3.01 2.99 2.02 3.98 1 5 C0.01 4.34 -0.98 3.68 -2 3 C-2 2.34 -2 1.68 -2 1 C-1.34 0.67 -0.68 0.34 0 0 Z M-5 3 C-4.01 3 -3.02 3 -2 3 C-2.33 3.66 -2.66 4.32 -3 5 C-3.99 5.33 -4.98 5.66 -6 6 C-5.67 5.01 -5.34 4.02 -5 3 Z " fill="#6D4424" transform="translate(319,196)"/>
<path d="M0 0 C1.70884005 1.62339805 3.37446717 3.29319053 5 5 C5 5.66 5 6.32 5 7 C5.66 7 6.32 7 7 7 C6 9 6 9 4 10 C0 3.375 0 3.375 0 0 Z " fill="#BECB68" transform="translate(348,179)"/>
<path d="M0 0 C0.99 0.33 1.98 0.66 3 1 C2.01 1.33 1.02 1.66 0 2 C0.350625 2.7425 0.70125 3.485 1.0625 4.25 C2.04509293 7.1322726 2.0326802 8.21176345 1 11 C-1.29633824 7.55549263 -1.54016485 5.06187717 -2 1 C-1.34 0.67 -0.68 0.34 0 0 Z " fill="#476C0E" transform="translate(398,173)"/>
<path d="M0 0 C0 0.66 0 1.32 0 2 C-0.66 2 -1.32 2 -2 2 C-2 2.66 -2 3.32 -2 4 C-4.5 5.625 -4.5 5.625 -7 7 C-7 5.02 -7 3.04 -7 1 C-4.53721199 -0.231394 -2.7204945 -0.07159196 0 0 Z " fill="#C5C363" transform="translate(344,355)"/>
<path d="M0 0 C0.66 0 1.32 0 2 0 C2 0.66 2 1.32 2 2 C3.32 2.33 4.64 2.66 6 3 C5.67 4.65 5.34 6.3 5 8 C2.20127563 5.47211993 0.54226981 3.79588866 0 0 Z " fill="#C8C267" transform="translate(142,266)"/>
<path d="M0 0 C1.8125 0.125 1.8125 0.125 4 1 C5.8125 3.9375 5.8125 3.9375 7 7 C6.67 7.66 6.34 8.32 6 9 C4.99406757 7.8803014 3.9954151 6.7540588 3 5.625 C2.443125 4.99851562 1.88625 4.37203125 1.3125 3.7265625 C0 2 0 2 0 0 Z " fill="#9A8336" transform="translate(46,266)"/>
<path d="M0 0 C0.33 0 0.66 0 1 0 C1.99 4.29 2.98 8.58 4 13 C3.01 13 2.02 13 1 13 C0.1276588 10.00519083 -0.10829766 7.36424089 -0.0625 4.25 C-0.05347656 3.45078125 -0.04445312 2.6515625 -0.03515625 1.828125 C-0.02355469 1.22484375 -0.01195312 0.6215625 0 0 Z " fill="#F0D094" transform="translate(166,250)"/>
<path d="M0 0 C0.66 0 1.32 0 2 0 C2 1.98 2 3.96 2 6 C0.35 6.66 -1.3 7.32 -3 8 C-2.67 6.02 -2.34 4.04 -2 2 C-1.34 2 -0.68 2 0 2 C0 1.34 0 0.68 0 0 Z " fill="#67462F" transform="translate(316,247)"/>
<path d="M0 0 C1.32 0 2.64 0 4 0 C4 1.65 4 3.3 4 5 C2.68 5 1.36 5 0 5 C-0.5625 3.0625 -0.5625 3.0625 -1 1 C-0.67 0.67 -0.34 0.34 0 0 Z " fill="#613C19" transform="translate(330,200)"/>
<path d="M0 0 C0 0.66 0 1.32 0 2 C-3.90028225 4.60018816 -7.47434569 4.15085514 -12 4 C-4.28571429 0 -4.28571429 0 0 0 Z " fill="#F3CE8C" transform="translate(185,192)"/>
<path d="M0 0 C5.875 3.625 5.875 3.625 7 7 C4.03824877 6.38722388 2.61941217 5.74627478 0 4 C0 2.68 0 1.36 0 0 Z " fill="#C3C762" transform="translate(226,168)"/>
<path d="M0 0 C0.6875 1.8125 0.6875 1.8125 1 4 C-0.25 5.75 -0.25 5.75 -2 7 C-2.99 7 -3.98 7 -5 7 C-5 6.01 -5 5.02 -5 4 C-2.5 1.8125 -2.5 1.8125 0 0 Z " fill="#338A10" transform="translate(145,111)"/>
<path d="M0 0 C4.83256305 0.41421969 6.82679218 2.46413986 10 6 C8.68 6 7.36 6 6 6 C5.34 5.01 4.68 4.02 4 3 C1.94074861 2.27617533 1.94074861 2.27617533 0 2 C0 1.34 0 0.68 0 0 Z " fill="#A0883B" transform="translate(432,177)"/>
<path d="M0 0 C0.33 0.99 0.66 1.98 1 3 C-4.17578125 6.22265625 -4.17578125 6.22265625 -6 7 C-6.99 6.67 -7.98 6.34 -9 6 C-6.03 4.02 -3.06 2.04 0 0 Z " fill="#4F6E13" transform="translate(443,278)"/>
<path d="M0 0 C0.66 0 1.32 0 2 0 C0.64978174 4.41889613 -1.26115668 6.34345343 -5 9 C-4.6875 7.0625 -4.6875 7.0625 -4 5 C-3.01 4.67 -2.02 4.34 -1 4 C-0.26676204 1.98491642 -0.26676204 1.98491642 0 0 Z " fill="#FEEFC2" transform="translate(327,263)"/>
<path d="M0 0 C0.45375 0.474375 0.9075 0.94875 1.375 1.4375 C2.93258204 3.09027808 2.93258204 3.09027808 5 4 C4.34 5.32 3.68 6.64 3 8 C0.9375 6.25 0.9375 6.25 -1 4 C-0.75 1.75 -0.75 1.75 0 0 Z " fill="#653D16" transform="translate(188,191)"/>
<path d="M0 0 C0.33 0 0.66 0 1 0 C1.125 2.375 1.125 2.375 1 5 C0.34 5.66 -0.32 6.32 -1 7 C-1.33 7.66 -1.66 8.32 -2 9 C-2.66 8.01 -3.32 7.02 -4 6 C-1.125 1.125 -1.125 1.125 0 0 Z " fill="#EDC47C" transform="translate(293,179)"/>
<path d="M0 0 C0.33 0.66 0.66 1.32 1 2 C0.0625 4.625 0.0625 4.625 -1 7 C-1.66 7 -2.32 7 -3 7 C-3.33 7.99 -3.66 8.98 -4 10 C-4.19990835 6.40164967 -3.96808719 4.06146896 -2 1 C-1.34 0.67 -0.68 0.34 0 0 Z " fill="#F5CD8B" transform="translate(193,343)"/>
<path d="M0 0 C0.99 0 1.98 0 3 0 C2.67 1.65 2.34 3.3 2 5 C1.34 5 0.68 5 0 5 C0 5.66 0 6.32 0 7 C-0.66 6.67 -1.32 6.34 -2 6 C-1.34 4.02 -0.68 2.04 0 0 Z " fill="#EDC27B" transform="translate(226,327)"/>
<path d="M0 0 C1.65 0.33 3.3 0.66 5 1 C4.67 1.99 4.34 2.98 4 4 C2.35 4 0.7 4 -1 4 C-0.67 2.68 -0.34 1.36 0 0 Z " fill="#FAF4DE" transform="translate(210,261)"/>
<path d="M0 0 C1.875 0.25 1.875 0.25 4 1 C5.25 3.0625 5.25 3.0625 6 5 C5.34 5 4.68 5 4 5 C2.37485532 6.45833358 2.37485532 6.45833358 1 8 C1.20625 7.05125 1.4125 6.1025 1.625 5.125 C1.74875 4.09375 1.8725 3.0625 2 2 C1.34 1.34 0.68 0.68 0 0 Z " fill="#43821E" transform="translate(256,55)"/>
<path d="M0 0 C1.65 0 3.3 0 5 0 C5.66 2.31 6.32 4.62 7 7 C6.34 7 5.68 7 5 7 C2 3.53846154 2 3.53846154 2 1 C1.34 0.67 0.68 0.34 0 0 Z " fill="#C0C965" transform="translate(149,348)"/>
<path d="M0 0 C0.66 0.99 1.32 1.98 2 3 C1.34 3.66 0.68 4.32 0 5 C0 5.33 0 5.66 0 6 C-1.65 6 -3.3 6 -5 6 C-3.35 4.02 -1.7 2.04 0 0 Z " fill="#704724" transform="translate(203,332)"/>
<path d="M0 0 C1.98 0.66 3.96 1.32 6 2 C6 2.66 6 3.32 6 4 C3.69 3.67 1.38 3.34 -1 3 C-0.67 2.01 -0.34 1.02 0 0 Z " fill="#F4CD8F" transform="translate(229,289)"/>
<path d="M0 0 C0.2475 0.61875 0.495 1.2375 0.75 1.875 C2.20628639 4.35068687 3.37812506 4.95125002 6 6 C5.67 6.66 5.34 7.32 5 8 C3 8 3 8 1.375 6.8125 C-0.42149467 4.44439338 -0.23521845 2.90102749 0 0 Z " fill="#D8C770" transform="translate(349,274)"/>
<path d="M0 0 C0.66 0 1.32 0 2 0 C2 0.66 2 1.32 2 2 C2.99 2 3.98 2 5 2 C5.66 3.98 6.32 5.96 7 8 C1.125 3.375 1.125 3.375 0 0 Z " fill="#FEEDC6" transform="translate(283,263)"/>
<path d="M0 0 C0.66 0.99 1.32 1.98 2 3 C1.01 4.485 1.01 4.485 0 6 C1.65 6 3.3 6 5 6 C5 6.33 5 6.66 5 7 C3.02 7 1.04 7 -1 7 C-2 4 -2 4 -1.0625 1.8125 C-0.5365625 0.9153125 -0.5365625 0.9153125 0 0 Z " fill="#528C20" transform="translate(273,85)"/>
<path d="M0 0 C3.93673644 1.31224548 6.22719294 2.91910327 9 6 C5.59687262 4.94124926 2.98646769 3.99097846 0 2 C0 1.34 0 0.68 0 0 Z " fill="#E9C387" transform="translate(282,333)"/>
<path d="M0 0 C1.7074998 1.28062485 3.37373596 2.61767557 5 4 C5 4.66 5 5.32 5 6 C3.35 5.67 1.7 5.34 0 5 C0 3.35 0 1.7 0 0 Z " fill="#572D0B" transform="translate(241,287)"/>
<path d="M0 0 C2.64 0 5.28 0 8 0 C8 0.99 8 1.98 8 3 C2.25 2.25 2.25 2.25 0 0 Z " fill="#442B1A" transform="translate(195,225)"/>
<path d="M0 0 C1.65 1.65 3.3 3.3 5 5 C4.67 5.66 4.34 6.32 4 7 C2.68 6.34 1.36 5.68 0 5 C0 3.35 0 1.7 0 0 Z " fill="#447E18" transform="translate(378,135)"/>
</svg>
