<?xml version="1.0" encoding="UTF-8"?>
<svg version="1.1" xmlns="http://www.w3.org/2000/svg" width="500" height="500">
<path d="M0 0 C2.04678103 4.09356205 1.6209768 8.13494883 1.3125 12.625 C1.9209375 12.4084375 2.529375 12.191875 3.15625 11.96875 C9.05559286 10.09484109 14.59435446 9.27752772 20.75 9.1875 C21.43578125 9.16558594 22.1215625 9.14367187 22.828125 9.12109375 C26.21629333 9.13445931 28.02473067 9.40882878 30.76171875 11.46484375 C32.84931996 14.3727618 32.7512852 16.11471838 32.3125 19.625 C31.6807799 20.97524144 31.01958359 22.31265286 30.3125 23.625 C31.446875 23.99625 32.58125 24.3675 33.75 24.75 C41.30626467 27.27670049 48.82279925 29.9077221 56.3125 32.625 C57.36953125 33.00398438 58.4265625 33.38296875 59.515625 33.7734375 C72.64694581 38.83222503 85.73627709 47.33074351 96.3125 56.625 C96.3125 57.285 96.3125 57.945 96.3125 58.625 C96.9725 58.625 97.6325 58.625 98.3125 58.625 C98.3125 59.285 98.3125 59.945 98.3125 60.625 C98.9725 60.625 99.6325 60.625 100.3125 60.625 C100.3125 61.285 100.3125 61.945 100.3125 62.625 C100.910625 62.893125 101.50875 63.16125 102.125 63.4375 C104.31097854 64.62417406 105.72582594 65.72099113 107.3125 67.625 C107.3125 68.285 107.3125 68.945 107.3125 69.625 C107.9725 69.625 108.6325 69.625 109.3125 69.625 C111.09042461 71.67212784 112.74180397 73.71742561 114.375 75.875 C114.83455078 76.46152344 115.29410156 77.04804688 115.76757812 77.65234375 C118.03323806 80.61333837 119.5788923 82.97727071 120.3125 86.625 C120.9725 86.625 121.6325 86.625 122.3125 86.625 C123.77506659 89.3519181 125.23178541 92.0819188 126.6875 94.8125 C127.1 95.58142578 127.5125 96.35035156 127.9375 97.14257812 C129.94127719 100.9077401 131.84760452 104.60861075 133.3125 108.625 C134.06015625 108.42003906 134.8078125 108.21507812 135.578125 108.00390625 C136.56296875 107.73449219 137.5478125 107.46507812 138.5625 107.1875 C139.53703125 106.92066406 140.5115625 106.65382813 141.515625 106.37890625 C142.43859375 106.13011719 143.3615625 105.88132812 144.3125 105.625 C144.94542969 105.43292969 145.57835937 105.24085938 146.23046875 105.04296875 C160.36197814 102.20606161 173.39271072 106.1751317 185.3125 113.625 C191.02312913 117.44714576 191.02312913 117.44714576 193.3125 119.625 C193.3125 120.285 193.3125 120.945 193.3125 121.625 C193.9725 121.625 194.6325 121.625 195.3125 121.625 C198.3125 125.08653846 198.3125 125.08653846 198.3125 127.625 C198.9725 127.625 199.6325 127.625 200.3125 127.625 C213.16559312 142.55117266 216.56336357 164.37387692 215.50146484 183.37304688 C215.05875063 188.64901052 213.8625091 193.57908294 212.3125 198.625 C212.04566406 199.615 211.77882813 200.605 211.50390625 201.625 C209.13575802 209.7082793 205.34424266 216.87244491 200.3125 223.625 C199.6525 223.625 198.9925 223.625 198.3125 223.625 C198.06242187 224.19605469 197.81234375 224.76710938 197.5546875 225.35546875 C191.55658732 236.31426185 178.42166858 243.35774784 166.890625 246.98046875 C159.1261924 248.37908379 151.16715303 247.90441453 143.3125 247.625 C143.16554688 249.13126953 143.16554688 249.13126953 143.015625 250.66796875 C141.54921198 264.53409748 137.98169197 276.28699486 131.3125 288.625 C130.6525 288.625 129.9925 288.625 129.3125 288.625 C129.20808594 289.18703125 129.10367187 289.7490625 128.99609375 290.328125 C128.18636765 293.04880471 126.95046662 295.01757807 125.375 297.375 C124.85035156 298.17421875 124.32570313 298.9734375 123.78515625 299.796875 C123.05619141 300.70179688 123.05619141 300.70179688 122.3125 301.625 C121.6525 301.625 120.9925 301.625 120.3125 301.625 C120.0959375 302.16640625 119.879375 302.7078125 119.65625 303.265625 C117.84750003 306.44145344 115.39526201 308.83228081 112.8125 311.375 C112.31363281 311.88160156 111.81476563 312.38820313 111.30078125 312.91015625 C107.56591139 316.625 107.56591139 316.625 105.3125 316.625 C105.3125 317.285 105.3125 317.945 105.3125 318.625 C103.046875 320.53515625 103.046875 320.53515625 100.0625 322.6875 C99.08796875 323.40035156 98.1134375 324.11320312 97.109375 324.84765625 C94.69937213 326.37915249 93.09121057 327.19496146 90.3125 327.625 C90.3125 328.285 90.3125 328.945 90.3125 329.625 C59.68543542 353.63850822 10.88660334 363.16972762 -27.10498047 358.75195312 C-31.98028818 358.1305667 -36.8354287 357.40633056 -41.6875 356.625 C-42.52071777 356.49109863 -43.35393555 356.35719727 -44.21240234 356.21923828 C-61.3497103 353.33446394 -77.42273278 347.27976384 -93.125 339.9375 C-94.2687207 339.40346558 -94.2687207 339.40346558 -95.43554688 338.85864258 C-99.02550451 337.12101004 -102.309147 335.26975734 -105.53515625 332.91796875 C-108.49737897 330.5204214 -108.49737897 330.5204214 -111.6875 329.625 C-111.6875 328.965 -111.6875 328.305 -111.6875 327.625 C-112.38230469 327.3878125 -113.07710938 327.150625 -113.79296875 326.90625 C-117.20948185 325.3939473 -120.04506671 323.37261633 -123 321.125 C-123.54978516 320.72152344 -124.09957031 320.31804687 -124.66601562 319.90234375 C-126.04757451 318.86231309 -127.37306298 317.74866546 -128.6875 316.625 C-128.6875 315.965 -128.6875 315.305 -128.6875 314.625 C-129.27015625 314.3671875 -129.8528125 314.109375 -130.453125 313.84375 C-132.8677903 312.52665983 -134.50490177 311.07411616 -136.4375 309.125 C-137.05109375 308.5165625 -137.6646875 307.908125 -138.296875 307.28125 C-139.6875 305.625 -139.6875 305.625 -139.6875 303.625 C-140.3475 303.625 -141.0075 303.625 -141.6875 303.625 C-143.59765625 301.359375 -143.59765625 301.359375 -145.75 298.375 C-146.46285156 297.40046875 -147.17570312 296.4259375 -147.91015625 295.421875 C-149.44165249 293.01187213 -150.25746146 291.40371057 -150.6875 288.625 C-151.3475 288.625 -152.0075 288.625 -152.6875 288.625 C-159.28765737 275.18267949 -163.12410326 262.49784007 -164.6875 247.625 C-166.59208984 247.71201172 -166.59208984 247.71201172 -168.53515625 247.80078125 C-185.24754817 248.33562997 -197.48345263 245.58809424 -210.6875 234.625 C-211.30753906 234.17769531 -211.92757812 233.73039063 -212.56640625 233.26953125 C-222.19214191 226.01114589 -229.02767654 213.88278395 -232.6875 202.625 C-233.27337891 200.85962891 -233.27337891 200.85962891 -233.87109375 199.05859375 C-238.42255925 184.07852769 -238.45675827 167.54569152 -233.6875 152.625 C-233.15962891 150.88669922 -233.15962891 150.88669922 -232.62109375 149.11328125 C-230.07000723 141.32531085 -226.88578303 134.04101684 -221.6875 127.625 C-221.0275 127.625 -220.3675 127.625 -219.6875 127.625 C-219.378125 127.00625 -219.06875 126.3875 -218.75 125.75 C-218.0625 124.375 -217.375 123 -216.6875 121.625 C-216.0275 121.625 -215.3675 121.625 -214.6875 121.625 C-214.6875 120.965 -214.6875 120.305 -214.6875 119.625 C-212.80346425 118.07826742 -210.94309131 116.68640901 -208.9375 115.3125 C-208.35419922 114.91095703 -207.77089844 114.50941406 -207.16992188 114.09570312 C-195.54804509 106.33524818 -183.64590073 103.18925929 -169.6875 104.625 C-166.08934139 105.47184308 -162.68145478 106.51644037 -159.19921875 107.75 C-156.81601497 108.73465876 -156.81601497 108.73465876 -154.6875 108.625 C-154.14480469 107.53960937 -153.60210937 106.45421875 -153.04296875 105.3359375 C-149.92447917 99.09895833 -146.80598958 92.86197917 -143.6875 86.625 C-143.0275 86.625 -142.3675 86.625 -141.6875 86.625 C-141.0275 84.645 -140.3675 82.665 -139.6875 80.625 C-139.0275 80.625 -138.3675 80.625 -137.6875 80.625 C-137.460625 79.92375 -137.23375 79.2225 -137 78.5 C-135.34908712 74.88371465 -133.3966165 72.53730024 -130.6875 69.625 C-130.0275 69.625 -129.3675 69.625 -128.6875 69.625 C-128.2853125 68.7278125 -128.2853125 68.7278125 -127.875 67.8125 C-126.68832594 65.62652146 -125.59150887 64.21167406 -123.6875 62.625 C-123.0275 62.625 -122.3675 62.625 -121.6875 62.625 C-121.6875 61.965 -121.6875 61.305 -121.6875 60.625 C-121.0275 60.625 -120.3675 60.625 -119.6875 60.625 C-119.6875 59.965 -119.6875 59.305 -119.6875 58.625 C-119.0275 58.625 -118.3675 58.625 -117.6875 58.625 C-117.6875 57.965 -117.6875 57.305 -117.6875 56.625 C-116.19384766 55.29980469 -116.19384766 55.29980469 -114.1015625 53.796875 C-112.96086304 52.97255981 -112.96086304 52.97255981 -111.79711914 52.1315918 C-110.97719482 51.5519165 -110.15727051 50.97224121 -109.3125 50.375 C-108.47904053 49.78307861 -107.64558105 49.19115723 -106.78686523 48.58129883 C-104.42835703 46.91743079 -102.06085634 45.26759686 -99.6875 43.625 C-98.77871094 42.99464844 -97.86992187 42.36429688 -96.93359375 41.71484375 C-87.28335826 35.51728643 -75.8136844 31.13954793 -64.875 27.8125 C-58.68641335 25.66328541 -54.07321208 21.45053914 -49.06640625 17.36328125 C-41.3953752 11.1021306 -33.18981629 6.73187015 -24.1875 2.6875 C-23.32116943 2.28515137 -22.45483887 1.88280273 -21.56225586 1.46826172 C-14.79737116 -1.45471868 -6.8991686 -3.52980719 0 0 Z " fill="#367908" transform="translate(260.6875,62.375)"/>
<path d="M0 0 C3.77536733 3.24709765 7.30563725 6.73605023 10.78125 10.30078125 C11.32523437 10.79964844 11.86921875 11.29851562 12.4296875 11.8125 C17.273415 16.34952859 20.81331181 21.35403331 23.78125 27.30078125 C23.78125 27.96078125 23.78125 28.62078125 23.78125 29.30078125 C26.18550026 29.16630966 26.18550026 29.16630966 28.78125 28.30078125 C30.48800632 26.23045328 30.48800632 26.23045328 31.84375 23.55078125 C41.07299883 8.12188484 55.44427305 -5.22726911 73.03125 -10.01171875 C82.34812266 -11.7712001 92.73867239 -11.68168294 101.78125 -8.69921875 C102.70164062 -8.415625 103.62203125 -8.13203125 104.5703125 -7.83984375 C118.6489989 -2.81953697 129.14906278 9.17280141 135.78125 22.30078125 C140.89976194 35.34246921 143.12085566 47.3325284 143.03125 61.36328125 C143.03898438 62.57822266 143.04671875 63.79316406 143.0546875 65.04492188 C143.02053003 80.80005516 138.47310938 94.66016824 128.78125 107.30078125 C127.4544032 108.30937203 126.12264076 109.31161564 124.78125 110.30078125 C124.78125 110.96078125 124.78125 111.62078125 124.78125 112.30078125 C126.24415512 113.53095147 127.70993837 114.75799366 129.1953125 115.9609375 C135.61360906 121.38329149 138.72788155 129.13466774 139.78125 137.30078125 C141.23067958 156.16407191 135.36797246 171.20922614 123.14453125 185.61328125 C121.97470703 186.94359375 121.97470703 186.94359375 120.78125 188.30078125 C120.11480469 189.06390625 119.44835937 189.82703125 118.76171875 190.61328125 C99.1082623 211.65713519 67.2752693 224.17040799 38.94580078 225.4777832 C4.38611672 226.01133473 4.38611672 226.01133473 -10.21875 221.30078125 C-11.73129407 220.85904133 -13.24433519 220.41900056 -14.7578125 219.98046875 C-24.94938333 216.91359055 -34.05816205 212.68315436 -43.21875 207.30078125 C-44.68054688 206.46933594 -44.68054688 206.46933594 -46.171875 205.62109375 C-51.51077561 202.43300738 -56.18529008 198.77494467 -60.78125 194.61328125 C-61.29453857 194.14946045 -61.80782715 193.68563965 -62.33666992 193.20776367 C-64.92917712 190.78042885 -66.90328693 188.62446605 -68.21875 185.30078125 C-68.87875 185.30078125 -69.53875 185.30078125 -70.21875 185.30078125 C-71.76550225 183.41672153 -73.15739534 181.55644553 -74.53125 179.55078125 C-75.1346521 178.67365479 -75.1346521 178.67365479 -75.75024414 177.77880859 C-84.49474391 164.67704749 -87.63700511 150.83776603 -86.21875 135.30078125 C-84.29859206 125.98365125 -79.13587433 118.68581909 -72.21875 112.30078125 C-73.39189036 109.52790404 -74.87285934 107.47716837 -76.84375 105.23828125 C-79.21875 102.30078125 -79.21875 102.30078125 -79.21875 99.30078125 C-79.87875 99.30078125 -80.53875 99.30078125 -81.21875 99.30078125 C-82.18617586 96.99173651 -83.14266841 94.67905432 -84.09375 92.36328125 C-84.36316406 91.72326172 -84.63257813 91.08324219 -84.91015625 90.42382812 C-89.00710884 80.381298 -89.53261561 71.18317919 -89.46875 60.36328125 C-89.47648438 59.05681641 -89.48421875 57.75035156 -89.4921875 56.40429688 C-89.4515832 36.23410935 -82.60924221 16.83281928 -68.21875 2.30078125 C-49.00566267 -14.15004113 -20.3471355 -15.58275342 0 0 Z " fill="#FCC774" transform="translate(223.21875,172.69921875)"/>
<path d="M0 0 C-0.4125 1.216875 -0.825 2.43375 -1.25 3.6875 C-3.27658936 9.75757149 -5.13608633 15.87841551 -7 22 C-2.48765388 20.23249115 2.00370529 18.44481495 6.4296875 16.46875 C13.24027211 13.42857656 19.5852394 10.99091271 27 10 C25 14 23 18 21 22 C21.65742188 22.02578125 22.31484375 22.0515625 22.9921875 22.078125 C49.08815145 23.63398193 73.37079622 33.20452771 94 49 C94.87269531 49.62648437 95.74539063 50.25296875 96.64453125 50.8984375 C100.72709212 53.8298735 100.72709212 53.8298735 102 55 C102 55.66 102 56.32 102 57 C102.57492187 57.24234375 103.14984375 57.4846875 103.7421875 57.734375 C120.3223167 67.02842666 132.50214192 93.77112513 137.74609375 111.203125 C144.61803534 136.13772056 145.07227326 165.78819274 133.8203125 189.484375 C133.44648438 190.27328125 133.07265625 191.0621875 132.6875 191.875 C132.34074219 192.55304688 131.99398438 193.23109375 131.63671875 193.9296875 C130.43237924 197.84563804 131.76501081 200.53473319 133.55859375 204.0859375 C134.80831394 206.27359737 136.05831266 208.46109815 137.30859375 210.6484375 C144.28795273 224.47820656 142.82835113 240.4949724 139 255 C136.45487094 262.40798734 132.99172695 269.27351544 129 276 C128.34 276 127.68 276 127 276 C126.7834375 276.70511719 126.566875 277.41023438 126.34375 278.13671875 C124.67098847 281.70106236 122.29261046 284.11605141 119.5 286.8125 C118.96101074 287.33948486 118.42202148 287.86646973 117.86669922 288.40942383 C97.084012 308.4719796 70.63751446 321.33272583 43.125 329.375 C42.31853027 329.6136377 41.51206055 329.85227539 40.68115234 330.09814453 C27.76996327 333.69600359 14.81501767 334.41288855 1.5 334.375 C0.71008667 334.3737915 -0.07982666 334.37258301 -0.89367676 334.37133789 C-27.27601912 334.26220446 -52.46431222 328.18582742 -76 316 C-77.04671875 315.48050781 -78.0934375 314.96101563 -79.171875 314.42578125 C-87.70883721 310.0449717 -95.36785322 304.77131337 -103 299 C-104.53720703 297.83791016 -104.53720703 297.83791016 -106.10546875 296.65234375 C-111.19411923 292.69769436 -111.19411923 292.69769436 -113 291 C-113 290.34 -113 289.68 -113 289 C-113.66 289 -114.32 289 -115 289 C-115 288.34 -115 287.68 -115 287 C-115.66 287 -116.32 287 -117 287 C-117 286.34 -117 285.68 -117 285 C-117.99 284.67 -118.98 284.34 -120 284 C-132.72145886 269.24151005 -140.84883244 251.70697174 -140.21875 231.859375 C-139.48038197 222.20785008 -136.71385538 213.91608792 -133 205 C-132.34 205 -131.68 205 -131 205 C-128.97307772 198.86481915 -128.95395877 195.34379884 -131.625 189.375 C-132.19822618 187.97567789 -132.76716824 186.57459393 -133.33203125 185.171875 C-133.61643066 184.47513672 -133.90083008 183.77839844 -134.19384766 183.06054688 C-135.40889397 179.95485611 -136.37246433 176.82601364 -137.3125 173.625 C-137.61800781 172.58601562 -137.92351562 171.54703125 -138.23828125 170.4765625 C-141.70271156 154.66454726 -141.12307293 136.81055672 -138 121 C-137.79375 119.89398438 -137.5875 118.78796875 -137.375 117.6484375 C-135.8408743 110.20444121 -133.39693118 103.77545082 -130 97 C-129.47277344 95.88625 -128.94554687 94.7725 -128.40234375 93.625 C-124.58755336 85.69996848 -120.5042582 77.90879306 -115 71 C-114.34 71 -113.68 71 -113 71 C-112.75121094 70.43667969 -112.50242188 69.87335938 -112.24609375 69.29296875 C-107.48863095 60.53864065 -98.81682006 53.89449041 -91 48 C-90.43458496 47.5654248 -89.86916992 47.13084961 -89.28662109 46.68310547 C-76.4433753 36.90918362 -62.19900306 30.12245538 -46.625 25.875 C-41.68605258 24.46837768 -39.30095496 22.8066101 -35.96875 18.984375 C-29.26943507 12.2318909 -19.77571094 7.71445331 -11.375 3.4375 C-10.70025635 3.09082275 -10.0255127 2.74414551 -9.33032227 2.38696289 C-5.8936863 0.69101149 -3.91040224 0 0 0 Z M-96.17578125 102.234375 C-110.11725199 118.64809923 -115.37619823 136.74551623 -115.25 158.0625 C-115.25773437 159.37283203 -115.26546875 160.68316406 -115.2734375 162.03320312 C-115.25268061 172.33380946 -113.85167628 180.61551544 -109.875 190.0625 C-109.59785156 190.73732422 -109.32070312 191.41214844 -109.03515625 192.10742188 C-108.36321054 193.74094507 -107.68255556 195.37088153 -107 197 C-106.34 197 -105.68 197 -105 197 C-104.89816406 197.58265625 -104.79632813 198.1653125 -104.69140625 198.765625 C-103.88482847 201.37219275 -102.75842991 202.73535414 -100.9375 204.75 C-100.38964844 205.36359375 -99.84179688 205.9771875 -99.27734375 206.609375 C-98.85582031 207.06828125 -98.43429688 207.5271875 -98 208 C-99.29012666 210.82482708 -100.67713134 212.8825812 -102.8125 215.125 C-111.55239164 225.04306331 -112.83114356 235.9274555 -112.22216797 248.64013672 C-111.04775773 261.11469651 -104.19994687 273.71008064 -96 283 C-95.34 283 -94.68 283 -94 283 C-93.61328125 283.87205078 -93.61328125 283.87205078 -93.21875 284.76171875 C-83.31472809 302.95083592 -54.41711927 313.69866714 -35.75 319.25 C-33.51379051 319.88414896 -31.26117872 320.46162412 -29 321 C-27.87779053 321.26816528 -27.87779053 321.26816528 -26.73291016 321.54174805 C-18.89523231 323.20390436 -11.1239494 323.33881292 -3.15039062 323.31567383 C-0.89923678 323.31253381 1.35057188 323.33598357 3.6015625 323.36132812 C37.03798892 323.50460982 69.32364884 311.3016697 93.375 287.9375 C101.32602521 279.65196564 106.66482789 271.69342454 111 261 C111.34289062 260.17757812 111.68578125 259.35515625 112.0390625 258.5078125 C115.4674183 248.99172209 115.68476957 235.507851 112 226 C109.1929462 220.3858924 104.75602852 212.87801426 99 210 C99 209.34 99 208.68 99 208 C99.70125 207.319375 100.4025 206.63875 101.125 205.9375 C111.59741556 195.76091538 116.83988066 180.95417501 117.3359375 166.59375 C117.65086036 141.80357956 114.40843458 119.80133194 96.5625 101.1875 C84.86332666 89.96261747 71.82972205 86.64323297 55.85546875 86.78515625 C39.30812737 87.70724721 26.82243631 96.59050607 15.5859375 108.22265625 C11.64792478 112.63594636 8.37502028 117.31285403 5.4375 122.4375 C3.36940624 125.86865556 3.36940624 125.86865556 0.1875 127 C-0.534375 127 -1.25625 127 -2 127 C-2.27585937 126.26265625 -2.55171875 125.5253125 -2.8359375 124.765625 C-7.02610902 114.81045239 -14.84124461 105.62014535 -24 100 C-24.60199219 99.36835938 -25.20398438 98.73671875 -25.82421875 98.0859375 C-34.04493172 90.20467946 -46.78597268 86.91939896 -57.875 86.625 C-72.58139036 87.01074139 -85.76664563 91.54492155 -96.17578125 102.234375 Z " fill="#7EB813" transform="translate(249,75)"/>
<path d="M0 0 C0.495 1.98 0.495 1.98 1 4 C2.37817877 5.52837443 2.37817877 5.52837443 4.0625 6.75 C5.031875 7.4925 6.00125 8.235 7 9 C7.99 8.34 8.98 7.68 10 7 C9.35182402 9.91351829 8.39742619 12.46396096 7.1875 15.1875 C5.28428577 19.8760752 3.98084847 24.58881985 2.8125 29.5 C2.64580811 30.18731201 2.47911621 30.87462402 2.30737305 31.58276367 C-3.29131893 56.00479291 -0.71751554 82.8301091 9.4375 105.6875 C10.86169001 109.03149814 11.04751317 109.75811475 10.3125 113.5 C9.879375 114.325 9.44625 115.15 9 116 C8.67 116.66 8.34 117.32 8 118 C7.34 118 6.68 118 6 118 C5.814375 119.07314453 5.814375 119.07314453 5.625 120.16796875 C4.99217898 123.03543901 4.07456544 125.58262971 3 128.3125 C1.2876101 132.96573342 0.22703543 137.05970909 0 142 C-0.06316406 142.845625 -0.12632813 143.69125 -0.19140625 144.5625 C-0.85290435 160.26774531 4.32310603 175.39321024 13.234375 188.21484375 C15 191 15 191 14.75 193.875 C14.5025 194.57625 14.255 195.2775 14 196 C13.34 196 12.68 196 12 196 C11.855625 196.61875 11.71125 197.2375 11.5625 197.875 C11 200 11 200 10 202 C6.37114422 200.54845769 4.84567327 198.7599362 2.75 195.5 C2.22921875 194.7059375 1.7084375 193.911875 1.171875 193.09375 C0 191 0 191 0 189 C-0.66 189 -1.32 189 -2 189 C-8.60015737 175.55767949 -12.43660326 162.87284007 -14 148 C-15.90458984 148.08701172 -15.90458984 148.08701172 -17.84765625 148.17578125 C-34.56004817 148.71062997 -46.79595263 145.96309424 -60 135 C-60.62003906 134.55269531 -61.24007812 134.10539063 -61.87890625 133.64453125 C-71.50464191 126.38614589 -78.34017654 114.25778395 -82 103 C-82.58587891 101.23462891 -82.58587891 101.23462891 -83.18359375 99.43359375 C-87.73505925 84.45352769 -87.76925827 67.92069152 -83 53 C-82.64808594 51.84113281 -82.29617187 50.68226563 -81.93359375 49.48828125 C-79.38250723 41.70031085 -76.19828303 34.41601684 -71 28 C-70.34 28 -69.68 28 -69 28 C-68.5359375 27.071875 -68.5359375 27.071875 -68.0625 26.125 C-67.375 24.75 -66.6875 23.375 -66 22 C-65.34 22 -64.68 22 -64 22 C-64 21.34 -64 20.68 -64 20 C-62.11596425 18.45326742 -60.25559131 17.06140901 -58.25 15.6875 C-57.66669922 15.28595703 -57.08339844 14.88441406 -56.48242188 14.47070312 C-44.86054509 6.71024818 -32.95840073 3.56425929 -19 5 C-15.40184139 5.84684308 -11.99395478 6.89144037 -8.51171875 8.125 C-6.12851497 9.10965876 -6.12851497 9.10965876 -4 9 C-2.68 6.03 -1.36 3.06 0 0 Z " fill="#377808" transform="translate(110,162)"/>
<path d="M0 0 C11.80981799 6.49844366 21.10945717 17.07784692 26.03125 29.66796875 C26.4025 30.60253906 26.77375 31.53710938 27.15625 32.5 C33.14306406 50.02390366 31.34648976 68.44200757 23.45703125 84.96484375 C16.07055538 98.53254302 5.28418602 109.50768948 -9.7421875 114.01171875 C-16.57699459 115.401849 -23.54882424 115.82167865 -30.2109375 113.57421875 C-33.85220571 111.05730815 -34.4344987 108.92187797 -35.71875 104.73046875 C-37.16076247 99.96992103 -37.16076247 99.96992103 -39.109375 95.4140625 C-39.96875 93.66796875 -39.96875 93.66796875 -39.96875 90.66796875 C-39.32808594 90.52101563 -38.68742187 90.3740625 -38.02734375 90.22265625 C-30.40050463 88.24490661 -25.77877546 85.38445403 -21.03125 79.10546875 C-19.14066601 72.98887348 -18.57284583 66.16040331 -20.98828125 60.1171875 C-23.0305207 56.74224799 -24.64784991 54.88190214 -27.96875 52.66796875 C-27.96875 49.38606029 -27.48562323 47.28821663 -25.3671875 44.74609375 C-22.12475657 41.71648647 -19.61878169 39.86970272 -15.34375 38.54296875 C-9.74618148 38.7502861 -6.5094366 40.84261766 -2.78125 44.85546875 C3.21400728 52.40447071 3.61487505 60.24928033 4.03125 69.66796875 C7.48329225 59.11852763 7.6234437 47.21537361 3.25390625 36.91015625 C1.53001796 33.74877645 -0.53042918 31.30948297 -2.96875 28.66796875 C-2.96875 28.00796875 -2.96875 27.34796875 -2.96875 26.66796875 C-3.7525 26.35859375 -4.53625 26.04921875 -5.34375 25.73046875 C-7.96875 24.66796875 -7.96875 24.66796875 -9.96875 23.66796875 C-19.21085182 22.66245136 -19.21085182 22.66245136 -27.65625 25.60546875 C-28.8009375 26.62640625 -28.8009375 26.62640625 -29.96875 27.66796875 C-30.95875 27.99796875 -31.94875 28.32796875 -32.96875 28.66796875 C-33.47579109 25.29398786 -33.97311536 21.91864254 -34.46875 18.54296875 C-34.61183594 17.59164062 -34.75492187 16.6403125 -34.90234375 15.66015625 C-35.58836337 10.95602169 -36.16146007 6.43754305 -35.96875 1.66796875 C-24.88206138 -5.79422551 -11.93054659 -5.27129348 0 0 Z " fill="#DF9241" transform="translate(433.96875,183.33203125)"/>
<path d="M0 0 C0.51691406 0.32097656 1.03382812 0.64195312 1.56640625 0.97265625 C2.55640625 1.46765625 2.55640625 1.46765625 3.56640625 1.97265625 C3.83210857 8.0256873 2.82549988 13.50177431 1.56640625 19.41015625 C1.28023437 20.79364258 1.28023437 20.79364258 0.98828125 22.20507812 C0.52046417 24.46229554 0.04637878 26.71799805 -0.43359375 28.97265625 C-1.2699939 28.39644531 -1.2699939 28.39644531 -2.12329102 27.80859375 C-8.55135323 23.51012663 -14.83533502 22.79157976 -22.43359375 23.97265625 C-25.14882609 25.4303623 -25.14882609 25.4303623 -27.43359375 26.97265625 C-28.09359375 26.97265625 -28.75359375 26.97265625 -29.43359375 26.97265625 C-29.43359375 27.63265625 -29.43359375 28.29265625 -29.43359375 28.97265625 C-30.09359375 28.97265625 -30.75359375 28.97265625 -31.43359375 28.97265625 C-31.43359375 29.63265625 -31.43359375 30.29265625 -31.43359375 30.97265625 C-32.09359375 30.97265625 -32.75359375 30.97265625 -33.43359375 30.97265625 C-33.70171875 31.79765625 -33.96984375 32.62265625 -34.24609375 33.47265625 C-35.43359375 36.97265625 -35.43359375 36.97265625 -37.05859375 40.28515625 C-38.72415463 44.64774211 -38.7292663 48.92393938 -38.74609375 53.53515625 C-38.75141113 54.25550049 -38.75672852 54.97584473 -38.76220703 55.71801758 C-38.7001695 60.47368396 -37.92338942 64.45578571 -36.43359375 68.97265625 C-36.4078125 68.22242188 -36.38203125 67.4721875 -36.35546875 66.69921875 C-35.84607727 57.507018 -34.18673053 48.72579303 -27.43359375 41.97265625 C-23.18046746 39.42797392 -19.27104683 39.41782292 -14.43359375 39.97265625 C-10.28100552 41.72597128 -7.96037815 44.27272195 -5.43359375 47.97265625 C-4.6484375 49.9453125 -4.6484375 49.9453125 -4.43359375 51.97265625 C-5.578125 53.53515625 -5.578125 53.53515625 -7.24609375 54.97265625 C-10.90715278 58.17282186 -12.26677216 60.44843371 -12.8046875 65.36328125 C-13.0822973 74.98376351 -13.0822973 74.98376351 -8.98046875 83.4609375 C-4.20963038 88.12334773 1.16056331 89.62405774 7.56640625 90.97265625 C6.92049374 94.92070573 5.70674894 98.30194804 4.12890625 101.97265625 C2.26758407 106.28035368 2.26758407 106.28035368 0.78125 110.72265625 C-0.43359375 112.97265625 -0.43359375 112.97265625 -3.140625 114.26171875 C-15.88316514 117.01277724 -26.30858978 114.20496994 -37.24609375 107.66015625 C-41.86502544 104.58969163 -45.17895996 101.45877309 -48.43359375 96.97265625 C-48.43359375 96.31265625 -48.43359375 95.65265625 -48.43359375 94.97265625 C-49.09359375 94.97265625 -49.75359375 94.97265625 -50.43359375 94.97265625 C-59.09567793 83.56345394 -62.84009567 69.22246704 -62.74609375 55.09765625 C-62.7411792 54.21851563 -62.73626465 53.339375 -62.73120117 52.43359375 C-62.61294742 45.87445225 -61.82688507 40.11862837 -59.43359375 33.97265625 C-59.07007813 32.98007813 -58.7065625 31.9875 -58.33203125 30.96484375 C-55.83989979 24.54961503 -52.9626368 18.23219011 -48.43359375 12.97265625 C-47.77359375 12.97265625 -47.11359375 12.97265625 -46.43359375 12.97265625 C-46.18480469 12.38355469 -45.93601562 11.79445312 -45.6796875 11.1875 C-42.14626771 4.90709554 -34.11723293 0.60199996 -27.66015625 -2.14453125 C-18.66753753 -4.60498141 -8.28712354 -4.52467215 0 0 Z " fill="#E09241" transform="translate(98.43359375,183.02734375)"/>
<path d="M0 0 C2.69799752 0.95223442 4.36463711 1.81982101 6.6875 3.375 C26.8685053 16.59967393 57.39183989 17.11755799 80.52099609 12.94189453 C90.15325599 10.87798155 99.35869117 7.80642587 107.5625 2.25 C110.31624961 0.43515878 111.03918983 0.12779831 114.5 0.0625 C117.66044175 1.31197697 118.70301025 2.07354884 120.1875 5.125 C120.375 8.375 120.375 8.375 120.1875 11.125 C117.8775 10.795 115.5675 10.465 113.1875 10.125 C112.960625 11.1975 112.73375 12.27 112.5 13.375 C107.83629652 31.73833245 97.17150128 47.03779919 81.1875 57.125 C68.51497851 64.19512145 55.85891431 65.7844923 41.90087891 62.03173828 C27.58515602 57.77590539 15.76215853 46.74428854 8.1875 34.125 C4.09293866 26.12394504 0.79665527 17.71986444 -1.8125 9.125 C-2.4725 9.785 -3.1325 10.445 -3.8125 11.125 C-5.1325 11.125 -6.4525 11.125 -7.8125 11.125 C-8.28177699 7.08921785 -8.11108931 5.53775581 -5.6875 2.1875 C-2.8125 0.125 -2.8125 0.125 0 0 Z " fill="#86481B" transform="translate(193.8125,311.875)"/>
<path d="M0 0 C2.04678103 4.09356205 1.6209768 8.13494883 1.3125 12.625 C1.9209375 12.4084375 2.529375 12.191875 3.15625 11.96875 C9.05559286 10.09484109 14.59435446 9.27752772 20.75 9.1875 C21.43578125 9.16558594 22.1215625 9.14367187 22.828125 9.12109375 C26.21629333 9.13445931 28.02473067 9.40882878 30.76171875 11.46484375 C32.84931996 14.3727618 32.7512852 16.11471838 32.3125 19.625 C31.6807799 20.97524144 31.01958359 22.31265286 30.3125 23.625 C31.446875 23.99625 32.58125 24.3675 33.75 24.75 C41.30626467 27.27670049 48.82279925 29.9077221 56.3125 32.625 C57.89804687 33.19347656 57.89804687 33.19347656 59.515625 33.7734375 C72.64694581 38.83222503 85.73627709 47.33074351 96.3125 56.625 C96.3125 57.285 96.3125 57.945 96.3125 58.625 C96.9725 58.625 97.6325 58.625 98.3125 58.625 C98.3125 59.285 98.3125 59.945 98.3125 60.625 C98.9725 60.625 99.6325 60.625 100.3125 60.625 C100.3125 61.285 100.3125 61.945 100.3125 62.625 C100.910625 62.893125 101.50875 63.16125 102.125 63.4375 C104.31097854 64.62417406 105.72582594 65.72099113 107.3125 67.625 C107.3125 68.285 107.3125 68.945 107.3125 69.625 C107.9725 69.625 108.6325 69.625 109.3125 69.625 C113.80869415 74.42148148 118.90574837 79.88651805 119.0625 86.75 C118.69125 88.668125 118.69125 88.668125 118.3125 90.625 C116.8275 91.615 116.8275 91.615 115.3125 92.625 C115.0622843 95.70865871 115.0622843 95.70865871 115.3125 98.625 C112.54833171 95.99217448 110.34860571 93.37029587 108.25 90.1875 C105.23535695 85.79959222 101.9909415 81.69079086 98.5625 77.625 C98.09062256 77.06111572 97.61874512 76.49723145 97.13256836 75.91625977 C94.97660452 73.3867855 93.09752772 71.48168515 90.3125 69.625 C90.3125 68.965 90.3125 68.305 90.3125 67.625 C89.76335937 67.38007813 89.21421875 67.13515625 88.6484375 66.8828125 C85.81875345 65.35913647 83.46426735 63.48680063 80.9375 61.5 C59.50238964 45.06741657 35.56881129 38.72896275 9.3125 34.625 C10.30161906 30.39141647 12.08666599 27.35865704 14.3125 23.625 C6.60032098 25.37398228 -0.52256183 28.07194471 -7.75952148 31.19946289 C-11.39223325 32.7542955 -14.74384554 34.05278347 -18.6875 34.625 C-17.24756454 26.90170981 -14.63217554 19.8967751 -11.6875 12.625 C-25.43198768 17.37392598 -40.91599527 24.1386562 -50.3515625 35.65625 C-53.92164551 38.6651494 -58.01193846 39.5572921 -62.4375 40.875 C-85.26301202 48.11723888 -109.5809997 61.91348925 -123.453125 82.078125 C-123.86046875 82.58859375 -124.2678125 83.0990625 -124.6875 83.625 C-125.3475 83.625 -126.0075 83.625 -126.6875 83.625 C-126.94789063 84.33914062 -127.20828125 85.05328125 -127.4765625 85.7890625 C-128.74952449 88.77025736 -130.28531012 91.29153158 -132.0625 94 C-134.1196172 97.16020904 -136.09886594 100.29917129 -137.875 103.625 C-139.59824852 106.47727342 -140.73593277 108.10161046 -143.6875 109.625 C-146.6875 108.625 -146.6875 108.625 -147.75 106.625 C-148.059375 105.965 -148.36875 105.305 -148.6875 104.625 C-149.3475 104.295 -150.0075 103.965 -150.6875 103.625 C-149.40133443 97.19417213 -147.08124748 92.22079736 -143.6875 86.625 C-143.0275 86.625 -142.3675 86.625 -141.6875 86.625 C-141.0275 84.645 -140.3675 82.665 -139.6875 80.625 C-139.0275 80.625 -138.3675 80.625 -137.6875 80.625 C-137.460625 79.92375 -137.23375 79.2225 -137 78.5 C-135.34908712 74.88371465 -133.3966165 72.53730024 -130.6875 69.625 C-130.0275 69.625 -129.3675 69.625 -128.6875 69.625 C-128.419375 69.026875 -128.15125 68.42875 -127.875 67.8125 C-126.68832594 65.62652146 -125.59150887 64.21167406 -123.6875 62.625 C-123.0275 62.625 -122.3675 62.625 -121.6875 62.625 C-121.6875 61.965 -121.6875 61.305 -121.6875 60.625 C-121.0275 60.625 -120.3675 60.625 -119.6875 60.625 C-119.6875 59.965 -119.6875 59.305 -119.6875 58.625 C-119.0275 58.625 -118.3675 58.625 -117.6875 58.625 C-117.6875 57.965 -117.6875 57.305 -117.6875 56.625 C-116.19384766 55.29980469 -116.19384766 55.29980469 -114.1015625 53.796875 C-112.96086304 52.97255981 -112.96086304 52.97255981 -111.79711914 52.1315918 C-110.97719482 51.5519165 -110.15727051 50.97224121 -109.3125 50.375 C-108.47904053 49.78307861 -107.64558105 49.19115723 -106.78686523 48.58129883 C-104.42835703 46.91743079 -102.06085634 45.26759686 -99.6875 43.625 C-98.77871094 42.99464844 -97.86992187 42.36429688 -96.93359375 41.71484375 C-87.28335826 35.51728643 -75.8136844 31.13954793 -64.875 27.8125 C-58.68641335 25.66328541 -54.07321208 21.45053914 -49.06640625 17.36328125 C-41.3953752 11.1021306 -33.18981629 6.73187015 -24.1875 2.6875 C-23.32116943 2.28515137 -22.45483887 1.88280273 -21.56225586 1.46826172 C-14.79737116 -1.45471868 -6.8991686 -3.52980719 0 0 Z " fill="#357808" transform="translate(260.6875,62.375)"/>
<path d="M0 0 C8.26135899 5.24530729 13.86536361 12.79474032 16.21484375 22.40625 C18.89651103 36.08275315 17.58887261 48.53119054 10.21484375 60.40625 C7.7913562 63.42825067 5.20093547 65.94641999 2.21484375 68.40625 C0.72984375 69.64375 0.72984375 69.64375 -0.78515625 70.90625 C-7.14299056 74.18771287 -16.82727127 73.34175009 -23.578125 71.74609375 C-30.90965081 68.83114975 -36.0626074 63.235967 -39.78515625 56.40625 C-45.4006789 42.92148323 -45.42394206 29.3934115 -40.09765625 15.90625 C-36.33218892 7.77115453 -29.29944247 0.24859603 -20.859375 -3.046875 C-13.20856688 -5.06403722 -6.79113018 -3.86225413 0 0 Z " fill="#FBF8F3" transform="translate(322.78515625,215.59375)"/>
<path d="M0 0 C9.44342212 5.92959063 14.03591911 15.96277427 16.59375 26.4296875 C17.07023783 29.44438937 17.13224911 32.3231256 17.125 35.375 C17.12886719 36.99535156 17.12886719 36.99535156 17.1328125 38.6484375 C16.87213658 45.22667109 15.82216056 50.29129808 12.5 56 C12.14832764 56.6094043 11.79665527 57.21880859 11.43432617 57.84667969 C7.29604127 64.65068626 1.68500942 69.59291372 -6 72 C-8.65650213 72.24073676 -11.15870886 72.38120262 -13.8125 72.375 C-14.880448 72.37258301 -14.880448 72.37258301 -15.9699707 72.37011719 C-21.58353518 72.23895613 -25.50039458 71.30350778 -30 68 C-30.94875 67.38125 -31.8975 66.7625 -32.875 66.125 C-35.40965038 63.59034962 -36.13911962 61.44352151 -37 58 C-37.66 58 -38.32 58 -39 58 C-39.65365399 56.46163292 -40.29753603 54.91911234 -40.9375 53.375 C-41.29714844 52.51648438 -41.65679687 51.65796875 -42.02734375 50.7734375 C-45.99794928 39.45163057 -44.69354482 26.34603132 -40.625 15.25 C-36.58859333 7.17718667 -31.45440402 1.55715786 -23.625 -2.9375 C-14.97622399 -5.47248607 -7.92904681 -4.07820149 0 0 Z " fill="#FCF9F2" transform="translate(204,216)"/>
<path d="M0 0 C0.66 1.32 1.32 2.64 2 4 C2.66 4 3.32 4 4 4 C5.46256659 6.7269181 6.91928541 9.4569188 8.375 12.1875 C8.7875 12.95642578 9.2 13.72535156 9.625 14.51757812 C11.62877719 18.2827401 13.53510452 21.98361075 15 26 C15.74765625 25.79503906 16.4953125 25.59007812 17.265625 25.37890625 C18.25046875 25.10949219 19.2353125 24.84007812 20.25 24.5625 C21.22453125 24.29566406 22.1990625 24.02882812 23.203125 23.75390625 C24.12609375 23.50511719 25.0490625 23.25632813 26 23 C26.63292969 22.80792969 27.26585937 22.61585938 27.91796875 22.41796875 C36.65619686 20.66376536 47.90892194 21.1143637 56 25 C56.495 26.485 56.495 26.485 57 28 C57.495 28.804375 57.99 29.60875 58.5 30.4375 C59.83385289 32.71616536 60.52465537 34.43313898 61 37 C60.34 37 59.68 37 59 37 C59.495 38.98 59.495 38.98 60 41 C51 38 51 38 48.18359375 36.921875 C44.48145339 35.84984417 41.01109738 35.61771696 37.1875 35.625 C36.48625 35.62371094 35.785 35.62242187 35.0625 35.62109375 C29.30618959 35.73813518 24.86462537 36.97312199 20 40 C20.550976 47.06040677 20.550976 47.06040677 21.5625 54.0625 C22.20426787 58.37151286 22.07733951 62.65180082 22 67 C22.7425 66.38125 23.485 65.7625 24.25 65.125 C30.8113285 60.05488252 36.86833814 60.29289897 45 61 C51.07133276 62.49120454 54.23359296 67.33621717 57.48828125 72.3828125 C62.90698256 81.76402666 63.81570237 93.31978766 61.3203125 103.875 C60.5 106.0625 60.5 106.0625 59 109 C58.67 109 58.34 109 58 109 C57.97421875 108.10539062 57.9484375 107.21078125 57.921875 106.2890625 C57.48759041 97.03090474 56.5260078 89.33970191 50.5625 82 C46.76775383 79.03824689 44.47399925 78 39.625 78 C34.96817158 79.28464232 32.08333063 81.29655818 29 85 C27.51756925 87.96810734 27.51756925 87.96810734 28 91 C30.22877725 93.64573501 30.22877725 93.64573501 33 96 C37.09735845 101.63874568 36.86207791 107.27416573 36 114 C33.87602107 119.69117431 29.91282198 123.59110312 25 127 C21.29363594 128.55667291 19.0569054 129 15 129 C15.3609375 129.84304688 15.721875 130.68609375 16.09375 131.5546875 C16.5578125 132.65039062 17.021875 133.74609375 17.5 134.875 C17.9640625 135.96554687 18.428125 137.05609375 18.90625 138.1796875 C20 141 20 141 20 143 C19.34 143 18.68 143 18 143 C17.67 143.66 17.34 144.32 17 145 C15.5393715 142.35261084 15 141.10551666 15 138 C13.02 138.99 13.02 138.99 11 140 C10.67 139.67 10.34 139.34 10 139 C9.01 140.98 9.01 140.98 8 143 C6.62387677 140.97044407 5.27524452 138.92963266 3.9375 136.875 C3.35258789 136.02035156 3.35258789 136.02035156 2.75585938 135.1484375 C0.87280879 132.21554456 -0.013365 130.38281178 0.109375 126.8671875 C0.96161392 124.12357625 1.97364964 121.7867691 3.3125 119.25 C14.92313815 94.71621677 13.65061081 61.26433243 5.24609375 36.05078125 C3.79913532 32.50822785 2.08532601 29.13654065 0.3125 25.75 C-2.53139663 20.26403166 -4.20341997 16.20430918 -4 10 C-3.01455761 8.9856513 -2.01409141 7.98570717 -1 7 C-0.26958147 3.38976901 -0.26958147 3.38976901 0 0 Z " fill="#377708" transform="translate(379,145)"/>
<path d="M0 0 C0.66 0.66 1.32 1.32 2 2 C3.65 1.34 5.3 0.68 7 0 C6.01 1.98 5.02 3.96 4 6 C4.99 6 5.98 6 7 6 C6.67 8.64 6.34 11.28 6 14 C5.34 14 4.68 14 4 14 C3.773125 14.66 3.54625 15.32 3.3125 16 C2.22486837 18.48601515 1.10486922 20.44265222 -0.375 22.6875 C-9.27088751 36.64800784 -11.42040836 54.14965229 -8.27734375 70.28125 C-6.62522856 76.86295585 -4.42433485 82.90486986 -1.1484375 88.8515625 C0.09390835 91.17567888 1.05926357 93.54027631 2 96 C2.66 96 3.32 96 4 96 C5.09304991 97.35597273 6.1248124 98.76165116 7.125 100.1875 C10.13566204 104.21647421 12.95877002 106.61557511 17.3984375 108.9296875 C19 110 19 110 20 113 C21.81296615 113.62092718 21.81296615 113.62092718 24 114 C25.02867188 114.50273437 25.02867188 114.50273437 26.078125 115.015625 C30.09625811 116.3693276 33.79181249 116.252399 38 116.1875 C38.7940625 116.18685547 39.588125 116.18621094 40.40625 116.18554688 C44.395387 116.15562835 48.10766403 115.98093144 52 115 C51.835 116.093125 51.67 117.18625 51.5 118.3125 C50.93281816 121.87525873 50.93281816 121.87525873 51 125 C50.505 126.485 50.505 126.485 50 128 C31.86695347 128.82841329 18.47500188 127.01834599 4 115 C3.37996094 114.55269531 2.75992188 114.10539062 2.12109375 113.64453125 C-7.50464191 106.38614589 -14.34017654 94.25778395 -18 83 C-18.58587891 81.23462891 -18.58587891 81.23462891 -19.18359375 79.43359375 C-23.73505925 64.45352769 -23.76925827 47.92069152 -19 33 C-18.64808594 31.84113281 -18.29617187 30.68226563 -17.93359375 29.48828125 C-15.38250723 21.70031085 -12.19828303 14.41601684 -7 8 C-6.34 8 -5.68 8 -5 8 C-4.690625 7.38125 -4.38125 6.7625 -4.0625 6.125 C-3.375 4.75 -2.6875 3.375 -2 2 C-1.34 2 -0.68 2 0 2 C0 1.34 0 0.68 0 0 Z " fill="#367809" transform="translate(46,182)"/>
<path d="M0 0 C5.33611971 4.24153105 9.91944967 9.23907112 10.88671875 16.14453125 C11.55667448 26.28173028 11.90506477 33.71075761 5.4375 41.9375 C1.70617965 45.72493043 -1.48720077 47.74171705 -6.875 48.25 C-12.53422841 47.77040437 -15.28189485 45.18832364 -19.25 41.3125 C-24.04862479 35.13620551 -25.15771771 27.23681998 -24.91015625 19.60546875 C-23.94500758 12.19876606 -20.02065036 5.9408045 -14.5625 0.9375 C-9.97643473 -1.7671026 -4.93216752 -2.04504507 0 0 Z " fill="#462C19" transform="translate(203.5625,229.0625)"/>
<path d="M0 0 C5.81496528 4.12333902 9.04981005 8.81916422 10.625 15.75 C11.59159809 24.12718341 11.37266593 31.67835849 7.25 39.1875 C1.34737186 46.56578518 1.34737186 46.56578518 -3.80859375 47.51953125 C-8.87084098 47.79128734 -12.91512924 47.72025449 -17 44.5 C-21.48854148 40.29199236 -24.13071888 34.46201655 -24.56640625 28.37890625 C-24.59371403 26.77366923 -24.59180258 25.16770184 -24.5625 23.5625 C-24.55299316 22.7257373 -24.54348633 21.88897461 -24.53369141 21.02685547 C-24.28424801 13.64592643 -22.64176454 8.73280865 -17.4375 3.3984375 C-12.05434129 -1.41948954 -6.78092931 -1.97318032 0 0 Z " fill="#452B18" transform="translate(310,229)"/>
<path d="M0 0 C2.34346309 1.45252487 4.4670219 2.95530315 6.41796875 4.90625 C6.55166061 6.43646705 6.62148263 7.97235664 6.6640625 9.5078125 C6.69532227 10.46550537 6.72658203 11.42319824 6.75878906 12.40991211 C6.80664551 13.95497437 6.80664551 13.95497437 6.85546875 15.53125 C7.39542427 29.36707886 8.76633397 42.07941436 13.19921875 55.25 C13.60140625 56.4565625 14.00359375 57.663125 14.41796875 58.90625 C14.84078125 60.1540625 15.26359375 61.401875 15.69921875 62.6875 C15.93640625 63.7496875 16.17359375 64.811875 16.41796875 65.90625 C15.75796875 66.89625 15.09796875 67.88625 14.41796875 68.90625 C14.41796875 68.24625 14.41796875 67.58625 14.41796875 66.90625 C13.11859375 66.9990625 13.11859375 66.9990625 11.79296875 67.09375 C5.9706282 66.77028664 1.58595539 63.85486893 -2.58203125 59.90625 C-7.2821863 54.18984521 -7.05399404 48.76779424 -7.11328125 41.52734375 C-6.24236546 35.59102805 -2.87533886 31.89289278 1.41796875 27.90625 C0.21442456 23.49325462 -1.01451806 20.82512443 -4.58203125 17.90625 C-7.37951966 16.97375386 -9.12524006 16.77148848 -12.01953125 16.78125 C-12.78136719 16.77867187 -13.54320313 16.77609375 -14.328125 16.7734375 C-16.62855758 16.90899159 -18.4397778 17.04207132 -20.58203125 17.90625 C-21.77843646 19.72015313 -21.77843646 19.72015313 -22.58203125 21.90625 C-22.92363281 22.57785156 -23.26523438 23.24945313 -23.6171875 23.94140625 C-23.95621094 24.61042969 -24.29523438 25.27945313 -24.64453125 25.96875 C-24.98613281 26.64035156 -25.32773438 27.31195313 -25.6796875 28.00390625 C-27.59672465 32.04545209 -27.86022816 35.66674468 -28.14453125 40.09375 C-28.27021484 42.00220703 -28.27021484 42.00220703 -28.3984375 43.94921875 C-28.48931641 45.41294922 -28.48931641 45.41294922 -28.58203125 46.90625 C-32.56471323 42.92356802 -32.84896057 37.20534357 -32.96142578 31.80322266 C-32.95997559 31.09472168 -32.95852539 30.3862207 -32.95703125 29.65625 C-32.95678955 28.54515869 -32.95678955 28.54515869 -32.95654297 27.41162109 C-32.79858346 19.75806712 -30.84112013 13.29488332 -26.58203125 6.90625 C-25.92203125 6.90625 -25.26203125 6.90625 -24.58203125 6.90625 C-24.58203125 6.24625 -24.58203125 5.58625 -24.58203125 4.90625 C-23.92203125 4.90625 -23.26203125 4.90625 -22.58203125 4.90625 C-22.58203125 4.24625 -22.58203125 3.58625 -22.58203125 2.90625 C-15.99019955 -1.99929917 -7.7371693 -3.2774696 0 0 Z " fill="#A25A14" transform="translate(91.58203125,207.09375)"/>
<path d="M0 0 C6.60425934 3.19658214 10.99595098 10.96396739 13.7109375 17.515625 C16.40383617 26.88222905 16.2155098 38.75406675 11.7734375 47.453125 C11.4434375 47.453125 11.1134375 47.453125 10.7734375 47.453125 C10.74765625 46.55851562 10.721875 45.66390625 10.6953125 44.7421875 C10.26102791 35.48402974 9.2994453 27.79282691 3.3359375 20.453125 C-0.45880867 17.49137189 -2.75256325 16.453125 -7.6015625 16.453125 C-12.25839092 17.73776732 -15.14323187 19.74968318 -18.2265625 23.453125 C-19.70899325 26.42123234 -19.70899325 26.42123234 -19.2265625 29.453125 C-16.99778525 32.09886001 -16.99778525 32.09886001 -14.2265625 34.453125 C-10.12920405 40.09187068 -10.36448459 45.72729073 -11.2265625 52.453125 C-13.35054143 58.14429931 -17.31374052 62.04422812 -22.2265625 65.453125 C-25.93292656 67.00979791 -28.1696571 67.453125 -32.2265625 67.453125 C-32.7215625 68.443125 -32.7215625 68.443125 -33.2265625 69.453125 C-34.41602734 64.60155021 -34.01362428 62.01637575 -31.9140625 57.515625 C-26.87751455 46.56221556 -25.34606572 35.24080293 -25.01953125 23.28125 C-24.98931885 22.20673584 -24.95910645 21.13222168 -24.92797852 20.02514648 C-24.87760747 17.87657187 -24.84512139 15.72749275 -24.83178711 13.57836914 C-24.80995361 12.58442139 -24.78812012 11.59047363 -24.765625 10.56640625 C-24.75740723 9.67735596 -24.74918945 8.78830566 -24.74072266 7.87231445 C-23.93746557 4.0928869 -21.51069981 2.31654923 -18.40234375 0.2265625 C-12.82748523 -1.75516459 -5.69631743 -1.39909551 0 0 Z " fill="#A25A14" transform="translate(426.2265625,206.546875)"/>
<path d="M0 0 C2.5 2.25 2.5 2.25 4 4 C1.93510309 8.88726858 -1.39590769 10.6588034 -6 13 C-8.95993466 14.16010342 -11.94974042 15.10958892 -15 16 C-15.99 16.33 -16.98 16.66 -18 17 C-30.00633041 18.14657998 -41.06443108 15.95906605 -50.875 8.6875 C-51.93190365 7.80969508 -52.98068308 6.92118392 -54 6 C-53.67 4.68 -53.34 3.36 -53 2 C-52.34 2 -51.68 2 -51 2 C-51 1.34 -51 0.68 -51 0 C-49.12855305 -0.82065069 -47.25265664 -1.6311584 -45.375 -2.4375 C-43.80878906 -3.11619141 -43.80878906 -3.11619141 -42.2109375 -3.80859375 C-29.19402803 -8.63846892 -11.81383272 -7.41364672 0 0 Z " fill="#D07A2C" transform="translate(275,353)"/>
<path d="M0 0 C7.25605235 2.52071298 14.65254832 6.45059228 19 13 C19.79686525 15.48777443 19.94600816 17.35439967 20 20 C14.67831897 21.39194258 14.67831897 21.39194258 11.640625 19.63671875 C10.45726562 18.67185547 10.45726562 18.67185547 9.25 17.6875 C3.33662838 13.5571367 -1.96721059 12.99720319 -8.98144531 12.61987305 C-10.99466704 12.49983243 -12.99985343 12.25862166 -15 12 C-17 9 -17 9 -16.8125 6.5 C-15.9432251 3.82530801 -15.1703451 2.73627608 -13 1 C-8.95161119 -1.02419441 -4.39108429 -0.56659152 0 0 Z " fill="#3D780C" transform="translate(317,180)"/>
<path d="M0 0 C2.5625 1.6875 2.5625 1.6875 4.5625 4.6875 C4.02195946 9.22804054 4.02195946 9.22804054 2.5625 10.6875 C0.77262492 10.7823697 -1.01779933 10.87146228 -2.80932617 10.92700195 C-11.44021015 11.2146019 -17.3089281 12.05042476 -24.0625 18 C-26.4375 19.6875 -26.4375 19.6875 -29.75 19.4375 C-30.636875 19.19 -31.52375 18.9425 -32.4375 18.6875 C-32.89899258 14.81096234 -32.65653482 13.03795571 -30.5625 9.6875 C-22.92449978 1.39481405 -10.92584951 -4.17168799 0 0 Z " fill="#3A770B" transform="translate(195.4375,181.3125)"/>
<path d="M0 0 C2.88766287 1.44383143 3.00718603 3.24857471 4.0625 6.25 C4.40410156 7.20390625 4.74570313 8.1578125 5.09765625 9.140625 C6.62730493 13.98782341 7.13708022 18.28922736 7.125 23.375 C7.12886719 24.99535156 7.12886719 24.99535156 7.1328125 26.6484375 C6.85823957 33.57736626 5.67567773 38.41868245 2.1875 44.3125 C1.84396484 44.93189453 1.50042969 45.55128906 1.14648438 46.18945312 C-0.78933894 49.53446864 -2.25675444 51.74664362 -6 53 C-6 52.34 -6 51.68 -6 51 C-7.32 50.34 -8.64 49.68 -10 49 C-9.34 49 -8.68 49 -8 49 C-8.495 47.515 -8.495 47.515 -9 46 C-7.85546875 44.31640625 -7.85546875 44.31640625 -6.1875 42.5625 C-0.10435338 36.10367211 -0.23709652 29.64414392 0 21 C-0.18983047 16.42034 -1.42774201 12.29750518 -3 8 C-1.68 7.67 -0.36 7.34 1 7 C0.67 4.69 0.34 2.38 0 0 Z " fill="#FAF5E8" transform="translate(214,228)"/>
<path d="M0 0 C0.928125 0.5775 1.85625 1.155 2.8125 1.75 C2.4825 2.74 2.1525 3.73 1.8125 4.75 C0.94367188 4.54503906 0.07484375 4.34007812 -0.8203125 4.12890625 C-1.97273438 3.85949219 -3.12515625 3.59007812 -4.3125 3.3125 C-5.44945312 3.04566406 -6.58640625 2.77882813 -7.7578125 2.50390625 C-21.89419754 -0.60352235 -35.30595726 0.93938043 -49.1875 4.75 C-38.7507606 -11.87147386 -14.4843753 -8.07893443 0 0 Z " fill="#CE7D2D" transform="translate(273.1875,277.25)"/>
<path d="M0 0 C2.625 1.9375 2.625 1.9375 4 4 C4 4.66 4 5.32 4 6 C4.66 6.33 5.32 6.66 6 7 C5.34 7 4.68 7 4 7 C4 7.66 4 8.32 4 9 C-2.27499197 10.06808374 -8.86896483 11.04367839 -15 9 C-14.835 8.236875 -14.67 7.47375 -14.5 6.6875 C-13.90854604 3.96403764 -13.90854604 3.96403764 -14 1 C-9.36414746 -1.76863416 -5.12307824 -1.19992364 0 0 Z " fill="#337609" transform="translate(318,182)"/>
<path d="M0 0 C2.375 1.6875 2.375 1.6875 4 4 C3.75 6.75 3.75 6.75 3 9 C-1.97361654 10.75734451 -6.7415998 12.32584613 -12 13 C-12.3125 9.8125 -12.3125 9.8125 -12 6 C-8.39336674 1.63407553 -5.75112585 -0.68465784 0 0 Z " fill="#985618" transform="translate(269,288)"/>
<path d="M0 0 C2.9375 2.125 2.9375 2.125 5 5 C5.3125 8.8125 5.3125 8.8125 5 12 C0.23649415 11.28547412 -4.34201396 10.20465156 -9 9 C-10.32 2.64 -10.32 2.64 -9 0 C-5.70095144 -1.64952428 -3.48363231 -0.96100202 0 0 Z " fill="#965416" transform="translate(238,289)"/>
<path d="M0 0 C8.64883185 8.10981116 11.1142412 21.64788091 11.52709961 33.02685547 C11.69209624 46.30168807 9.15868945 57.15219859 3 69 C2.67 69 2.34 69 2 69 C2 67.35 2 65.7 2 64 C2.66 64 3.32 64 4 64 C4.10957031 63.45472656 4.21914063 62.90945313 4.33203125 62.34765625 C5.16649227 58.37887825 6.09423405 54.69549412 7.625 50.9375 C9.13392651 46.6022086 9.29488995 42.36262697 9.3125 37.8125 C9.31781738 37.13501709 9.32313477 36.45753418 9.32861328 35.75952148 C9.26828747 31.44622579 8.41562275 28.04076227 7 24 C6.72692062 21.88234672 6.51703059 19.75545889 6.375 17.625 C6.30023438 16.56539062 6.22546875 15.50578125 6.1484375 14.4140625 C6.09945313 13.61742187 6.05046875 12.82078125 6 12 C5.34 12 4.68 12 4 12 C3.32645501 10.56570999 2.66140299 9.12742943 2 7.6875 C1.62875 6.88699219 1.2575 6.08648437 0.875 5.26171875 C0 3 0 3 0 0 Z " fill="#B8973F" transform="translate(453,202)"/>
<path d="M0 0 C2.4375 0.8125 2.4375 0.8125 4.4375 3.8125 C4.79590349 6.67972793 4.84871458 8.18485669 3.25 10.625 C0.76512734 12.25302002 -0.64961432 12.32225499 -3.5625 11.8125 C-5.4375 10.1875 -5.4375 10.1875 -6.5625 7.8125 C-6.4375 4.6875 -6.4375 4.6875 -5.5625 1.8125 C-2.5625 -0.1875 -2.5625 -0.1875 0 0 Z " fill="#F4EFEA" transform="translate(191.5625,234.1875)"/>
<path d="M0 0 C5.45454545 0.45454545 5.45454545 0.45454545 8 3 C8.33302312 6.1304173 8.47671956 8.17898298 6.875 10.9375 C4.04805609 12.53943488 2.05073223 11.79584319 -1 11 C-2.89488952 9.10511048 -2.18019112 6.42860854 -2.23046875 3.91015625 C-2 2 -2 2 0 0 Z " fill="#F5F1ED" transform="translate(294,234)"/>
<path d="M0 0 C0.33 0 0.66 0 1 0 C0.98839844 1.03640625 0.97679687 2.0728125 0.96484375 3.140625 C0.95546163 4.51041486 0.94636188 5.88020668 0.9375 7.25 C0.92912109 7.93191406 0.92074219 8.61382812 0.91210938 9.31640625 C0.89551526 12.73479301 1.10736895 15.71349476 2 19 C2.12442271 21.0405324 2.22637018 23.08249293 2.3125 25.125 C2.98134768 34.32422804 6.39791678 41.34588373 11.046875 49.1875 C12 51 12 51 12 53 C12.66 53 13.32 53 14 53 C14.66 54.65 15.32 56.3 16 58 C15.01 57.34 14.02 56.68 13 56 C13 55.34 13 54.68 13 54 C12.34 54 11.68 54 11 54 C2.17550906 42.37688479 -1.39168194 28.03396761 -1.1875 13.6875 C-1.18685547 12.80771484 -1.18621094 11.92792969 -1.18554688 11.02148438 C-1.15916457 7.16087391 -1.06115824 3.73284242 0 0 Z " fill="#BF9742" transform="translate(37,224)"/>
<path d="M0 0 C1.670625 0.8971875 1.670625 0.8971875 3.375 1.8125 C14.56061975 7.65311244 28.54181599 6.24730301 40.8125 6.125 C42.58397928 6.11494307 44.35546412 6.10582205 46.12695312 6.09765625 C50.41810921 6.07587386 54.70899114 6.04149603 59 6 C55.32264996 8.35036239 51.73509589 8.32146364 47.5078125 8.3359375 C46.40549789 8.34809799 46.40549789 8.34809799 45.28091431 8.36050415 C42.89543293 8.37941787 40.51054621 8.37929764 38.125 8.375 C36.91463074 8.37717529 36.91463074 8.37717529 35.67980957 8.37939453 C22.43260788 8.37675683 9.8993617 7.18222139 -3 4 C-3 3.01 -3 2.02 -3 1 C-2.01 0.67 -1.02 0.34 0 0 Z " fill="#7AB921" transform="translate(213,401)"/>
<path d="M0 0 C2.1917718 2.1917718 3.48009386 4.55440996 4.98046875 7.24609375 C6.16966652 9.29187842 7.52258876 11.15323595 9 13 C8.34 13 7.68 13 7 13 C6.67 13.66 6.34 14.32 6 15 C6 14.34 6 13.68 6 13 C4.68 12.67 3.36 12.34 2 12 C2.33 12.99 2.66 13.98 3 15 C2.01 15 1.02 15 0 15 C-2.59147206 11.94576507 -3.02122063 10.41026543 -2.8125 6.375 C-2 3 -2 3 0 0 Z " fill="#FBF5EA" transform="translate(286,262)"/>
<path d="M0 0 C0.33 0 0.66 0 1 0 C1.05856225 4.47911082 1.09378482 8.9581217 1.125 13.4375 C1.14175781 14.69755859 1.15851563 15.95761719 1.17578125 17.25585938 C1.25691762 32.79347416 -2.72567252 45.3792657 -12 58 C-13 55 -13 55 -12.0625 52.8125 C-11.711875 52.214375 -11.36125 51.61625 -11 51 C-10.67 51.33 -10.34 51.66 -10 52 C-9.18082358 50.27398621 -8.36993984 48.5440353 -7.5625 46.8125 C-7.11003906 45.84957031 -6.65757812 44.88664062 -6.19140625 43.89453125 C-5.09618578 41.23368414 -4.45045204 38.83215245 -4 36 C-3.34 36 -2.68 36 -2 36 C-1.01391661 28.31849326 -0.68841256 20.67465629 -0.4375 12.9375 C-0.39431641 11.69033203 -0.35113281 10.44316406 -0.30664062 9.15820312 C-0.20137704 6.10555909 -0.09924059 3.05284477 0 0 Z " fill="#E3CF66" transform="translate(365,220)"/>
<path d="M0 0 C1.13824219 0.00451172 2.27648437 0.00902344 3.44921875 0.01367188 C6.21620409 0.02529786 8.98307158 0.04163569 11.75 0.0625 C11.75 0.7225 11.75 1.3825 11.75 2.0625 C13.73 2.3925 15.71 2.7225 17.75 3.0625 C17.75 3.7225 17.75 4.3825 17.75 5.0625 C16.9971875 4.8459375 16.244375 4.629375 15.46875 4.40625 C2.19443976 0.92657644 -10.09533509 0.86202289 -23.25 5.0625 C-24.4875 5.454375 -25.725 5.84625 -27 6.25 C-27.7425 6.518125 -28.485 6.78625 -29.25 7.0625 C-29.25 6.4025 -29.25 5.7425 -29.25 5.0625 C-28.26 5.0625 -27.27 5.0625 -26.25 5.0625 C-25.92 3.7425 -25.59 2.4225 -25.25 1.0625 C-16.81010242 0.21602904 -8.47901207 -0.06506916 0 0 Z " fill="#8B4510" transform="translate(253.25,345.9375)"/>
<path d="M0 0 C0.33 0 0.66 0 1 0 C1.08201745 4.18289009 0.88241293 7.9188402 0 12 C0 13.32 0 14.64 0 16 C-0.66 16 -1.32 16 -2 16 C-2 23.26 -2 30.52 -2 38 C-5.84003676 34.15996324 -5.16107104 28.86229092 -5.1875 23.6875 C-5.16751364 14.9766046 -3.16702795 8.0615257 0 0 Z " fill="#FEF3D8" transform="translate(284,228)"/>
<path d="M0 0 C2.12493141 -0.02693575 4.24995912 -0.04636628 6.375 -0.0625 C7.55835938 -0.07410156 8.74171875 -0.08570313 9.9609375 -0.09765625 C13 0 13 0 15 1 C17.05806764 1.0974081 19.11931701 1.13076877 21.1796875 1.1328125 C23.03787109 1.13474609 23.03787109 1.13474609 24.93359375 1.13671875 C26.23425781 1.13285156 27.53492188 1.12898438 28.875 1.125 C30.81439453 1.13080078 30.81439453 1.13080078 32.79296875 1.13671875 C34.03433594 1.13542969 35.27570313 1.13414062 36.5546875 1.1328125 C37.69405762 1.13168457 38.83342773 1.13055664 40.00732422 1.12939453 C42.55047123 1.01943631 44.57172063 0.67695675 47 0 C49.08234592 -0.06743348 51.16668557 -0.08514472 53.25 -0.0625 C54.86648438 -0.04896484 54.86648438 -0.04896484 56.515625 -0.03515625 C57.33546875 -0.02355469 58.1553125 -0.01195312 59 0 C59 0.33 59 0.66 59 1 C49.4838458 2.83428834 40.33087523 3.31446006 30.66992188 3.26074219 C28.37082766 3.24998047 26.07250884 3.26072464 23.7734375 3.2734375 C15.67624565 3.27997118 7.91551846 2.89008028 0 1 C0 0.67 0 0.34 0 0 Z " fill="#E9D06D" transform="translate(220,395)"/>
<path d="M0 0 C-1.796875 1.51953125 -1.796875 1.51953125 -4 3 C-7.25 2.6875 -7.25 2.6875 -10 2 C-10 2.66 -10 3.32 -10 4 C-9.34 4.33 -8.68 4.66 -8 5 C-8.66 5.66 -9.32 6.32 -10 7 C-13.125 6.625 -13.125 6.625 -16 6 C-16.66 8.31 -17.32 10.62 -18 13 C-18.12375 12.360625 -18.2475 11.72125 -18.375 11.0625 C-18.58125 10.381875 -18.7875 9.70125 -19 9 C-19.66 8.67 -20.32 8.34 -21 8 C-14.86045777 -0.12586472 -9.98071133 -1.63715225 0 0 Z " fill="#4D3D32" transform="translate(310,229)"/>
<path d="M0 0 C0.33 0 0.66 0 1 0 C1 3.96 1 7.92 1 12 C0.34 12 -0.32 12 -1 12 C-1.66 24.21 -2.32 36.42 -3 49 C-3.33 49 -3.66 49 -4 49 C-4.45629533 32.14515256 -4.26978214 16.37385206 0 0 Z " fill="#55700E" transform="translate(102,186)"/>
<path d="M0 0 C0.33 0 0.66 0 1 0 C1.01981934 0.5576001 1.03963867 1.1152002 1.06005859 1.68969727 C1.24796443 20.72147931 1.24796443 20.72147931 5.12890625 39.16015625 C6.01354309 42.04415168 6.06228135 43.23806848 5 46 C3.06892959 40.64401226 1.7056382 35.64510557 1 30 C0.67 29.67 0.34 29.34 0 29 C-0.08775605 26.85441173 -0.10695219 24.70595579 -0.09765625 22.55859375 C-0.09443359 21.25341797 -0.09121094 19.94824219 -0.08789062 18.60351562 C-0.07953401 17.2148431 -0.07106905 15.82617123 -0.0625 14.4375 C-0.05748666 13.04492344 -0.05292347 11.65234519 -0.04882812 10.25976562 C-0.03699434 6.8398013 -0.0205088 3.41992156 0 0 Z " fill="#8B6717" transform="translate(97,214)"/>
<path d="M0 0 C-0.66 2.64 -1.32 5.28 -2 8 C-2.33 7.01 -2.66 6.02 -3 5 C-5.97 5 -8.94 5 -12 5 C-12 5.66 -12 6.32 -12 7 C-13.11375 7.45375 -14.2275 7.9075 -15.375 8.375 C-18.96199008 9.72465986 -18.96199008 9.72465986 -21 12 C-23.625 12.625 -23.625 12.625 -26 13 C-22.54212437 8.97184645 -18.57474071 7.05307406 -13.875 4.8125 C-12.78251953 4.27979492 -12.78251953 4.27979492 -11.66796875 3.73632812 C-9.7818256 2.81766136 -7.89120754 1.90819527 -6 1 C-4 0 -4 0 0 0 Z " fill="#77B620" transform="translate(249,75)"/>
<path d="M0 0 C0.99 0.33 1.98 0.66 3 1 C2.65066406 1.67546875 2.30132812 2.3509375 1.94140625 3.046875 C1.25884766 4.38492187 1.25884766 4.38492187 0.5625 5.75 C0.11003906 6.63171875 -0.34242188 7.5134375 -0.80859375 8.421875 C-2.48037726 12.0395049 -3.12636227 15.14292632 -3.1328125 19.1171875 C-3.13410156 19.88933594 -3.13539063 20.66148437 -3.13671875 21.45703125 C-3.13285156 22.25496094 -3.12898437 23.05289062 -3.125 23.875 C-3.12886719 24.66519531 -3.13273438 25.45539063 -3.13671875 26.26953125 C-3.12947139 30.6251962 -2.86871024 34.71160502 -2 39 C-2.66 39 -3.32 39 -4 39 C-5.58610867 34.24167398 -5.26765133 29.42168201 -5.3125 24.4375 C-5.34150391 23.39013672 -5.37050781 22.34277344 -5.40039062 21.26367188 C-5.46603659 13.13872106 -3.59864425 7.1972885 0 0 Z " fill="#91B023" transform="translate(141,293)"/>
<path d="M0 0 C1.98 0.66 3.96 1.32 6 2 C5.62593017 4.71200625 5.34170728 5.73802442 3.125 7.4375 C2.42375 7.953125 1.7225 8.46875 1 9 C-0.00568242 10.66324401 -1.00664799 12.32936253 -2 14 C-2.66 14 -3.32 14 -4 14 C-5.52299523 16.93720508 -6.80100302 19.9168649 -8 23 C-8.66 23 -9.32 23 -10 23 C-8.17301482 15.69205928 -3.4604995 10.04046107 2 5 C1.34 3.35 0.68 1.7 0 0 Z " fill="#E3CE65" transform="translate(149,280)"/>
<path d="M0 0 C11.96877111 -0.69139243 23.03704392 -0.16281382 32.8125 7.8125 C33.534375 8.534375 34.25625 9.25625 35 10 C33.68 10.33 32.36 10.66 31 11 C31 10.34 31 9.68 31 9 C30.34 9 29.68 9 29 9 C28.608125 8.566875 28.21625 8.13375 27.8125 7.6875 C22.59561998 2.83040481 15.83699291 2.37403591 9.0625 1.8125 C8.18787109 1.73064453 7.31324219 1.64878906 6.41210938 1.56445312 C4.27567277 1.36598634 2.13794116 1.18154346 0 1 C0 0.67 0 0.34 0 0 Z " fill="#BF9942" transform="translate(408,180)"/>
<path d="M0 0 C0.733396 0.00257813 1.46679199 0.00515625 2.22241211 0.0078125 C5.95485808 0.11109706 8.89323766 0.37706574 12.0625 2.4375 C12.0625 2.7675 12.0625 3.0975 12.0625 3.4375 C10.06295254 3.48004356 8.06208364 3.47830783 6.0625 3.4375 C5.7325 3.1075 5.4025 2.7775 5.0625 2.4375 C-1.8071329 1.57526213 -7.20315887 2.93735523 -13.4921875 5.66015625 C-16.15220963 6.50575434 -17.35842072 6.39115955 -19.9375 5.4375 C-13.35766598 1.45833472 -7.59168914 -0.039036 0 0 Z " fill="#B9973F" transform="translate(82.9375,179.5625)"/>
<path d="M0 0 C0.66 1.65 1.32 3.3 2 5 C1.01 5.495 1.01 5.495 0 6 C-1.51005146 5.24645182 -2.98425184 4.42049771 -4.4375 3.5625 C-11.14328163 0.0490208 -17.76855576 -0.05171209 -25 2 C-25 1.34 -25 0.68 -25 0 C-18.56351568 -3.21824216 -6.9615161 -1.13657406 0 0 Z " fill="#E4CB75" transform="translate(327,180)"/>
<path d="M0 0 C0.33 0 0.66 0 1 0 C1.125 7.75 1.125 7.75 0 10 C-0.08639869 12.40838678 -0.11567764 14.78733881 -0.09765625 17.1953125 C-0.0962413 17.90275604 -0.09482635 18.61019958 -0.09336853 19.33908081 C-0.087766 21.60109669 -0.07521318 23.86301398 -0.0625 26.125 C-0.05748532 27.65755065 -0.05292236 29.19010286 -0.04882812 30.72265625 C-0.03779577 34.48180888 -0.02052952 38.24088772 0 42 C-0.66 42 -1.32 42 -2 42 C-2.04961356 36.98292465 -2.08582043 31.96599365 -2.10986328 26.94873047 C-2.1198914 25.24362702 -2.13351726 23.53854064 -2.15087891 21.83349609 C-2.17526803 19.37593358 -2.18651512 16.91859939 -2.1953125 14.4609375 C-2.20563507 13.70444916 -2.21595764 12.94796082 -2.22659302 12.16854858 C-2.22752561 7.72177057 -1.65121642 4.13089783 0 0 Z " fill="#9BB32A" transform="translate(135,208)"/>
<path d="M0 0 C-1.12047806 3.36143418 -2.49707183 4.57528834 -5 7 C-5.33 7.66 -5.66 8.32 -6 9 C-6.7425 9.391875 -7.485 9.78375 -8.25 10.1875 C-11.41022073 12.27037275 -12.88375758 14.42298016 -14.88671875 17.57421875 C-15.43779297 18.27998047 -15.43779297 18.27998047 -16 19 C-16.66 19 -17.32 19 -18 19 C-17.34 17.35 -16.68 15.7 -16 14 C-15.34 14 -14.68 14 -14 14 C-13.64228516 13.17242187 -13.64228516 13.17242187 -13.27734375 12.328125 C-11.69547745 9.44496807 -9.74843163 7.20513503 -7.5625 4.75 C-6.78003906 3.85796875 -5.99757812 2.9659375 -5.19140625 2.046875 C-3 0 -3 0 0 0 Z " fill="#76B41C" transform="translate(150,132)"/>
<path d="M0 0 C7 8.75 7 8.75 7 13 C7.66 13 8.32 13 9 13 C10.2890625 14.53125 10.2890625 14.53125 11.625 16.5 C12.29402344 17.47453125 12.29402344 17.47453125 12.9765625 18.46875 C13.31429687 18.9740625 13.65203125 19.479375 14 20 C11.5625 19.1875 11.5625 19.1875 9 18 C8.67 17.01 8.34 16.02 8 15 C7.04867187 14.80857422 7.04867187 14.80857422 6.078125 14.61328125 C4 14 4 14 2.734375 11.85546875 C2.40953125 10.97503906 2.0846875 10.09460938 1.75 9.1875 C1.41484375 8.31480469 1.0796875 7.44210937 0.734375 6.54296875 C0 4 0 4 0 0 Z " fill="#4A7208" transform="translate(41,265)"/>
<path d="M0 0 C0.33 0.99 0.66 1.98 1 3 C-0.375 5.5625 -0.375 5.5625 -2 8 C-2.33 8.66 -2.66 9.32 -3 10 C-3.66 10 -4.32 10 -5 10 C-5.33 11.32 -5.66 12.64 -6 14 C-6.99 14 -7.98 14 -9 14 C-9.33 15.32 -9.66 16.64 -10 18 C-10.66 18 -11.32 18 -12 18 C-9.83379871 11.06815586 -4.50655737 5.54653214 0 0 Z " fill="#E8CD69" transform="translate(265,183)"/>
<path d="M0 0 C2 4 2 4 3 7 C9.82598042 10.74368213 19.52469859 9.84086261 26.875 8 C27.90625 7.67 28.9375 7.34 30 7 C30 7.66 30 8.32 30 9 C27.09478202 10.65238888 24.99877808 11.25541594 21.6640625 11.265625 C20.84679687 11.26820313 20.02953125 11.27078125 19.1875 11.2734375 C18.341875 11.26570313 17.49625 11.25796875 16.625 11.25 C15.78710938 11.25773437 14.94921875 11.26546875 14.0859375 11.2734375 C9.3270257 11.25847237 5.47000073 10.83459313 1 9 C0.67 6.03 0.34 3.06 0 0 Z " fill="#506F08" transform="translate(399,288)"/>
<path d="M0 0 C0.66 0.33 1.32 0.66 2 1 C2 2.65 2 4.3 2 6 C0.02 6.33 -1.96 6.66 -4 7 C-4.93380961 11.53140653 -4.93380961 11.53140653 -4 16 C-5.32 15.34 -6.64 14.68 -8 14 C-7.67 13.01 -7.34 12.02 -7 11 C-7.66 11 -8.32 11 -9 11 C-7.59928507 5.70841026 -4.14512755 3.22521956 0 0 Z " fill="#483A2F" transform="translate(191,229)"/>
<path d="M0 0 C1.50433594 0.01353516 1.50433594 0.01353516 3.0390625 0.02734375 C3.80992187 0.03894531 4.58078125 0.05054688 5.375 0.0625 C5.375 0.3925 5.375 0.7225 5.375 1.0625 C4.77171875 1.09988281 4.1684375 1.13726562 3.546875 1.17578125 C-2.61867772 1.62503341 -2.61867772 1.62503341 -7.625 5.0625 C-7.295 5.7225 -6.965 6.3825 -6.625 7.0625 C-7.5625 9.1875 -7.5625 9.1875 -8.625 11.0625 C-7.635 11.3925 -6.645 11.7225 -5.625 12.0625 C-7.275 11.7325 -8.925 11.4025 -10.625 11.0625 C-11.375 8.3125 -11.375 8.3125 -11.625 5.0625 C-8.09729556 0.56163571 -5.53301736 -0.06433741 0 0 Z " fill="#557D17" transform="translate(311.625,179.9375)"/>
<path d="M0 0 C0 0.66 0 1.32 0 2 C-0.75925781 2.39832031 -1.51851562 2.79664063 -2.30078125 3.20703125 C-3.29464844 3.73683594 -4.28851563 4.26664063 -5.3125 4.8125 C-6.29863281 5.33457031 -7.28476563 5.85664063 -8.30078125 6.39453125 C-10.6346536 7.78269556 -12.13356696 9.08762399 -14 11 C-14.66 11 -15.32 11 -16 11 C-16.33 11.99 -16.66 12.98 -17 14 C-17.66 13.34 -18.32 12.68 -19 12 C-18.34 12 -17.68 12 -17 12 C-16.87625 11.38125 -16.7525 10.7625 -16.625 10.125 C-16 8 -16 8 -14 6 C-12.68 6 -11.36 6 -10 6 C-10 5.34 -10 4.68 -10 4 C-8.68 3.67 -7.36 3.34 -6 3 C-6 2.34 -6 1.68 -6 1 C-4 0 -4 0 0 0 Z " fill="#8AB01D" transform="translate(171,164)"/>
<path d="M0 0 C-2.09535983 2.09535983 -3.31927775 2.61158267 -6.0625 3.5625 C-8.76801198 4.39744333 -8.76801198 4.39744333 -11 6 C-13.52596259 6.23653523 -16.03107207 6.42173692 -18.5625 6.5625 C-19.62887695 6.62727539 -19.62887695 6.62727539 -20.71679688 6.69335938 C-22.47761912 6.79971777 -24.2387832 6.90038846 -26 7 C-22.80588665 5.22379854 -19.74332703 4.37043503 -16.1875 3.5625 C-12.59702899 2.70866848 -9.28144471 1.81479464 -5.9375 0.25 C-3 -1 -3 -1 0 0 Z " fill="#8DB022" transform="translate(305,389)"/>
<path d="M0 0 C2.67901932 2.31881505 3.66204403 4.31814468 4.6875 7.6875 C5.06455078 8.89986328 5.06455078 8.89986328 5.44921875 10.13671875 C5.63097656 10.75160156 5.81273437 11.36648438 6 12 C5.34 12 4.68 12 4 12 C3.67 12.66 3.34 13.32 3 14 C1.5393715 11.35261084 1 10.10551666 1 7 C-0.98 7.99 -0.98 7.99 -3 9 C-2.6875 7.0625 -2.6875 7.0625 -2 5 C-1.01 4.67 -0.02 4.34 1 4 C0.67 2.68 0.34 1.36 0 0 Z " fill="#41720A" transform="translate(393,276)"/>
<path d="M0 0 C2.16874252 0.50603992 3.99967627 0.99983813 6 2 C6.2396943 7.63281599 5.38529821 12.54538831 4 18 C3.67 18 3.34 18 3 18 C2.67 12.72 2.34 7.44 2 2 C1.34 2 0.68 2 0 2 C0 1.34 0 0.68 0 0 Z " fill="#CB9944" transform="translate(96,183)"/>
<path d="M0 0 C1.66646427 3.33292855 0.22983774 6.23583676 -0.88671875 9.64453125 C-2 12 -2 12 -4.8125 14.125 C-10.57591071 15.90891284 -17.04776851 15.2228991 -23 15 C-23 14.67 -23 14.34 -23 14 C-22.14535156 13.93941406 -21.29070312 13.87882812 -20.41015625 13.81640625 C-19.30542969 13.73261719 -18.20070313 13.64882813 -17.0625 13.5625 C-15.96035156 13.48128906 -14.85820313 13.40007812 -13.72265625 13.31640625 C-11.08890097 13.29581916 -11.08890097 13.29581916 -10 12 C-8.00041636 11.95919217 -5.99954746 11.95745644 -4 12 C-4 10.35 -4 8.7 -4 7 C-3.34 7 -2.68 7 -2 7 C-1.855625 6.030625 -1.71125 5.06125 -1.5625 4.0625 C-1 1 -1 1 0 0 Z " fill="#BE9942" transform="translate(101,283)"/>
<path d="M0 0 C2.375 -0.125 2.375 -0.125 5 0 C6.33333333 1.33333333 7.66666667 2.66666667 9 4 C7.875 5.5625 7.875 5.5625 6 7 C2.8125 6.6875 2.8125 6.6875 0 6 C0 4.02 0 2.04 0 0 Z " fill="#397509" transform="translate(163,194)"/>
<path d="M0 0 C3.96 1.98 7.92 3.96 12 6 C11.67 6.99 11.34 7.98 11 9 C6.71 8.01 2.42 7.02 -2 6 C-0.68 5.67 0.64 5.34 2 5 C1.34 3.35 0.68 1.7 0 0 Z " fill="#CF8736" transform="translate(264,273)"/>
<path d="M0 0 C0.33 0.66 0.66 1.32 1 2 C-0.36328125 4.6796875 -0.36328125 4.6796875 -2.3125 7.875 C-5.32425507 12.84615149 -5.32425507 12.84615149 -8 18 C-9 20 -10 22 -11 24 C-11.66 24 -12.32 24 -13 24 C-11.59847107 19.25077763 -9.5542057 15.12690148 -7.0625 10.875 C-6.54139648 9.96427734 -6.54139648 9.96427734 -6.00976562 9.03515625 C-4.17930229 5.87062643 -2.27321092 2.86467332 0 0 Z " fill="#78B620" transform="translate(131,151)"/>
<path d="M0 0 C1 3 1 3 -0.1875 6.5625 C-2.00763502 10.01448022 -2.51916256 10.72369294 -6 12 C-6.33 12.66 -6.66 13.32 -7 14 C-6.34 14.33 -5.68 14.66 -5 15 C-5.99 15.33 -6.98 15.66 -8 16 C-8.99 15.34 -9.98 14.68 -11 14 C-10.37351562 13.32453125 -9.74703125 12.6490625 -9.1015625 11.953125 C-8.28429687 11.06109375 -7.46703125 10.1690625 -6.625 9.25 C-5.81289063 8.36828125 -5.00078125 7.4865625 -4.1640625 6.578125 C-2.3374152 4.40197479 -1.10212006 2.59179881 0 0 Z " fill="#497109" transform="translate(454,272)"/>
<path d="M0 0 C0.33 0 0.66 0 1 0 C0.979375 1.11375 0.95875 2.2275 0.9375 3.375 C0.73619282 6.83215921 0.73619282 6.83215921 2 9 C1.57847656 9.48210937 1.15695312 9.96421875 0.72265625 10.4609375 C0.17480469 11.09257812 -0.37304688 11.72421875 -0.9375 12.375 C-1.48277344 13.00148438 -2.02804687 13.62796875 -2.58984375 14.2734375 C-4.06958624 15.95632334 -4.06958624 15.95632334 -5 18 C-5.66 17.67 -6.32 17.34 -7 17 C-6.401875 15.865625 -5.80375 14.73125 -5.1875 13.5625 C-2.98322311 9.17747943 -1.43186235 4.68609497 0 0 Z " fill="#8CB121" transform="translate(364,254)"/>
<path d="M0 0 C2.01945183 0.45091428 4.01953545 0.98766565 6.01171875 1.546875 C6.01171875 1.876875 6.01171875 2.206875 6.01171875 2.546875 C1.99367184 3.38786156 -1.00631668 3.60092445 -4.98828125 2.546875 C-4.98828125 1.886875 -4.98828125 1.226875 -4.98828125 0.546875 C-12.90828125 1.041875 -12.90828125 1.041875 -20.98828125 1.546875 C-15.36846783 -2.19966728 -6.54701983 -0.99275072 0 0 Z " fill="#E8CF6B" transform="translate(318.98828125,162.453125)"/>
<path d="M0 0 C0.33 0.99 0.66 1.98 1 3 C0.01 4.485 0.01 4.485 -1 6 C-1.70812814 8.32108669 -2.38024152 10.65377147 -3 13 C-3.66 13 -4.32 13 -5 13 C-5.12375 14.299375 -5.2475 15.59875 -5.375 16.9375 C-5.5859375 19.15234375 -5.5859375 19.15234375 -6 21 C-6.66 21.33 -7.32 21.66 -8 22 C-7.46393482 14.13771072 -4.35349826 6.53024739 0 0 Z " fill="#C39943" transform="translate(46,202)"/>
<path d="M0 0 C0.66 0.33 1.32 0.66 2 1 C1.05125 1.7425 0.1025 2.485 -0.875 3.25 C-3.35482791 5.31070206 -4.78705272 6.96763179 -6 10 C-6.99 11.485 -6.99 11.485 -8 13 C-9.32 12.67 -10.64 12.34 -12 12 C-8.27653164 7.57905197 -4.70478962 3.42166518 0 0 Z " fill="#FEF3D8" transform="translate(297,215)"/>
<path d="M0 0 C0.99 0 1.98 0 3 0 C1.13168762 4.72726482 -0.87167612 9.39286077 -2.87890625 14.0625 C-3.89554218 16.72629867 -4.54084769 19.19349597 -5 22 C-5.33 22 -5.66 22 -6 22 C-6.81270891 14.84816158 -3.86603336 9.4274322 -1 3 C-0.67 2.01 -0.34 1.02 0 0 Z " fill="#4E6E07" transform="translate(43,202)"/>
<path d="M0 0 C0.33 0.66 0.66 1.32 1 2 C-1.89217759 7.54334038 -1.89217759 7.54334038 -5.046875 8.84375 C-7.01200737 9.31761171 -9.00604667 9.66767445 -11 10 C-11 9.34 -11 8.68 -11 8 C-9.02866014 6.62464661 -7.02318078 5.29788956 -5 4 C-3.31916921 2.68456721 -1.6475884 1.35683751 0 0 Z M-9 10 C-7 11 -7 11 -7 11 Z " fill="#3E830C" transform="translate(210,81)"/>
<path d="M0 0 C1.670625 0.061875 1.670625 0.061875 3.375 0.125 C0.37974399 3.25640401 -0.8061942 4.10336137 -5.3203125 4.22265625 C-6.79690652 4.21600493 -8.27348404 4.20407574 -9.75 4.1875 C-10.50410156 4.18298828 -11.25820313 4.17847656 -12.03515625 4.17382812 C-13.89847127 4.16203499 -15.76174555 4.14409942 -17.625 4.125 C-17.625 3.795 -17.625 3.465 -17.625 3.125 C-16.78195312 3.07601563 -15.93890625 3.02703125 -15.0703125 2.9765625 C-13.97460938 2.90179688 -12.87890625 2.82703125 -11.75 2.75 C-10.11417969 2.64558594 -10.11417969 2.64558594 -8.4453125 2.5390625 C-4.48723665 1.95795995 -4.26303271 0.14700113 0 0 Z " fill="#FEF5DB" transform="translate(319.625,283.875)"/>
<path d="M0 0 C0.33 0 0.66 0 1 0 C0.53211337 5.38069625 -0.94944071 9.64537326 -3.16015625 14.5703125 C-4.0674821 17.19522728 -4.15206802 19.24315395 -4 22 C-4.66 22 -5.32 22 -6 22 C-6.30594431 16.79894666 -5.71762278 14.34819645 -3 10 C-2.63858045 7.67085177 -2.30300475 5.33746522 -2 3 C-1.34 2.01 -0.68 1.02 0 0 Z " fill="#4C6D08" transform="translate(397,253)"/>
<path d="M0 0 C5.02254631 -0.2954439 7.89542386 0.01485372 12 3 C11.67 4.65 11.34 6.3 11 8 C10.34 7.67 9.68 7.34 9 7 C9 6.34 9 5.68 9 5 C6.12540025 3.56270012 3.08945705 2.85818251 0 2 C0 1.34 0 0.68 0 0 Z " fill="#503E30" transform="translate(194,228)"/>
<path d="M0 0 C1.625 1.6875 1.625 1.6875 3 4 C2.1875 6.75 2.1875 6.75 1 9 C1.66 9 2.32 9 3 9 C2.67 9.66 2.34 10.32 2 11 C-0.31 9.02 -2.62 7.04 -5 5 C-3.68 4.67 -2.36 4.34 -1 4 C-0.67 2.68 -0.34 1.36 0 0 Z " fill="#3F7308" transform="translate(444,182)"/>
<path d="M0 0 C0.33 0.99 0.66 1.98 1 3 C0.01 3 -0.98 3 -2 3 C-2.2475 3.639375 -2.495 4.27875 -2.75 4.9375 C-4 7 -4 7 -5.875 7.5 C-6.57625 7.665 -7.2775 7.83 -8 8 C-9.35308313 9.31328657 -10.68870078 10.64499081 -12 12 C-12.66 12 -13.32 12 -14 12 C-14 11.34 -14 10.68 -14 10 C-11.69833213 8.20916148 -9.39761099 6.52740758 -7 4.875 C-6.33226562 4.40707031 -5.66453125 3.93914062 -4.9765625 3.45703125 C-3.32185734 2.29873764 -1.66144693 1.14860235 0 0 Z " fill="#3C850F" transform="translate(157,109)"/>
<path d="M0 0 C11.385 1.485 11.385 1.485 23 3 C23 3.33 23 3.66 23 4 C15.00023956 4.20483028 7.73865554 4.13480153 0 2 C0 1.34 0 0.68 0 0 Z " fill="#88AE1C" transform="translate(217,395)"/>
<path d="M0 0 C0.99 0 1.98 0 3 0 C3.3690205 9.41002278 3.3690205 9.41002278 1 14 C0.67 14 0.34 14 0 14 C0 9.38 0 4.76 0 0 Z " fill="#A0560C" transform="translate(437,240)"/>
<path d="M0 0 C0.33 0.66 0.66 1.32 1 2 C0.06027344 2.50660156 0.06027344 2.50660156 -0.8984375 3.0234375 C-1.71570313 3.46945313 -2.53296875 3.91546875 -3.375 4.375 C-4.59316406 5.03628906 -4.59316406 5.03628906 -5.8359375 5.7109375 C-8.10814302 6.9443893 -8.10814302 6.9443893 -10 9 C-12.32275177 9.40047444 -14.65739357 9.7397104 -17 10 C-13.43312878 6.95591696 -9.90489084 4.78917799 -5.6875 2.75 C-4.61886719 2.22921875 -3.55023438 1.7084375 -2.44921875 1.171875 C-1.64097656 0.78515625 -0.83273438 0.3984375 0 0 Z " fill="#77B41E" transform="translate(185,107)"/>
<path d="M0 0 C0.66 1.32 1.32 2.64 2 4 C0.38405168 6.04119788 -1.2856382 8.04072937 -3 10 C-3.66 10 -4.32 10 -5 10 C-5.66 11.32 -6.32 12.64 -7 14 C-7.66 13.67 -8.32 13.34 -9 13 C-8.15115234 11.96939453 -8.15115234 11.96939453 -7.28515625 10.91796875 C-6.55167969 10.01691406 -5.81820313 9.11585938 -5.0625 8.1875 C-3.96615234 6.84751953 -3.96615234 6.84751953 -2.84765625 5.48046875 C-0.84817309 3.06637081 -0.84817309 3.06637081 0 0 Z " fill="#8DB11F" transform="translate(354,346)"/>
<path d="M0 0 C6.28908555 3.14454277 6.28908555 3.14454277 7.6875 7.3125 C7.95949219 8.09238281 8.23148437 8.87226563 8.51171875 9.67578125 C9.03839183 12.18274511 8.8178554 13.60132343 8 16 C5.33333333 10.66666667 2.66666667 5.33333333 0 0 Z " fill="#8FAF20" transform="translate(352,184)"/>
<path d="M0 0 C-1.51238097 4.23466671 -4.35869844 5.59829046 -8 8 C-8.33 8.99 -8.66 9.98 -9 11 C-10.32 10.67 -11.64 10.34 -13 10 C-3.24657534 0 -3.24657534 0 0 0 Z " fill="#77B51E" transform="translate(221,89)"/>
<path d="M0 0 C0.66 0 1.32 0 2 0 C3.24450076 1.50650092 4.48600273 3.01588808 5.6953125 4.55078125 C6.98359289 6.16943338 6.98359289 6.16943338 9.25 7.0625 C9.8275 7.371875 10.405 7.68125 11 8 C11.75 10.625 11.75 10.625 12 13 C11.56429688 12.62488281 11.12859375 12.24976563 10.6796875 11.86328125 C6.81392401 8.54140223 2.92342352 5.25357073 -1 2 C-0.67 1.34 -0.34 0.68 0 0 Z " fill="#8EB123" transform="translate(339,169)"/>
<path d="M0 0 C0 0.66 0 1.32 0 2 C0.66 2 1.32 2 2 2 C2 2.66 2 3.32 2 4 C-5.5 1 -5.5 1 -13 -2 C-13 -2.33 -13 -2.66 -13 -3 C-7.8052391 -4.94803534 -4.46329399 -2.58051489 0 0 Z " fill="#90B124" transform="translate(219,167)"/>
<path d="M0 0 C6.19726403 0.39557004 10.88255086 2.47489018 16 6 C16.33 6.66 16.66 7.32 17 8 C15.39253944 7.57476184 13.78910164 7.13429874 12.1875 6.6875 C11.29417969 6.44386719 10.40085937 6.20023438 9.48046875 5.94921875 C6.90996863 4.96554705 5.80395151 4.01870765 4 2 C1.90010348 0.82425289 1.90010348 0.82425289 0 0 Z " fill="#467109" transform="translate(314,181)"/>
<path d="M0 0 C0.66 0 1.32 0 2 0 C2.28875 0.94875 2.5775 1.8975 2.875 2.875 C3.76825109 6.05211578 3.76825109 6.05211578 6 8 C4 9 4 9 1.4375 8.3125 C-1 7 -1 7 -1.9375 5.0625 C-2 3 -2 3 0 0 Z " fill="#453124" transform="translate(289,238)"/>
<path d="M0 0 C0.9796875 -0.01417969 1.959375 -0.02835938 2.96875 -0.04296875 C5.5 0.1875 5.5 0.1875 7.5 2.1875 C6.80132812 2.16429687 6.10265625 2.14109375 5.3828125 2.1171875 C4.01769531 2.09011719 4.01769531 2.09011719 2.625 2.0625 C1.72007812 2.03929687 0.81515625 2.01609375 -0.1171875 1.9921875 C-2.68806994 1.94425164 -2.68806994 1.94425164 -4.5 4.1875 C-7.625 3.8125 -7.625 3.8125 -10.5 3.1875 C-6.54603601 0.55152401 -4.71192035 0.03099948 0 0 Z " fill="#FEF4DA" transform="translate(309.5,211.8125)"/>
<path d="M0 0 C2.04136395 -0.05451714 4.08315856 -0.09302485 6.125 -0.125 C7.83042969 -0.15980469 7.83042969 -0.15980469 9.5703125 -0.1953125 C13.05757767 0.00327891 15.7553862 0.7475199 19 2 C19 2.33 19 2.66 19 3 C12.4294834 3.24794402 6.43028541 2.32388229 0 1 C0 0.67 0 0.34 0 0 Z " fill="#DCCA5E" transform="translate(220,395)"/>
<path d="M0 0 C0.66 0.33 1.32 0.66 2 1 C-0.9726015 5.55798897 -3.62632241 8.79263643 -8 12 C-8.33 11.01 -8.66 10.02 -9 9 C-6 6 -3 3 0 0 Z " fill="#F2BF74" transform="translate(292,353)"/>
<path d="M0 0 C0.33 0.99 0.66 1.98 1 3 C-0.62445619 3.98006859 -2.24958261 4.95902636 -3.875 5.9375 C-4.77992188 6.48277344 -5.68484375 7.02804687 -6.6171875 7.58984375 C-8.05201636 8.43898017 -9.50875448 9.25437724 -11 10 C-11.33 9.01 -11.66 8.02 -12 7 C-11.38511719 6.66226562 -10.77023437 6.32453125 -10.13671875 5.9765625 C-9.32847656 5.53054688 -8.52023437 5.08453125 -7.6875 4.625 C-6.88699219 4.18414062 -6.08648437 3.74328125 -5.26171875 3.2890625 C-3.46472057 2.26486665 -1.72099292 1.14732862 0 0 Z " fill="#54710A" transform="translate(442,287)"/>
<path d="M0 0 C0.33 0.99 0.66 1.98 1 3 C-0.8125 5.6875 -0.8125 5.6875 -3 8 C-3.66 8 -4.32 8 -5 8 C-5.33 8.99 -5.66 9.98 -6 11 C-9.0625 12.1875 -9.0625 12.1875 -12 13 C-9.44751213 10.44751213 -6.89487917 7.89732384 -4.3125 5.375 C-1.88724324 3.02914245 -1.88724324 3.02914245 0 0 Z " fill="#F4D194" transform="translate(215,273)"/>
<path d="M0 0 C2.41696872 -0.05411124 4.83271787 -0.09372278 7.25 -0.125 C7.93191406 -0.14175781 8.61382812 -0.15851563 9.31640625 -0.17578125 C13.0608235 -0.21213482 15.82352727 -0.07944349 19 2 C18.21496094 1.98839844 17.42992188 1.97679687 16.62109375 1.96484375 C10.96280225 1.91624493 5.57121122 1.98705251 0 3 C0 2.01 0 1.02 0 0 Z " fill="#3F8A10" transform="translate(76,167)"/>
<path d="M0 0 C6.31390154 -0.54903492 11.39268586 1.05669718 17 4 C17.33 4.66 17.66 5.32 18 6 C5.33029613 2.92482916 5.33029613 2.92482916 0 1 C0 0.67 0 0.34 0 0 Z " fill="#DBCC5F" transform="translate(200,389)"/>
<path d="M0 0 C0.33 0.66 0.66 1.32 1 2 C-2.64751781 7.08441876 -4.85169289 8.79444959 -11 10 C-7.50640535 6.40365256 -3.88901869 3.16548033 0 0 Z " fill="#90B022" transform="translate(339,365)"/>
<path d="M0 0 C1.42944945 2.35438733 2.08661261 3.48032433 1.625 6.25 C1.41875 6.8275 1.2125 7.405 1 8 C0.34 8 -0.32 8 -1 8 C-1.33 8.66 -1.66 9.32 -2 10 C-3.10348268 6.68955197 -2.99444068 4.34493684 -2 1 C-1.34 0.67 -0.68 0.34 0 0 Z " fill="#FDFAF8" transform="translate(213,267)"/>
<path d="M0 0 C4.94151304 2.40016348 7.04331244 5.52273027 10 10 C9.01 10.495 9.01 10.495 8 11 C7.5875 10.38125 7.175 9.7625 6.75 9.125 C5.17368664 6.88637691 5.17368664 6.88637691 2.875 6.0625 C1 5 1 5 0.25 2.375 C0.1675 1.59125 0.085 0.8075 0 0 Z " fill="#C99844" transform="translate(443,191)"/>
<path d="M0 0 C0.33 0 0.66 0 1 0 C1.16718733 4.3468706 1.14407655 7.21633551 -1 11 C-1.37668344 12.65740715 -1.72057545 14.32345271 -2 16 C-4 13 -4 13 -3.8125 10.8125 C-2.74470692 7.11629318 -1.39755275 3.58502663 0 0 Z " fill="#886718" transform="translate(396,260)"/>
<path d="M0 0 C0.66 0.33 1.32 0.66 2 1 C2 1.99 2 2.98 2 4 C1.34 4 0.68 4 0 4 C-0.103125 4.598125 -0.20625 5.19625 -0.3125 5.8125 C-1.08876455 8.28243264 -2.07088921 9.32251235 -4 11 C-5 8 -5 8 -4.00390625 5.95703125 C-3.52824219 5.24933594 -3.05257813 4.54164062 -2.5625 3.8125 C-2.08941406 3.09707031 -1.61632812 2.38164063 -1.12890625 1.64453125 C-0.75636719 1.10183594 -0.38382812 0.55914062 0 0 Z " fill="#3C7D02" transform="translate(275,86)"/>
<path d="M0 0 C1.65 0 3.3 0 5 0 C4.01 1.485 4.01 1.485 3 3 C2.34 3 1.68 3 1 3 C1.33 3.99 1.66 4.98 2 6 C0.02 6.33 -1.96 6.66 -4 7 C-3.67 6.34 -3.34 5.68 -3 5 C-3 4.34 -3 3.68 -3 3 C-2.01 3 -1.02 3 0 3 C0 2.01 0 1.02 0 0 Z " fill="#38820F" transform="translate(300,408)"/>
<path d="M0 0 C-1.64508566 1.80959422 -2.86654689 2.94112363 -5.125 3.9375 C-7.20721701 4.84645565 -7.20721701 4.84645565 -7.75 7.125 C-7.8325 7.74375 -7.915 8.3625 -8 9 C-9.0625 7.125 -9.0625 7.125 -10 5 C-9.67 4.34 -9.34 3.68 -9 3 C-8.34 3 -7.68 3 -7 3 C-7 2.34 -7 1.68 -7 1 C-3.375 -1.125 -3.375 -1.125 0 0 Z " fill="#C67834" transform="translate(231,352)"/>
<path d="M0 0 C0.66 0.33 1.32 0.66 2 1 C2 3.31 2 5.62 2 8 C0.68 7.67 -0.64 7.34 -2 7 C-2.33 5.35 -2.66 3.7 -3 2 C-2.01 2 -1.02 2 0 2 C0 1.34 0 0.68 0 0 Z " fill="#3B800E" transform="translate(106,336)"/>
<path d="M0 0 C0.98120464 3.05263664 0.98120464 4.94736336 0 8 C-0.66 8 -1.32 8 -2 8 C-1.67 8.99 -1.34 9.98 -1 11 C-2.32 11.99 -3.64 12.98 -5 14 C-5.66 13.67 -6.32 13.34 -7 13 C-6.21625 11.96875 -5.4325 10.9375 -4.625 9.875 C-2.35603148 6.71901262 -1.01464129 3.78184481 0 0 Z " fill="#F6CF8F" transform="translate(337,265)"/>
<path d="M0 0 C0.25 2.8125 0.25 2.8125 0 6 C-2 7.875 -2 7.875 -4 9 C-4.75 6.75 -4.75 6.75 -5 4 C-1.75675676 0 -1.75675676 0 0 0 Z " fill="#F2EBE5" transform="translate(302,237)"/>
<path d="M0 0 C0.99 0 1.98 0 3 0 C3 0.66 3 1.32 3 2 C4.65 2.33 6.3 2.66 8 3 C8 3.99 8 4.98 8 6 C8.66 6.33 9.32 6.66 10 7 C9.01 7.495 9.01 7.495 8 8 C6.66372225 6.85760183 5.33104612 5.71098945 4 4.5625 C3.2575 3.92441406 2.515 3.28632813 1.75 2.62890625 C1.1725 2.09136719 0.595 1.55382812 0 1 C0 0.67 0 0.34 0 0 Z " fill="#493426" transform="translate(183,268)"/>
<path d="M0 0 C4.61513112 1.31860889 8.09897612 3.21355437 12 6 C11.67 7.32 11.34 8.64 11 10 C10.29875 9.2575 9.5975 8.515 8.875 7.75 C6.77717418 5.743384 5.06971505 4.28910331 2.6875 2.75 C1.800625 2.1725 0.91375 1.595 0 1 C0 0.67 0 0.34 0 0 Z " fill="#F3D094" transform="translate(200,214)"/>
<path d="M0 0 C0.90105469 0.19464844 1.80210937 0.38929688 2.73046875 0.58984375 C3.41753906 0.74582031 4.10460937 0.90179688 4.8125 1.0625 C4.8125 1.3925 4.8125 1.7225 4.8125 2.0625 C-1.6225 2.5575 -1.6225 2.5575 -8.1875 3.0625 C-8.1875 2.0725 -8.1875 1.0825 -8.1875 0.0625 C-4.80475734 -1.06508089 -3.41971777 -0.75500262 0 0 Z " fill="#F4CE7B" transform="translate(185.1875,177.9375)"/>
<path d="M0 0 C-0.125 1.8125 -0.125 1.8125 -1 4 C-4.20883825 5.95320589 -6.2205439 7 -10 7 C-8.71372289 5.82739389 -7.42080217 4.6620717 -6.125 3.5 C-5.04605469 2.52546875 -5.04605469 2.52546875 -3.9453125 1.53125 C-2 0 -2 0 0 0 Z " fill="#E6CE68" transform="translate(278,173)"/>
<path d="M0 0 C1.32 0.33 2.64 0.66 4 1 C0.7 3.97 -2.6 6.94 -6 10 C-6.33 9.34 -6.66 8.68 -7 8 C-5.74381926 4.23145777 -4.33985294 3.92041544 -1 2 C-0.67 1.34 -0.34 0.68 0 0 Z " fill="#89AD1F" transform="translate(272,173)"/>
<path d="M0 0 C1.74965358 -0.05429959 3.49979787 -0.09292823 5.25 -0.125 C6.22453125 -0.14820313 7.1990625 -0.17140625 8.203125 -0.1953125 C11.0196498 0.00137219 12.60949036 0.55431084 15 2 C14.67 2.66 14.34 3.32 14 4 C9.38 3.01 4.76 2.02 0 1 C0 0.67 0 0.34 0 0 Z " fill="#93B125" transform="translate(316,162)"/>
<path d="M0 0 C0 2 0 2 -1.42578125 3.54296875 C-2.04839844 4.08566406 -2.67101562 4.62835938 -3.3125 5.1875 C-3.92738281 5.73792969 -4.54226562 6.28835937 -5.17578125 6.85546875 C-5.77777344 7.23316406 -6.37976563 7.61085937 -7 8 C-7.99 7.67 -8.98 7.34 -10 7 C-8.90536178 5.82438854 -7.79892814 4.6597511 -6.6875 3.5 C-6.07261719 2.8503125 -5.45773438 2.200625 -4.82421875 1.53125 C-3 0 -3 0 0 0 Z " fill="#3B7C01" transform="translate(156,124)"/>
<path d="M0 0 C-0.33 0.99 -0.66 1.98 -1 3 C-1.99 3 -2.98 3 -4 3 C-4 3.66 -4 4.32 -4 5 C-5.75 6.2890625 -5.75 6.2890625 -8 7.625 C-8.7425 8.07101563 -9.485 8.51703125 -10.25 8.9765625 C-10.8275 9.31429687 -11.405 9.65203125 -12 10 C-10.58426179 6.60812721 -8.95769034 4.90302459 -6 2.75 C-5.29875 2.22921875 -4.5975 1.7084375 -3.875 1.171875 C-2 0 -2 0 0 0 Z " fill="#79B71E" transform="translate(164,120)"/>
<path d="M0 0 C3.3 0.33 6.6 0.66 10 1 C6 4 6 4 2.75 3.6875 C1.8425 3.460625 0.935 3.23375 0 3 C0 2.01 0 1.02 0 0 Z " fill="#554335" transform="translate(300,228)"/>
<path d="M0 0 C0.33 0.99 0.66 1.98 1 3 C-0.81725675 5.82684384 -2.03937946 7.65310925 -5.25 8.8125 C-5.8275 8.874375 -6.405 8.93625 -7 9 C-6.34 7.68 -5.68 6.36 -5 5 C-4.34 5 -3.68 5 -3 5 C-2.690625 4.360625 -2.38125 3.72125 -2.0625 3.0625 C-1 1 -1 1 0 0 Z " fill="#42810F" transform="translate(135,127)"/>
<path d="M0 0 C1.17539996 0.92652701 2.34010577 1.86663387 3.5 2.8125 C4.1496875 3.33457031 4.799375 3.85664063 5.46875 4.39453125 C7 6 7 6 7 9 C6.34 9 5.68 9 5 9 C4.67 7.68 4.34 6.36 4 5 C2.68 4.67 1.36 4.34 0 4 C0 2.68 0 1.36 0 0 Z " fill="#8FB022" transform="translate(156,361)"/>
<path d="M0 0 C3.25524265 3.02272532 5.61820737 6.25718301 8 10 C7.01 10 6.02 10 5 10 C5 9.34 5 8.68 5 8 C4.34 8 3.68 8 3 8 C3 7.34 3 6.68 3 6 C2.34 6 1.68 6 1 6 C0.67 4.02 0.34 2.04 0 0 Z " fill="#91B125" transform="translate(145,347)"/>
<path d="M0 0 C1.79068573 2.6860286 2.66055791 4.6626589 3.625 7.6875 C3.88539063 8.49574219 4.14578125 9.30398438 4.4140625 10.13671875 C4.60742188 10.75160156 4.80078125 11.36648438 5 12 C4.34 12 3.68 12 3 12 C0.39797501 8.46124601 -0.60362833 5.3600884 -1 1 C-0.67 0.67 -0.34 0.34 0 0 Z " fill="#8EB023" transform="translate(139,333)"/>
<path d="M0 0 C0.66 0 1.32 0 2 0 C1 3 1 3 -0.84765625 4.16796875 C-1.57855469 4.50441406 -2.30945313 4.84085937 -3.0625 5.1875 C-3.79597656 5.53167969 -4.52945312 5.87585938 -5.28515625 6.23046875 C-6.13400391 6.61138672 -6.13400391 6.61138672 -7 7 C-7 6.01 -7 5.02 -7 4 C-6.030625 3.525625 -5.06125 3.05125 -4.0625 2.5625 C-1.19522563 1.29806053 -1.19522563 1.29806053 0 0 Z " fill="#3E800C" transform="translate(444,298)"/>
<path d="M0 0 C1 2 1 2 0.22265625 4.6015625 C-0.16019531 5.59929687 -0.54304688 6.59703125 -0.9375 7.625 C-1.50791016 9.12933594 -1.50791016 9.12933594 -2.08984375 10.6640625 C-2.39019531 11.43492187 -2.69054687 12.20578125 -3 13 C-3.66 12.67 -4.32 12.34 -5 12 C-4.74337755 10.55989519 -4.46909179 9.1229313 -4.1875 7.6875 C-4.03667969 6.88699219 -3.88585937 6.08648437 -3.73046875 5.26171875 C-2.92427764 2.76554413 -1.97947998 1.67577894 0 0 Z " fill="#7DBB21" transform="translate(382,262)"/>
<path d="M0 0 C2 3 2 3 2 7 C1.01 7.33 0.02 7.66 -1 8 C-1 7.01 -1 6.02 -1 5 C-1.99 5 -2.98 5 -4 5 C-3.34 4.67 -2.68 4.34 -2 4 C-2.33 3.01 -2.66 2.02 -3 1 C-2.01 0.67 -1.02 0.34 0 0 Z " fill="#4F3524" transform="translate(318,256)"/>
<path d="M0 0 C2.27932354 4.55864707 2.00060683 5.8855176 1.125 10.75 C0.92132813 11.92046875 0.71765625 13.0909375 0.5078125 14.296875 C0.34023438 15.18890625 0.17265625 16.0809375 0 17 C-0.66 17 -1.32 17 -2 17 C-1.34 11.39 -0.68 5.78 0 0 Z " fill="#876717" transform="translate(401,236)"/>
<path d="M0 0 C0.33 0 0.66 0 1 0 C1.19392201 5.52677733 0.7479503 9.75614911 -1 15 C-1.33 15 -1.66 15 -2 15 C-2.21755666 9.5610835 -2.10428384 5.12919186 0 0 Z " fill="#90B023" transform="translate(135,208)"/>
<path d="M0 0 C0.33 1.32 0.66 2.64 1 4 C-3.455 5.485 -3.455 5.485 -8 7 C-5.42215154 4.35247996 -3.08351902 2.05567935 0 0 Z " fill="#4C7A11" transform="translate(174,184)"/>
<path d="M0 0 C-1.74468372 0.70088156 -3.49601161 1.38524009 -5.25 2.0625 C-6.22453125 2.44535156 -7.1990625 2.82820312 -8.203125 3.22265625 C-11.04007395 4.01113787 -12.29409552 4.02437812 -15 3 C-9.96822606 0.24450475 -5.6529036 -1.8843012 0 0 Z " fill="#CB9944" transform="translate(78,182)"/>
<path d="M0 0 C4.21296303 0.67407408 7.42592112 2.77463013 11 5 C11.33 5.66 11.66 6.32 12 7 C9.05917877 6.36982402 6.67968527 5.33984264 4 4 C3.34 4 2.68 4 2 4 C1.34 2.68 0.68 1.36 0 0 Z " fill="#DFCF60" transform="translate(330,167)"/>
<path d="M0 0 C4.875 4.75 4.875 4.75 6 7 C5.34 7 4.68 7 4 7 C3.67 7.66 3.34 8.32 3 9 C3 8.34 3 7.68 3 7 C2.34 7 1.68 7 1 7 C0.67 4.69 0.34 2.38 0 0 Z " fill="#EEE9E1" transform="translate(289,268)"/>
<path d="M0 0 C7.75 0.75 7.75 0.75 10 3 C9.01 3.33 8.02 3.66 7 4 C7 3.34 7 2.68 7 2 C5.02 2.99 3.04 3.98 1 5 C0.67 3.35 0.34 1.7 0 0 Z " fill="#3D880F" transform="translate(425,168)"/>
<path d="M0 0 C-0.66 1.65 -1.32 3.3 -2 5 C-2.99 4.34 -3.98 3.68 -5 3 C-5 2.34 -5 1.68 -5 1 C-5.66 0.67 -6.32 0.34 -7 0 C-3.86650268 -1.04449911 -3.01031744 -0.93423645 0 0 Z " fill="#3B7E0F" transform="translate(126,365)"/>
<path d="M0 0 C4 4.625 4 4.625 4 8 C3.01 7.67 2.02 7.34 1 7 C-0.1875 3.9375 -0.1875 3.9375 -1 1 C-0.67 0.67 -0.34 0.34 0 0 Z " fill="#3F8413" transform="translate(460,190)"/>
<path d="M0 0 C0.33 0 0.66 0 1 0 C1.33 2.64 1.66 5.28 2 8 C1.01 8.66 0.02 9.32 -1 10 C-1.125 2.25 -1.125 2.25 0 0 Z " fill="#FEF3D7" transform="translate(162,235)"/>
<path d="M0 0 C2.58047436 1.29023718 2.67022964 2.27089391 3.625 4.9375 C3.88539063 5.64777344 4.14578125 6.35804688 4.4140625 7.08984375 C5 9 5 9 5 11 C4.34 11 3.68 11 3 11 C2.49632243 9.54293274 1.99717444 8.08429904 1.5 6.625 C1.2215625 5.81289062 0.943125 5.00078125 0.65625 4.1640625 C0 2 0 2 0 0 Z " fill="#FEF2D1" transform="translate(214,228)"/>
<path d="M0 0 C2.33333823 2.12121657 3.9148886 4.01594365 5 7 C4.625 9.25 4.625 9.25 4 11 C0 4.5 0 4.5 0 0 Z " fill="#FFF4D8" transform="translate(332,225)"/>
<path d="M0 0 C0.33 0 0.66 0 1 0 C1 1.65 1 3.3 1 5 C-1.8125 5.6875 -1.8125 5.6875 -5 6 C-6.875 4.5625 -6.875 4.5625 -8 3 C-5.36 3 -2.72 3 0 3 C0 2.01 0 1.02 0 0 Z " fill="#68801B" transform="translate(336,195)"/>
<path d="M0 0 C0.66 1.32 1.32 2.64 2 4 C-0.97 6.475 -0.97 6.475 -4 9 C-2.94124926 5.59687262 -1.99097846 2.98646769 0 0 Z " fill="#41810F" transform="translate(115,153)"/>
<path d="M0 0 C0.66 1.32 1.32 2.64 2 4 C2.66 4 3.32 4 4 4 C4 4.66 4 5.32 4 6 C3.01 6 2.02 6 1 6 C0.67 6.66 0.34 7.32 0 8 C-0.98120464 4.94736336 -0.98120464 3.05263664 0 0 Z " fill="#36840E" transform="translate(379,145)"/>
<path d="M0 0 C2.5 2.3125 2.5 2.3125 5 5 C5 5.99 5 6.98 5 8 C3.68 8 2.36 8 1 8 C0.67 5.36 0.34 2.72 0 0 Z " fill="#77B51C" transform="translate(362,143)"/>
<path d="M0 0 C5.445 1.485 5.445 1.485 11 3 C11 3.33 11 3.66 11 4 C8.36 4 5.72 4 3 4 C3 3.34 3 2.68 3 2 C2.01 2 1.02 2 0 2 C0 1.34 0 0.68 0 0 Z " fill="#8AAE20" transform="translate(205,391)"/>
<path d="M0 0 C-3.20336822 2.83374881 -5.78087253 3.5205537 -10 4 C-10 3.34 -10 2.68 -10 2 C-6.5980513 -0.09350689 -3.94727588 -0.17942163 0 0 Z " fill="#E6CD64" transform="translate(299,389)"/>
<path d="M0 0 C2.875 0.3125 2.875 0.3125 6 1 C6.66 1.99 7.32 2.98 8 4 C7.01 4.33 6.02 4.66 5 5 C3.35 3.35 1.7 1.7 0 0 Z " fill="#8F5720" transform="translate(305,312)"/>
<path d="M0 0 C1.90401138 1.90401138 2.93520439 3.33425686 3.19921875 6.046875 C3.1886578 8.03233273 3.09915043 10.0169914 3 12 C0.79680323 7.59360646 -0.10924981 5.02549129 0 0 Z " fill="#CB9B45" transform="translate(460,220)"/>
<path d="M0 0 C0.99 0.495 0.99 0.495 2 1 C2.33 1.99 2.66 2.98 3 4 C4.49985609 5.66710346 4.49985609 5.66710346 6 7 C3.03 6.505 3.03 6.505 0 6 C0 4.02 0 2.04 0 0 Z " fill="#5D7F16" transform="translate(163,194)"/>
<path d="M0 0 C0.99 0.33 1.98 0.66 3 1 C2.34 1.66 1.68 2.32 1 3 C0.319375 3.8353125 0.319375 3.8353125 -0.375 4.6875 C-0.91125 5.120625 -1.4475 5.55375 -2 6 C-4.1875 5.6875 -4.1875 5.6875 -6 5 C-1.60546875 0.99609375 -1.60546875 0.99609375 0 0 Z " fill="#C39843" transform="translate(61,186)"/>
<path d="M0 0 C-1.49097658 3.7952131 -3.75700849 5.61042731 -7 8 C-6.44414399 4.1090079 -4.34122117 0 0 0 Z " fill="#8EAE22" transform="translate(152,283)"/>
<path d="M0 0 C1 3 1 3 0.25 5.125 C-1 7 -1 7 -4 8 C-4 4 -4 4 -2 1.75 C-1.01 0.88375 -1.01 0.88375 0 0 Z " fill="#92B029" transform="translate(352,278)"/>
<path d="M0 0 C0.66 0.33 1.32 0.66 2 1 C2.33 1.99 2.66 2.98 3 4 C2.01 5.485 2.01 5.485 1 7 C0.34 6.67 -0.32 6.34 -1 6 C-1.625 3.9375 -1.625 3.9375 -2 2 C-1.34 2 -0.68 2 0 2 C0 1.34 0 0.68 0 0 Z " fill="#3E7E11" transform="translate(141,121)"/>
<path d="M0 0 C4.75 0.75 4.75 0.75 7 3 C6.67 3.99 6.34 4.98 6 6 C3.97945196 4.35830472 1.97956942 2.69088222 0 1 C0 0.67 0 0.34 0 0 Z " fill="#3D7D03" transform="translate(342,123)"/>
<path d="M0 0 C0 0.66 0 1.32 0 2 C-2.64 2.66 -5.28 3.32 -8 4 C-8 3.34 -8 2.68 -8 2 C-4.91190305 0.23537317 -3.76687864 0 0 0 Z M-6 4 C-4 5 -4 5 -4 5 Z " fill="#3A930F" transform="translate(207,87)"/>
<path d="M0 0 C1.32 0.33 2.64 0.66 4 1 C1.69 2.65 -0.62 4.3 -3 6 C-3.33 5.34 -3.66 4.68 -4 4 C-3.34 4 -2.68 4 -2 4 C-2 3.34 -2 2.68 -2 2 C-1.34 2 -0.68 2 0 2 C0 1.34 0 0.68 0 0 Z " fill="#E5CE66" transform="translate(325,373)"/>
<path d="M0 0 C0.66 0.33 1.32 0.66 2 1 C0.02 2.98 -1.96 4.96 -4 7 C-4.66 6.67 -5.32 6.34 -6 6 C-5.34 5.01 -4.68 4.02 -4 3 C-3.34 3 -2.68 3 -2 3 C-2 2.34 -2 1.68 -2 1 C-1.34 0.67 -0.68 0.34 0 0 Z " fill="#78B620" transform="translate(366,361)"/>
<path d="M0 0 C2.97 0.495 2.97 0.495 6 1 C6 2.65 6 4.3 6 6 C3.97945196 4.35830472 1.97956942 2.69088222 0 1 C0 0.67 0 0.34 0 0 Z " fill="#E2CE65" transform="translate(159,363)"/>
<path d="M0 0 C2.31 0.33 4.62 0.66 7 1 C6.01 1.495 6.01 1.495 5 2 C5.33 2.99 5.66 3.98 6 5 C3.5625 4.1875 3.5625 4.1875 1 3 C0.67 2.01 0.34 1.02 0 0 Z " fill="#3A8514" transform="translate(55,299)"/>
<path d="M0 0 C3.23475448 1.61737724 4.70572021 2.47629223 7 5 C6.67 5.99 6.34 6.98 6 8 C4.02 5.36 2.04 2.72 0 0 Z " fill="#91B026" transform="translate(351,287)"/>
<path d="M0 0 C0.99 0 1.98 0 3 0 C2.46930939 3.82097239 1.50298434 6.06171403 -1 9 C-0.67 6.03 -0.34 3.06 0 0 Z " fill="#C69744" transform="translate(103,274)"/>
<path d="M0 0 C0.625 1.875 0.625 1.875 1 4 C0.34 4.66 -0.32 5.32 -1 6 C-1.33 5.67 -1.66 5.34 -2 5 C-2.66 5.66 -3.32 6.32 -4 7 C-4 4 -4 4 -2 1.8125 C-1.34 1.214375 -0.68 0.61625 0 0 Z " fill="#EBE5DE" transform="translate(210,269)"/>
<path d="M0 0 C2.0625 1.6875 2.0625 1.6875 4 4 C3.75 6.75 3.75 6.75 3 9 C2.34 9 1.68 9 1 9 C1.020625 8.071875 1.04125 7.14375 1.0625 6.1875 C1.15769604 2.97713989 1.15769604 2.97713989 0 0 Z " fill="#507910" transform="translate(196,182)"/>
<path d="M0 0 C0.33 0 0.66 0 1 0 C1 1.65 1 3.3 1 5 C-0.98 5.66 -2.96 6.32 -5 7 C-3.625 4.5 -3.625 4.5 -2 2 C-1.34 2 -0.68 2 0 2 C0 1.34 0 0.68 0 0 Z " fill="#318C0A" transform="translate(46,182)"/>
<path d="M0 0 C1.875 0.3125 1.875 0.3125 4 1 C4.66 1.99 5.32 2.98 6 4 C4.68 4.33 3.36 4.66 2 5 C1.34 3.35 0.68 1.7 0 0 Z " fill="#38870F" transform="translate(349,115)"/>
</svg>
