<svg xmlns="http://www.w3.org/2000/svg" xmlns:xlink="http://www.w3.org/1999/xlink" width="100" zoomAndPan="magnify" viewBox="0 0 75 74.999997" height="100" preserveAspectRatio="xMidYMid meet" version="1.0"><defs><g/></defs><rect x="-7.5" width="90" fill="#ffffff" y="-7.5" height="89.999996" fill-opacity="1"/><rect x="-7.5" width="90" fill="#ffffff" y="-7.5" height="89.999996" fill-opacity="1"/><g fill="#000000" fill-opacity="1"><g transform="translate(20.322187, 51.185224)"><g><path d="M 27.828125 -17.171875 C 26.484375 -16.816406 25.210938 -16.363281 24.015625 -15.8125 C 22.816406 -15.269531 21.695312 -14.617188 20.65625 -13.859375 C 20.601562 -11.128906 20.210938 -9.015625 19.484375 -7.515625 C 18.765625 -6.015625 17.800781 -5.265625 16.59375 -5.265625 C 15.007812 -5.265625 14.21875 -6.203125 14.21875 -8.078125 C 14.21875 -9.242188 14.503906 -10.503906 15.078125 -11.859375 C 15.648438 -13.222656 16.394531 -14.40625 17.3125 -15.40625 C 17.1875 -17.039062 16.988281 -18.457031 16.71875 -19.65625 C 16.457031 -20.863281 16.140625 -21.851562 15.765625 -22.625 C 13.242188 -21.6875 11.046875 -20.46875 9.171875 -18.96875 C 9.085938 -16.195312 8.6875 -14.0625 7.96875 -12.5625 C 7.257812 -11.070312 6.28125 -10.328125 5.03125 -10.328125 C 4.226562 -10.328125 3.640625 -10.5625 3.265625 -11.03125 C 2.890625 -11.5 2.703125 -12.207031 2.703125 -13.15625 C 2.703125 -14.320312 2.984375 -15.578125 3.546875 -16.921875 C 4.109375 -18.273438 4.84375 -19.429688 5.75 -20.390625 C 5.65625 -21.847656 5.46875 -23.109375 5.1875 -24.171875 C 4.90625 -25.234375 4.53125 -26.101562 4.0625 -26.78125 L -0.359375 -26.78125 L -0.359375 -30.25 L 7 -30.25 C 7.625 -28.820312 8.09375 -27.46875 8.40625 -26.1875 C 8.71875 -24.914062 8.875 -23.726562 8.875 -22.625 C 9.84375 -23.46875 11.203125 -24.300781 12.953125 -25.125 C 14.703125 -25.945312 16.445312 -26.546875 18.1875 -26.921875 C 18.789062 -25.921875 19.304688 -24.539062 19.734375 -22.78125 C 20.160156 -21.019531 20.410156 -19.332031 20.484375 -17.71875 C 21.515625 -18.425781 22.640625 -19.046875 23.859375 -19.578125 C 25.078125 -20.117188 26.398438 -20.566406 27.828125 -20.921875 L 27.828125 -30.25 L 36.4375 -30.25 L 36.4375 -26.78125 L 31.75 -26.78125 L 31.75 0 L 27.828125 0 Z M 14.3125 0 Z M 18.1875 -23.453125 Z M 20.484375 -14.25 Z M 27.828125 -17.453125 Z M 8.875 -19.15625 Z M 8.875 -19.15625 "/></g></g></g></svg>